<svg width="25" height="19" viewBox="0 0 25 19" fill="none" xmlns="http://www.w3.org/2000/svg">
<path d="M24.7866 8.60954L17.287 0.276652C17.127 0.0999944 16.9037 0 16.6671 0H11.6673C11.339 0 11.0407 0.193323 10.9057 0.493307C10.7724 0.794957 10.8274 1.1466 11.0474 1.38992L18.0453 9.16617L11.0474 16.9408C10.8274 17.1857 10.7707 17.5374 10.9057 17.8374C11.0407 18.139 11.339 18.3323 11.6673 18.3323H16.6671C16.9037 18.3323 17.127 18.2307 17.287 18.0574L24.7866 9.72447C25.0716 9.40783 25.0716 8.92452 24.7866 8.60954Z" fill="#565966"/>
<path d="M13.9535 8.60954L6.45392 0.276652C6.29393 0.0999944 6.07061 0 5.83396 0H0.834225C0.50591 0 0.207593 0.193323 0.0725999 0.493307C-0.0607263 0.794957 -0.00572924 1.1466 0.214259 1.38992L7.21221 9.16617L0.214259 16.9408C-0.00572924 17.1857 -0.0623928 17.5374 0.0725999 17.8374C0.207593 18.139 0.50591 18.3323 0.834225 18.3323H5.83396C6.07061 18.3323 6.29393 18.2307 6.45392 18.0574L13.9535 9.72447C14.2385 9.40783 14.2385 8.92452 13.9535 8.60954Z" fill="#565966"/>
</svg>
