<svg width="256" height="184" viewBox="0 0 1184 838" fill="none" xmlns="http://www.w3.org/2000/svg">
<path d="M1183.59 34.7C1183.59 32.7 1183.59 30.6 1183.39 28.6C1183.19 27.1 1183.19 25.5 1183.09 24V23.9C1182.69 23.4 1182.79 22.8 1182.89 22.3C1182.99 21.7 1182.69 21.2 1182.59 20.6C1182.59 19.6 1182.39 18.5 1182.39 17.5V17.4C1182.09 16.4 1181.99 15.4 1181.89 14.4C1181.89 14.3 1181.89 14.1 1181.89 14C1181.29 13.5 1181.99 12.7 1181.39 12.3C1181.49 11.7 1181.29 11.1 1181.19 10.5C1181.09 10.1 1180.99 9.7 1180.99 9.3C1180.99 8.9 1180.99 8.6 1180.79 8.2C1180.59 7.9 1180.89 7.40001 1180.59 7.10001C1180.39 5.90001 1180.09 4.8 1179.89 3.7C1179.69 2.4 1179.19 1.3 1179.09 0C1178.29 0.4 1177.49 0.6 1176.79 1C1175.29 1.7 1173.69 2.5 1172.19 3.3C1170.69 4.1 1169.19 4.9 1167.69 5.8C1165.59 6.9 1163.59 8.2 1161.49 9.4C1159.79 10.5 1158.09 11.5 1156.39 12.7C1154.69 13.8 1153.09 14.9 1151.39 16C1149.89 17.1 1148.39 18.2 1146.89 19.3C1146.19 19.8 1145.49 20.5 1144.69 21C1143.39 21.9 1142.09 22.9 1140.89 23.9C1140.29 24.4 1139.79 25 1139.09 25.4C1137.89 26.2 1136.79 27.3 1135.59 28.2C1134.29 29.3 1133.09 30.4 1131.79 31.5C1130.69 32.4 1129.69 33.4 1128.69 34.4C1126.99 35.9 1125.39 37.6 1123.79 39.2C1122.19 40.9 1120.49 42.4 1118.99 44.2C1118.09 45.3 1116.99 46.2 1116.09 47.3C1115.29 48.4 1114.29 49.3 1113.39 50.3C1113.29 50.4 1113.19 50.5 1113.09 50.6C1112.29 51.8 1111.29 52.8 1110.49 53.9C1109.99 54.6 1109.39 55.1 1108.89 55.8C1107.99 57 1107.09 58.2 1106.19 59.5C1105.19 60.8 1104.19 62.1 1103.19 63.4C1101.99 65.1 1100.79 66.9 1099.59 68.6C1100.69 69.7 1101.89 70.9 1102.99 72C1103.19 72.2 1103.29 72.4 1103.49 72.5C1104.79 73.4 1105.89 74.5 1107.09 75.4C1107.99 76.1 1108.79 77 1109.79 77.6C1111.59 78.8 1113.29 80.1 1115.09 81.3C1116.99 82.5 1118.79 83.7 1120.69 84.8C1121.89 85.5 1122.99 86.1 1124.19 86.8C1125.39 87.5 1126.69 88.2 1127.89 88.9C1130.49 90.3 1133.19 91.5 1135.79 92.8C1136.99 93.4 1138.09 93.9 1139.29 94.4C1140.79 95 1142.39 95.7 1143.89 96.3C1145.79 97.1 1147.79 97.7 1149.69 98.5C1150.79 99 1151.99 99.3 1153.19 99.7C1154.39 100 1155.59 100.5 1156.79 100.8C1158.39 101.2 1159.99 101.7 1161.59 102.2C1163.39 102.8 1165.29 103.3 1167.19 103.8C1169.39 104.4 1171.59 104.9 1173.79 105.3C1174.19 105.4 1174.49 105.5 1174.89 105.6C1175.19 104.6 1175.39 103.7 1175.59 102.8C1175.89 101.8 1176.09 100.7 1176.39 99.6C1176.99 97.4 1177.49 95.3 1177.99 93.1C1178.19 92.2 1178.49 91.3 1178.49 90.3C1178.99 89.9 1178.59 89.2 1178.89 88.7C1179.19 88.3 1178.99 87.6 1179.19 87C1179.39 86.4 1179.29 85.8 1179.49 85.3C1179.89 84.3 1179.99 83.2 1180.09 82.1C1180.29 80.9 1180.49 79.7 1180.69 78.5C1180.79 77.9 1180.69 77.2 1180.89 76.7C1181.29 75.5 1181.19 74.2 1181.59 73C1181.89 72 1181.79 71 1181.89 70C1181.89 69.9 1181.89 69.8 1181.89 69.8C1182.19 69.4 1182.19 69 1182.09 68.6C1181.99 68.1 1182.29 67.7 1182.29 67.3C1182.29 66.5 1182.29 65.7 1182.49 64.9C1182.69 64.1 1182.59 63.3 1182.69 62.5C1182.89 61.7 1182.69 60.8 1182.89 60C1183.09 58.9 1182.79 57.8 1183.19 56.7C1183.09 54 1183.59 51.3 1183.39 48.6C1183.39 48.3 1183.39 48 1183.39 47.8C1183.39 47.7 1183.49 47.7 1183.59 47.6C1183.59 43.5 1183.59 39.4 1183.59 35.4C1183.69 34.8 1183.59 34.7 1183.59 34.7Z" fill="#FFC730"/>
<path d="M1111.09 288.7C1111.29 287.5 1110.79 286.3 1110.89 285.1C1110.99 283.3 1110.59 281.5 1110.59 279.7C1110.29 279.1 1110.49 278.4 1110.29 277.8C1110.19 277.4 1110.09 277.1 1110.09 276.7C1110.09 276.3 1109.89 275.9 1109.89 275.5C1109.79 274.8 1109.89 274 1109.59 273.3C1109.39 272.8 1109.49 272.3 1109.29 271.8C1108.89 270.8 1108.69 269.6 1108.49 268.5C1108.19 267.4 1107.89 266.4 1107.59 265.3C1107.19 263.9 1106.69 262.6 1106.19 261.2C1105.79 260.1 1105.39 259 1104.89 257.9C1104.19 256.4 1103.39 254.9 1102.69 253.4C1102.49 253 1102.19 252.7 1101.89 252.3C1101.49 252.8 1101.19 253.3 1100.89 253.7C1099.69 255 1098.59 256.3 1097.39 257.6C1096.29 258.9 1095.19 260.1 1094.09 261.4C1093.69 261.9 1093.29 262.3 1092.89 262.8C1080.29 281.1 1068.99 296.7 1061.59 306.8C1062.09 307.2 1062.59 307.6 1063.09 308.1C1063.99 309 1064.89 309.9 1065.69 310.9C1066.79 312.3 1067.79 313.7 1068.69 315.3C1069.79 317.4 1070.59 319.5 1070.99 321.8C1071.49 322.6 1071.09 323.5 1071.39 324.4C1071.69 325.2 1071.49 326.1 1071.39 326.9C1071.39 327.7 1071.29 328.5 1071.19 329.3C1071.19 329.4 1071.09 329.4 1071.09 329.5C1070.79 330.3 1070.59 331 1070.19 331.8C1069.79 332.7 1069.39 333.6 1068.99 334.6C1068.39 336.2 1067.79 337.7 1067.09 339.2C1066.79 339.8 1066.49 340.4 1066.29 341C1065.69 342.8 1064.89 344.5 1064.29 346.3C1063.69 348 1062.99 349.6 1062.29 351.2C1061.59 352.7 1060.99 354.3 1060.39 355.8C1059.99 356.7 1059.59 357.7 1059.29 358.7C1058.99 359.7 1058.39 360.7 1058.09 361.7C1057.69 362.7 1057.19 363.7 1056.79 364.8C1056.09 366.7 1055.29 368.6 1054.59 370.5C1054.19 371.5 1053.79 372.5 1053.39 373.5C1052.99 374.5 1052.59 375.6 1052.09 376.6C1051.69 377.7 1051.09 378.7 1050.69 379.8C1049.99 381.6 1049.29 383.4 1048.59 385.2C1047.99 386.6 1047.39 388.1 1046.89 389.5C1046.79 389.7 1046.69 389.9 1046.59 390.2C1046.99 389.9 1047.29 389.8 1047.49 389.7C1048.59 388.7 1049.89 387.9 1050.99 386.9C1052.09 386 1053.29 385.1 1054.39 384.2C1054.89 383.7 1055.39 383.3 1055.99 382.8C1057.49 381.7 1058.99 380.6 1060.29 379.2C1060.39 379.1 1060.49 378.9 1060.59 378.9C1061.19 378.7 1061.39 378.2 1061.89 377.9C1062.29 377.5 1062.79 377.2 1063.19 376.8C1063.79 376.2 1064.49 375.6 1065.09 375.1C1066.29 374.1 1067.39 373.1 1068.49 372C1071.39 369.1 1074.39 366.4 1076.99 363.3C1077.89 362.3 1078.89 361.4 1079.69 360.4C1080.69 359.1 1081.89 357.9 1082.89 356.7C1083.79 355.6 1084.89 354.5 1085.79 353.3C1086.09 352.9 1086.49 352.5 1086.79 352.1C1087.89 350.7 1088.89 349.2 1089.89 347.8C1090.79 346.5 1091.69 345.3 1092.59 344C1093.09 343.2 1093.59 342.4 1094.09 341.6C1094.99 340.1 1095.99 338.6 1096.89 337.1C1097.39 336.3 1097.69 335.4 1098.19 334.6C1099.19 333 1099.99 331.3 1100.89 329.7C1101.29 328.9 1101.69 328 1102.09 327.1C1102.39 326.6 1102.79 326.1 1102.89 325.5C1103.19 324.3 1103.89 323.2 1104.29 322C1104.89 320.4 1105.49 318.9 1105.99 317.3C1106.29 316.4 1106.59 315.5 1106.89 314.5C1107.29 313.2 1107.59 312 1107.99 310.7C1108.19 310 1108.29 309.2 1108.59 308.4C1108.89 307.6 1108.99 306.8 1109.09 306C1109.19 305.4 1109.09 304.7 1109.39 304.1C1109.79 303.1 1109.79 302 1110.09 300.9C1110.29 300.3 1110.19 299.7 1110.29 299.1C1110.49 298.5 1110.39 297.8 1110.49 297.2C1110.69 296.4 1110.49 295.5 1110.79 294.7C1110.99 294.1 1110.79 293.4 1110.79 292.8C1110.79 292.2 1110.79 291.5 1110.79 290.9C1110.89 289.9 1110.99 289.3 1111.09 288.7Z" fill="#FFC730"/>
<path d="M1033.19 222.4C1032.39 222.7 1031.49 222.8 1030.69 223.1C1029.89 223.4 1029.09 223.6 1028.19 223.8C1025.79 224.6 1023.29 225.5 1020.99 226.6C1019.89 227.1 1018.79 227.6 1017.69 228.2C1016.29 229 1014.89 229.5 1013.59 230.4C1012.39 231.2 1011.09 231.9 1009.89 232.7C1009.09 233.2 1008.29 233.8 1007.59 234.3C1006.69 234.9 1005.79 235.6 1004.89 236.3C1003.79 237.2 1002.79 238.2 1001.69 239C1000.49 239.8 999.687 241.1 998.387 241.8C996.587 243.7 994.787 245.5 993.087 247.4C992.587 248 991.987 248.6 991.487 249.2C990.387 250.6 989.287 252 988.187 253.5C987.487 254.5 986.787 255.6 986.087 256.6C985.387 257.5 984.787 258.5 984.187 259.4C983.487 260.6 982.687 261.7 981.987 262.9C981.187 264.3 980.387 265.8 979.687 267.2C979.187 268.2 978.687 269.1 978.187 270.1C977.787 271 977.287 271.9 976.887 272.9C976.487 273.9 976.087 274.8 975.687 275.8C975.287 276.8 974.787 277.7 974.387 278.8C973.987 280 973.487 281.2 973.087 282.4C972.587 283.9 971.987 285.4 971.587 286.9C971.087 288.5 970.687 290 970.187 291.6C969.687 293.2 969.287 294.8 968.887 296.3C968.487 297.9 968.087 299.4 967.787 301C967.487 302.5 967.187 304 966.887 305.5C966.787 306 966.887 306.6 966.687 307.1C966.487 307.5 966.587 307.9 966.487 308.3C966.387 308.7 966.287 309.1 966.187 309.5C966.187 310.1 965.887 310.7 965.987 311.3C965.487 312.4 965.687 313.6 965.287 314.7C965.187 315.1 965.387 315.8 965.187 316.1C964.887 316.6 964.987 317 964.987 317.5C964.987 318 964.787 318.4 964.787 318.8C964.687 319.4 964.787 320 964.587 320.6C964.387 321.2 964.587 321.9 964.387 322.5C964.187 322.9 964.387 323.5 964.387 323.9C964.387 324.4 964.187 324.9 964.187 325.4C964.087 326.4 964.187 327.3 963.987 328.3C963.787 329.3 964.087 330.3 963.687 331.3C963.787 334.4 963.287 337.5 963.487 340.6C963.487 341 963.487 341.3 963.487 341.7C963.487 341.8 963.387 341.8 963.287 341.9V350.1C963.787 349.5 964.087 348.8 964.487 348.2C964.887 347.4 965.287 346.6 965.787 345.9C966.487 344.6 967.287 343.4 968.087 342.2C968.587 341.4 968.887 340.5 969.387 339.7C970.187 338.6 970.787 337.4 971.487 336.2C972.487 334.6 973.387 332.9 974.387 331.3C975.287 329.8 976.187 328.3 976.987 326.7C977.987 324.8 979.187 323.1 980.187 321.2C980.487 320.5 980.887 319.9 981.287 319.2C981.987 317.9 982.787 316.7 983.587 315.5C984.087 314.7 984.387 313.8 984.887 313C986.087 311.3 986.987 309.5 987.987 307.7C988.687 306.4 989.387 305.2 990.187 303.9C991.187 302.2 992.087 300.4 993.187 298.8C994.087 297.4 994.787 295.9 995.587 294.4C995.787 294 996.087 293.6 996.387 293.3C997.487 292.1 998.787 291 1000.09 290.1C1001.39 289.2 1002.99 288.6 1004.39 287.8C1005.69 287.6 1006.79 286.8 1008.19 286.8C1008.59 286.3 1009.19 286.7 1009.69 286.4C1010.09 286.2 1010.69 286.4 1011.19 286.3C1011.69 286.3 1012.29 286.1 1012.79 286.1C1013.69 286.1 1014.49 286.1 1015.29 286.3C1015.89 286.4 1016.59 286.2 1016.99 286.4C1017.09 286.4 1017.19 286.5 1017.19 286.5C1018.39 281.7 1019.69 276.9 1020.89 272.2C1025.69 253.9 1030.39 237.2 1034.89 222C1034.09 222.1 1033.69 222.2 1033.19 222.4Z" fill="#FFC730"/>
<path d="M0.0875579 575.4C-0.612442 597.7 2.88756 619.7 10.4876 640.9C255.888 845.4 637.588 848.2 865.388 653.3C885.487 630.2 904.088 605.5 921.388 579.3C697.888 836.4 246.288 833.8 0.0875579 575.4Z" fill="#FDC633"/>
<path d="M70.8877 727C142.188 790.3 268.188 834.4 453.388 837.8C595.188 831.4 700.188 792.4 782.288 730.9C575.988 853.1 292.288 853.3 70.8877 727Z" fill="#FDC633"/>
<path d="M267.787 290C268.987 290.1 270.187 290.2 271.387 290.3C271.787 289.6 272.187 288.8 272.487 288.1C270.887 288.7 269.387 289.4 267.787 290Z" fill="#FDC633"/>
<path d="M120.787 373.1C122.587 373.3 124.487 373.4 126.287 373.6C126.487 371.8 126.787 370 127.087 368.2C124.887 369.8 122.787 371.5 120.787 373.1Z" fill="#FDC633"/>
<path d="M921.087 394.7C918.387 393.8 915.787 393 912.987 392.3C909.887 391.6 906.787 390.9 903.687 390.1C900.187 389.2 896.687 388.4 893.087 387.8C890.587 387.4 888.187 387 885.787 386.3C883.687 385.7 881.487 385.2 879.387 384.7C876.187 384 872.887 383.4 869.687 382.8C865.887 382.1 862.087 381.2 858.287 380.2C857.387 380 856.587 379.7 855.687 379.6C854.087 379.3 852.487 379.1 850.987 378.9C849.587 378.7 848.187 378.5 846.887 378.2C844.287 377.5 841.587 377.2 838.887 377C835.387 376.7 831.887 376.4 828.487 377.3C828.287 377.4 828.087 377.3 827.887 377.4C827.487 377.5 827.087 377.6 826.787 377.8C826.287 378 825.887 378.2 825.387 378.3C824.587 378.4 823.887 378.8 823.187 379.2C822.387 379.7 821.487 379.7 820.687 380.2C819.687 380.9 818.587 381.3 817.487 381.8C817.087 382 816.587 381.9 816.387 381.5C815.687 380.3 814.587 379.4 813.987 378.1C813.787 377.7 813.387 377.3 813.087 376.9C811.387 375.2 809.987 373.2 807.687 372.1C807.487 372 807.387 371.8 807.187 371.7C805.087 369.9 802.687 368.7 800.187 367.8C797.887 367 795.687 366.2 793.287 365.7C792.087 365.4 790.887 365.3 789.687 365.3C788.087 365.4 786.487 365.2 784.887 365.3C782.687 365.4 780.487 365.7 778.387 366C778.287 366 778.187 366 778.087 366.1C775.787 366.8 773.487 367.3 771.087 367.8C770.787 367.9 770.487 367.9 770.287 368.1C769.387 368.8 768.187 368.7 767.187 369.2C766.187 369.7 765.187 370.1 764.187 370.6C762.487 371.4 760.687 372.2 759.087 373.1C757.387 374 755.687 374.9 754.187 375.9C752.587 376.9 750.787 377.6 749.487 379.1C747.887 379.9 746.587 381.2 744.987 382.1C744.387 382.4 743.787 382.8 743.387 383.4C743.187 383.7 742.787 383.9 742.487 384.2C740.587 385.5 738.687 386.8 736.987 388.4C736.587 388.8 735.987 389.1 735.487 389.4C735.187 389.6 734.787 389.8 734.487 390.1C732.687 391.8 730.687 393.3 728.887 395C727.487 396.4 725.987 397.7 724.487 399.1C723.387 400.1 722.487 401.3 721.287 402.3C720.987 402.5 720.687 402.9 720.487 403.2C719.887 404.2 718.987 405 718.187 406C716.187 408.5 714.187 411 712.287 413.6C711.187 415 710.287 416.6 709.087 418C708.587 418.6 708.187 419.3 707.787 420C706.987 421.2 706.287 422.4 705.387 423.4C704.687 424.2 704.087 425.2 703.487 426.1C702.687 427.6 701.687 429 700.587 430.3C699.387 431.8 698.287 433.3 697.487 435.1C697.087 435.9 696.587 436.7 696.087 437.4C693.387 441.1 691.487 445.3 688.787 449.1C688.687 449.2 688.687 449.3 688.687 449.4C687.287 452.5 685.487 455.4 683.687 458.3C682.887 459.7 682.087 461.1 681.487 462.6C680.787 464.5 679.887 466.3 678.987 468.1C678.287 469.6 677.487 471.2 676.787 472.7C675.987 474.5 675.187 476.4 674.387 478.2C674.187 478.7 673.787 479 673.187 479C578.287 472.4 460.787 424 388.487 358.1C478.887 499.4 699.287 502.5 699.287 502.3C699.287 502.1 699.187 501.9 699.087 501.8C697.987 500.8 696.687 500 695.787 498.8C694.887 497.6 693.687 496.6 692.787 495.5C691.787 494.2 690.687 492.9 689.687 491.5C687.087 487.9 685.087 484.9 683.487 481.3C682.487 479.2 682.087 476.9 683.087 474.6C683.687 473.1 684.287 471.6 684.987 470.2C686.287 467.5 687.587 464.8 688.787 462C689.987 459 691.587 456.3 693.587 453.7C693.987 453.2 694.387 452.5 694.987 452.2C695.687 451.8 696.487 452.3 697.287 452.5C697.787 452.6 698.287 452.7 698.787 452.7C700.287 452.8 701.787 452.8 703.287 452.9C704.587 453 705.887 453.1 707.087 452.5C709.187 452.4 711.187 451.8 713.187 451.1C715.387 450.4 717.687 450.1 719.787 449.1C721.087 449 722.187 448.1 723.387 447.7C725.287 447.1 726.987 446 728.787 445.1C730.087 444.4 730.887 443.3 731.587 442.1C732.287 440.9 731.887 439.2 730.987 438.2C730.187 437.4 729.487 436.6 728.787 435.8C728.487 435.4 728.187 435 727.787 434.7C726.787 434 725.887 433.2 725.187 432.2C724.387 431.1 723.187 430.6 722.387 429.5C721.587 428.5 720.587 427.7 719.587 426.8C718.987 426.3 718.487 425.6 718.487 424.7C718.387 423.4 718.087 422.1 717.787 420.9C717.287 419.1 717.387 417.1 717.287 415.3C717.287 415.1 717.787 414.8 717.987 415C718.187 415.1 718.387 415.1 718.487 415.2C720.487 417.3 723.087 418.8 724.987 421C725.187 421.2 725.487 421.3 725.787 421.5C725.887 421.5 725.987 421.5 726.087 421.4C726.187 421.3 726.187 421.2 726.187 421.1C724.387 418.9 722.387 417 720.387 415.1C719.787 414.5 719.287 413.9 718.987 413.2C718.687 412.6 718.787 412 719.187 411.5C719.787 410.9 720.487 410.2 721.187 409.7C722.087 409 722.987 409 723.987 409.7C724.387 410 724.687 410.4 725.087 410.7C725.687 411.3 726.187 411.9 726.687 412.4C727.287 413 727.887 413.5 728.287 414.1C729.487 415.9 731.387 417.2 732.587 419.1C734.187 420.4 734.987 422.3 736.587 423.5C737.687 425.5 739.487 427.1 740.687 429C741.787 430 742.187 431.3 742.187 432.8C742.187 434.6 742.487 436.4 742.287 438.2C742.187 438.9 742.287 439.6 742.387 440.3C742.487 441.4 742.787 442.5 742.787 443.6C742.787 444.2 742.987 444.8 743.087 445.4C743.287 446.3 743.587 447.1 743.787 448C743.887 448.4 744.087 448.8 744.187 449.1C744.487 449.7 744.887 450.3 745.187 451C745.487 451.7 745.787 452.4 746.187 453.2C745.987 454.1 745.687 454.9 745.487 455.8C744.487 459 743.587 462.1 742.587 465.3C741.787 468.1 741.087 470.9 740.287 473.7C739.787 475.4 739.387 477.2 738.987 478.9C738.787 479.6 738.687 480.3 738.487 480.9C737.787 483.9 737.287 487 736.387 490C735.587 492.7 734.987 495.4 734.387 498.2C733.787 500.8 733.387 503.5 732.887 506.2C731.787 512 731.387 510.6 736.687 512.3C737.287 512.5 737.887 512.6 738.487 512.7C739.487 512.9 740.487 513.1 741.387 513.3C743.087 513.6 744.687 514 746.387 514C748.487 514 750.587 513.7 752.687 513.9C753.287 514 753.887 513.8 754.487 513.7C754.987 513.6 755.487 513.4 755.987 513.4C757.487 513.4 758.987 512.8 760.387 512.7C761.887 512.6 763.287 512 764.687 511.6C764.987 511.5 765.287 511.4 765.587 511.4C767.287 511.3 768.787 510.4 770.487 510C772.187 509.5 773.887 508.7 775.487 508C779.987 506.1 784.387 503.8 788.387 501C789.587 500.5 790.487 499.5 791.487 498.7C792.587 497.9 793.687 497.1 794.787 496.1C795.887 495.1 797.087 494.2 797.987 493C798.387 492.5 798.887 492.2 799.287 491.7C799.787 491.2 800.287 490.7 800.687 490.2C801.587 488.8 802.687 487.7 803.787 486.5C804.287 485.9 804.787 485.3 805.287 484.6C806.387 482.9 807.387 481.2 808.487 479.5C808.987 478.7 809.587 477.8 809.987 476.9C811.187 474.6 812.187 472.2 813.487 469.9C814.487 468.1 815.187 466.3 815.887 464.4C816.987 461.3 818.087 458.2 818.787 454.9C819.487 451.7 819.987 448.4 820.487 445.2C820.587 444.5 820.687 443.8 820.687 443.1C820.787 441.2 820.587 439.3 820.887 437.4C820.987 437.1 820.887 436.8 820.887 436.5C820.287 433.7 820.687 430.7 819.787 427.9C819.887 425.9 818.787 424 818.687 422C818.087 420.3 817.487 418.6 816.987 416.9C816.587 415.9 816.387 414.8 815.887 413.8C815.487 413 815.387 412 814.887 411.3C814.287 410.5 813.987 409.5 813.487 408.7C812.787 407.6 812.387 406.4 811.687 405.3C809.687 402.1 807.187 399.2 804.687 396.3C804.287 395.9 803.787 395.5 803.387 395.1C802.687 394.4 801.887 393.8 801.187 393.1C800.787 392.7 800.287 392.3 799.887 391.9C798.887 391.1 797.887 390.2 796.887 389.4C796.387 389 795.787 388.5 795.187 388.1C793.887 387.4 792.687 386.4 791.487 385.5C789.987 384.4 788.387 383.3 786.587 382.6C782.987 381.3 779.487 380 775.787 378.9C774.087 378.4 772.287 378.1 770.487 378C769.687 377.9 768.887 377.9 768.087 377.9C765.987 378.1 763.887 377.6 761.787 377.6C761.687 377.6 761.587 377.5 761.587 377.4C761.587 377.3 761.587 377.2 761.587 377.1C763.187 375.8 765.087 374.8 766.987 374C768.887 373.2 770.887 372.6 772.887 371.9C774.687 371.3 776.587 371 778.487 370.8C779.987 370.6 781.487 370.7 782.887 371.3C785.287 372.3 787.687 373.3 789.887 374.7C792.087 376.1 794.187 377.6 796.487 378.9C796.887 379.1 797.287 379.5 797.687 379.9C798.987 381 800.087 382.3 801.587 383.2C801.787 383.4 802.087 383.6 802.287 383.8C804.287 385.8 805.987 388 808.087 389.9C808.187 390 808.287 390.2 808.387 390.4C809.687 392.5 811.087 394.6 812.787 396.4C812.887 396.5 813.087 396.7 813.087 396.9C813.287 397.9 814.187 398.5 814.587 399.5C814.887 400.5 815.487 401.3 815.987 402.2C817.087 404 817.787 406 818.787 407.8C818.887 409 819.787 410 819.987 411.2C820.187 412.4 820.887 413.4 821.187 414.6C821.587 416 822.087 417.5 822.387 418.9C822.887 421 823.087 423.2 823.687 425.4C824.287 427.9 824.287 430.6 824.587 433.1C824.587 433.4 824.587 433.7 824.587 434C824.387 435.7 824.787 437.4 824.687 439.1C824.587 440.9 824.387 442.7 824.287 444.5C824.287 444.6 824.287 444.7 824.287 444.8C824.087 446.9 824.087 449 823.787 451.1C823.387 453.6 822.687 456 821.987 458.4C821.087 461.3 820.187 464.1 819.187 466.9C816.887 473.3 803.987 499.2 786.787 514.8C800.087 513.2 890.887 463.6 908.187 440.7C841.287 476.9 816.987 479.2 816.587 479.1C816.287 479.1 818.687 473.7 819.387 471.9C821.587 466.4 823.387 460.8 825.187 455.2C826.187 452 826.787 448.8 826.887 445.5C826.987 443.6 827.487 441.7 827.587 439.8C827.687 437.8 827.487 435.8 827.387 433.8C827.387 433.5 827.387 433.2 827.487 432.9C827.587 431.9 827.487 430.9 827.287 429.9C827.187 429.4 826.987 428.9 827.087 428.4C827.187 426.9 826.987 425.4 826.487 424C826.587 421.5 825.087 419.4 825.087 417C824.287 414.6 823.487 412.3 822.987 409.8C822.887 409.5 822.787 409.2 822.687 409C821.687 407.2 821.687 405.1 821.087 403.2C821.187 401.5 820.687 399.8 820.687 398.1C820.687 396.8 820.387 395.5 820.187 394.2C820.087 393.6 819.887 393 819.787 392.4C819.287 390 818.887 387.5 818.187 385.1C818.087 384.8 818.287 384.3 818.687 384.1C819.387 383.8 820.087 383.4 820.787 382.9C821.387 382.4 822.287 382.3 822.987 381.9C823.887 381.4 824.787 381.1 825.687 380.7C827.687 379.9 829.787 379.7 831.787 379C832.187 378.8 832.887 379.2 832.987 379.6C833.887 381.9 835.387 383.9 836.287 386.3C836.387 386.6 836.587 386.8 836.787 387C837.287 387.5 837.687 388.1 838.087 388.7C838.487 389.3 838.887 389.9 839.487 390.2C840.587 390.9 841.587 391.7 842.787 392.2C844.487 392.9 846.087 393.6 847.887 394C849.687 394.4 851.487 394.6 853.187 395.1C857.487 396.3 861.987 397.1 866.487 397.7C866.787 397.7 867.087 397.8 867.287 397.9C867.387 398 867.587 398.2 867.587 398.4C867.587 398.7 867.587 399 867.487 399.3C865.687 404.5 863.787 409.7 861.887 414.9C861.687 415.4 861.487 415.8 861.287 416.3C860.487 418.2 859.687 420.2 858.887 422.1C858.487 423.1 857.987 424.1 857.587 425.1C856.687 427.3 855.887 429.6 854.987 431.8C854.887 432.1 854.987 432.4 854.887 432.7C854.987 432.7 855.187 432.7 855.187 432.6C855.987 431.2 856.787 429.8 857.387 428.4C859.587 423 861.987 417.7 864.587 412.5C865.487 410.8 866.287 409.1 866.987 407.3C868.387 403.9 869.687 400.4 870.987 396.9C871.287 396.2 871.487 395.6 871.787 395C872.887 392.8 873.987 390.5 875.187 388.3C875.387 387.9 875.587 387.6 875.787 387.3C875.987 386.9 876.687 386.7 877.087 386.7C877.487 386.8 877.887 386.9 878.287 387C882.787 388.3 887.487 389.1 892.087 389.9C893.987 390.2 895.887 390.4 897.687 390.9C902.287 392.1 906.887 392.9 911.487 393.7C914.187 394.2 916.787 394.8 919.387 395.4C920.187 395.6 920.987 395.8 921.787 395.6C921.887 395.6 921.987 395.4 922.087 395.2C921.487 394.9 921.287 394.7 921.087 394.7ZM797.987 489.3C796.387 491 795.087 493.1 792.887 494.3C791.187 496 789.087 497.2 787.187 498.6C785.487 499.8 783.587 500.7 781.687 501.7C780.387 502.4 778.987 503.1 777.687 503.7C775.887 504.5 773.987 505.2 772.187 506C771.387 506.3 770.487 506.7 769.687 507C769.487 507.1 769.387 507.2 769.187 507.3C767.687 507.4 766.287 508.1 764.887 508.6C762.587 509.3 760.187 509.5 757.887 510.4C757.387 510.6 756.887 510.6 756.387 510.6C755.487 510.7 754.587 510.9 753.687 511C753.287 511.1 752.887 511.2 752.487 511.2C750.787 511.1 749.087 511.3 747.387 511.5C746.987 511.5 746.587 511.5 746.187 511.5C744.387 511.3 742.587 511 740.887 510.8C740.587 510.8 740.087 510.2 740.187 509.9C740.287 509.4 740.387 508.9 740.487 508.4C741.887 503.5 742.787 498.5 743.687 493.4C744.387 489.4 745.287 485.4 746.387 481.4C746.987 479.1 747.287 476.7 747.787 474.3C748.087 472.7 748.287 471.1 748.687 469.6C749.287 467 749.787 464.3 750.687 461.7C751.087 460.4 751.287 459 751.487 457.8C751.687 457.1 751.787 456.7 751.887 456.2C751.887 456.1 752.087 456.1 752.187 456.1C752.287 456.1 752.387 456.2 752.387 456.3C752.487 456.5 752.487 456.7 752.487 456.9C752.187 458.5 752.287 460.1 752.387 461.7C752.387 461.9 752.487 462.1 752.487 462.3C752.387 464.8 752.287 467.3 752.687 469.8C752.787 470.4 752.687 471 752.587 471.6C752.287 473.1 752.287 474.6 752.387 476.1C752.487 477.3 752.487 478.5 752.287 479.7C752.087 480.9 752.087 482.1 752.187 483.3C752.287 484.3 752.287 485.3 752.087 486.3C751.787 488.1 751.787 489.9 751.887 491.7C751.987 493.3 751.987 494.9 751.687 496.5C751.587 497.1 751.587 497.7 751.587 498.3C751.587 498.8 752.087 499.2 752.587 499.1C753.887 498.9 755.187 498.7 756.387 498.5C756.987 498.4 757.587 498.3 758.087 498.1C758.587 498 759.087 497.8 759.487 497.7C760.487 497.6 761.387 497.2 762.387 496.9C762.887 496.7 763.287 496.5 763.787 496.4C764.787 496.2 765.687 495.8 766.587 495.4C767.387 495.1 768.287 495 768.987 494.2C770.787 493.8 771.887 492.1 773.687 491.7C775.187 490.3 776.987 489.4 778.387 488C778.787 487.6 779.187 487.4 779.787 487.5C781.887 487.8 783.987 487.6 786.087 487.7C789.087 487.8 792.087 488 795.087 488.2C796.087 488.2 797.087 488.6 797.987 488.8C798.087 488.8 798.187 489.1 798.187 489.3C798.087 489.1 797.987 489.2 797.987 489.3ZM795.387 404.7C794.687 401.4 793.487 398.4 791.487 395.6C790.087 393.6 788.687 391.7 787.087 389.9C785.487 388.2 784.087 386.4 782.087 385.1C781.887 385 781.787 384.8 781.987 384.6C782.087 384.5 782.287 384.4 782.487 384.4C782.687 384.4 782.887 384.5 783.087 384.6C784.487 385.3 785.987 386 787.387 386.6C787.887 386.9 788.487 387.1 788.987 387.4C790.787 388.3 792.487 389.2 793.987 390.7C794.587 391.3 795.387 391.8 796.187 392.3C797.087 392.8 797.887 393.4 798.587 394.1C799.687 395.2 800.987 396.2 802.187 397.3C803.487 398.5 804.687 399.9 805.687 401.4C806.587 402.6 807.487 403.8 808.087 405.2C808.587 406.4 809.587 407.3 810.187 408.4C811.687 410.9 813.087 413.4 814.387 416C815.087 417.4 815.587 419 816.187 420.5C816.187 422.3 817.087 424 817.287 425.7C817.487 427.3 817.887 428.8 818.087 430.4C818.287 432 818.587 433.6 818.587 435.2C818.587 437.2 818.787 439.2 818.887 441.2C818.887 442.2 818.887 443.2 818.587 444.2C817.787 447.4 817.087 450.6 816.287 453.8C815.887 455.5 815.387 457.1 814.887 458.7C813.787 461.7 812.587 464.7 811.287 467.6C810.987 468.3 810.587 469 810.287 469.8C809.087 472.8 807.387 475.5 805.187 477.9C804.787 478.3 804.487 478.8 804.087 479.3C803.187 480.4 802.687 480.4 801.687 479.4C801.287 479 800.887 478.5 800.387 478.1C799.887 477.6 799.287 477.2 798.787 476.8C798.687 476.7 798.587 476.7 798.487 476.6C797.487 475.7 796.487 474.7 795.387 473.8C794.287 472.9 793.087 472.2 792.187 471.1C791.387 470.1 790.387 469.2 789.287 468.5C789.087 468.4 788.887 468.3 788.787 468.2C786.987 466.3 784.787 464.9 782.887 463.1C780.787 461.2 778.487 459.6 776.587 457.6C775.087 456.7 773.887 455.5 772.687 454.3C772.387 454 772.087 453.8 771.787 453.5C771.587 453.3 771.287 453.2 771.087 453C770.687 452.7 770.287 452.4 769.887 452.1C767.987 450.1 765.487 448.6 763.687 446.4C763.587 446.3 763.687 446.1 763.687 445.9C763.687 445.9 763.887 445.8 763.987 445.8C765.087 446.4 766.287 447 767.387 447.7C770.187 449.6 773.087 451.4 776.187 452.9C777.787 453.6 779.287 454.7 780.787 455.7C781.387 456.1 781.887 456.5 782.587 456.8C784.887 457.8 786.987 459.1 789.087 460.5C790.387 461.4 791.887 462.1 793.287 462.8C793.787 463.1 794.287 462.9 794.687 462.6C794.887 462.4 795.187 462.2 795.387 462C797.287 459.8 798.987 457.5 800.387 454.9C800.587 454.5 800.787 454 800.987 453.5C801.987 450.5 803.087 447.4 804.087 444.4C804.587 443 804.887 441.5 804.987 440C804.987 439.4 805.287 438.9 805.787 438.5C806.787 437.7 807.887 437 808.987 436.2C810.487 435.2 811.787 433.9 813.187 432.8C813.387 432.6 813.687 432.5 813.887 432.3C813.987 432.2 814.187 431.9 814.087 431.8C813.987 431.7 813.787 431.6 813.587 431.5C813.487 431.5 813.387 431.5 813.287 431.5C811.887 431.6 810.587 432.2 809.187 432.3C807.887 432.4 806.587 432.7 805.387 432.9C804.987 433 804.587 433 804.187 433.1C803.787 433.1 803.387 433.1 802.987 433.2C800.887 433.7 798.687 433.8 796.487 434.1C795.687 434.2 794.887 434.3 794.087 434.4C793.587 434.5 793.087 434.5 792.587 434.6C790.387 435.3 788.087 435.4 785.787 435.9C784.287 436.3 782.687 436.4 781.087 436.7C779.687 437 778.287 437.1 776.987 437.5C776.887 437.5 776.787 437.5 776.687 437.4C776.487 437.2 776.487 437 776.787 436.9C778.487 436.1 780.187 435.3 781.987 434.5C783.487 433.8 785.087 433.1 786.687 432.5C788.187 432 789.487 431 791.087 430.7C792.187 429.8 793.787 429.8 794.887 429C795.987 428.1 797.487 428 798.587 427C799.087 426.5 799.987 426.6 800.387 426C800.487 425.9 800.587 425.6 800.487 425.5C800.387 425.4 800.187 425.3 800.087 425.2C799.887 425.2 799.687 425.2 799.487 425.3C798.187 426 796.587 426 795.287 426.8C793.387 427.1 791.687 428 789.887 428.4C788.287 428.8 786.687 429.5 784.987 429.7C784.087 429.8 783.287 430.1 782.387 430.4C781.587 430.6 780.887 430.8 780.087 431.1C779.787 431.2 779.487 431.4 779.287 431.4C777.387 431.5 775.587 432.3 773.787 432.7C771.587 433.3 769.287 433.6 767.087 434.3C765.787 434.8 764.387 435.1 762.987 435.3C761.487 435.5 760.087 435.8 758.587 436.2C758.487 436.2 758.387 436.2 758.287 436.1C758.087 435.9 758.087 435.7 758.287 435.6C758.787 435.3 759.287 434.9 759.787 434.6C762.387 433.1 764.987 431.6 767.487 430C768.487 429.4 769.387 428.5 770.487 428.1C772.287 426.5 774.487 425.5 776.487 424.1C776.687 423.9 777.087 423.8 777.287 423.6C778.187 422.6 779.387 422.1 780.387 421.3C781.287 420.5 782.287 419.8 783.287 419.2C783.487 419.1 783.687 419 783.787 418.9C784.887 417.4 786.587 416.7 787.787 415.3C788.187 414.8 788.687 414.5 789.087 414.1C789.187 414 789.287 414 789.387 413.9C789.587 413.7 789.887 413.6 790.087 413.3C791.187 411.6 792.987 410.6 794.287 409.1C795.487 408.2 795.687 406.4 795.387 404.7ZM776.087 385.7C776.187 385.3 776.487 385 776.787 384.7C776.787 384.6 776.987 384.6 777.087 384.6C777.387 384.6 777.487 384.7 777.387 384.9C777.087 386 776.787 387.2 776.287 388.3C775.387 390.5 774.387 392.7 773.487 394.9C773.187 395.6 772.787 396.4 772.487 397.1C771.087 400.7 769.487 404.1 767.587 407.4C766.487 409.3 765.487 411.3 764.587 413.3C763.687 415.3 762.587 417.2 761.387 419.1C760.087 421.2 758.787 423.4 757.787 425.6C756.787 427.6 755.487 429.3 754.187 431.1C754.087 431.3 753.787 431.4 753.487 431.6C753.487 430.7 753.887 430 754.187 429.2C754.587 428.4 754.987 427.6 755.287 426.7C755.987 424.6 756.987 422.7 758.087 420.7C759.787 417.6 761.287 414.5 762.687 411.3C763.887 408.7 765.187 406.1 766.587 403.5C767.987 401 769.387 398.4 770.587 395.8C771.587 393.6 772.787 391.5 773.987 389.5C774.787 388.3 775.587 387.1 776.087 385.7ZM764.787 385.3C766.487 385.2 768.087 384.6 769.787 384.2C770.687 384 771.587 384.1 772.487 384.1C772.687 384.1 772.987 384.6 772.887 384.8C772.887 384.9 772.787 385 772.787 385.4C772.487 386.1 771.987 387.1 771.487 388.1C770.187 390.9 768.787 393.7 767.587 396.6C766.087 400.4 763.987 404 762.287 407.7C761.887 408.5 761.487 409.3 761.187 410.1C759.587 414 757.987 417.9 755.987 421.6C754.787 423.9 753.587 426.2 752.487 428.6C751.487 430.5 750.087 432 748.387 433.3C748.187 433.4 747.787 433.4 747.487 433.3C747.187 433.2 746.787 432.7 746.887 432.4C746.987 431.5 746.987 430.6 747.287 429.7C747.687 428.1 747.987 426.6 748.087 425C748.487 421.5 749.187 418.1 750.087 414.7C751.387 410 752.287 405.1 752.987 400.3C753.187 399.1 753.187 397.9 753.287 396.7C753.287 396.2 753.287 395.7 753.187 395.2C752.587 393.4 752.487 391.5 751.787 389.7C751.587 389.2 751.987 388.7 752.487 388.5C752.887 388.4 753.287 388.3 753.687 388.3C754.287 388.2 754.887 388.2 755.487 388C758.387 386.8 761.687 386.5 764.787 385.3Z" fill="#FDC633"/>
<path d="M939.588 359.4C939.488 358.6 939.288 357.8 939.188 357C939.088 356.6 938.788 356.2 938.788 355.9C938.788 354.2 937.488 353 936.988 351.5C935.188 348.8 932.788 346.7 930.588 344.4C930.388 344.2 930.088 344 929.888 343.9C928.688 343 927.388 342.2 926.188 341.3C925.488 340.8 924.888 340.3 924.188 340C921.988 338.8 919.788 337.6 917.588 336.4C914.788 334.9 911.788 333.6 908.788 332.5C907.588 332 906.288 331.7 905.088 331.3C903.888 330.9 902.688 330.9 901.488 331.1C900.788 331.2 900.088 331.4 899.388 331.4C898.288 331.5 897.288 331.8 896.188 332.1C894.788 332.5 893.688 333.2 892.388 333.8C891.088 334.4 890.388 335.4 889.588 336.4C889.488 336.6 889.488 337 889.688 337.2C889.888 337.5 890.188 337.8 890.488 338C892.488 339.2 894.388 340.4 896.388 341.6C899.288 343.4 902.488 344.6 905.688 345.8C906.088 346 906.588 346.2 906.988 346C906.888 345.9 906.888 345.8 906.788 345.7C905.688 345.1 904.688 344.6 903.588 344C900.788 342.4 897.988 340.8 895.288 339.3C894.288 338.8 893.788 337.9 893.588 337C893.488 336.7 893.588 336.4 893.788 336.2C893.988 335.9 894.288 335.5 894.588 335.3C896.088 334.4 897.688 333.9 899.388 333.8C900.388 333.7 901.388 333.7 902.388 333.7C903.888 333.6 905.388 333.7 906.788 334.2C909.088 335 911.288 335.8 913.588 336.5C915.888 337.3 917.988 338.4 919.988 339.7C920.988 340.4 921.988 341 923.088 341.6C924.188 342.3 925.288 343 926.288 343.9C927.288 344.9 928.288 345.8 929.488 346.6C929.988 346.9 930.388 347.4 930.788 347.8C931.588 348.6 932.288 349.4 932.988 350.2C934.488 352 935.788 353.8 936.388 356.1C937.088 358.8 936.888 359.4 934.188 360.4C933.088 360.8 931.888 361.2 930.688 361C929.488 360.8 928.288 360.5 927.188 360.2C925.488 359.6 923.888 358.8 922.788 357.3C921.888 356.2 920.688 355.4 919.488 354.8C913.588 351.6 907.188 350 900.688 348.8C899.588 348.6 898.488 348.8 897.588 349.6C896.988 350.2 896.188 350.3 895.388 350.3C894.188 350.4 892.988 350.1 891.888 349.7C889.688 349 887.488 348.3 885.388 347.5C880.988 345.8 876.588 344.2 872.188 342.4C867.888 340.7 868.788 341.7 870.688 337.9C871.088 337.1 871.788 336.5 872.288 335.8C872.688 335.3 873.188 335 873.488 334.5C874.588 332.7 875.988 331.2 877.588 329.7C878.088 329.2 878.488 328.6 878.988 328.1C879.488 327.5 880.088 327.3 880.788 327.1C881.188 327 881.588 327.1 881.888 327.4C882.188 327.7 882.488 328 882.688 328.3C883.288 329.7 883.888 331 884.288 332.5C884.588 333.5 884.988 334.4 885.588 335.2C885.888 335.2 886.188 335.3 886.388 335.3C885.888 333.8 885.488 332.2 885.288 330.7C885.188 329.7 885.088 328.7 884.688 327.8C884.088 326.3 884.088 324.7 883.688 323.1C883.588 322.7 883.688 322.3 883.988 322C884.888 321 885.788 319.8 886.488 318.6C886.688 318.2 887.088 317.8 887.488 317.5C889.388 315.8 890.888 313.8 893.088 312.6C894.188 311.3 895.888 311.1 897.288 310.4C897.588 310.2 898.088 310.2 898.488 310.2C902.088 310.2 905.688 310.3 909.088 311.7C909.988 312.1 910.888 312.4 911.988 312.5C911.788 312.3 911.788 312.1 911.588 312C909.388 310.5 906.888 309.8 904.388 309C902.288 308.3 900.088 308.3 897.888 308.1C897.688 308.1 897.488 308.1 897.288 308.2C894.988 308.9 892.788 309.7 891.088 311.7C890.788 312.1 890.288 312.3 889.888 312.6C889.288 313.1 888.588 313.6 888.088 314.2C885.688 316.5 883.788 319.2 881.388 321.4C881.188 321.6 880.988 321.9 880.888 322.1C880.288 323.2 879.388 324 878.588 324.9C877.888 325.6 877.188 326.3 876.588 327.1C875.788 328.3 874.888 329.3 873.888 330.3C873.488 330.7 873.088 331.2 872.788 331.7C871.988 333 870.988 334.1 869.888 335.2C868.788 336.4 867.888 337.7 866.888 338.9C866.288 339.6 865.588 340.2 864.988 340.9C864.388 341.5 863.788 341.6 863.088 341.3C861.688 340.7 860.288 340.1 858.988 339.5C858.588 339.3 858.188 338.9 857.788 338.6C857.188 338.1 856.988 337.3 857.288 336.7C857.688 336 858.188 335.4 858.588 334.7C858.988 334.1 859.488 333.6 859.888 333C860.688 331.5 861.888 330.2 862.988 328.9C863.788 328 864.488 327 865.188 326.1C865.788 325.4 866.288 324.7 866.788 324C867.188 323.5 867.788 323 868.188 322.4C869.188 320.9 870.288 319.5 871.488 318.1C871.788 317.7 872.088 317.3 872.388 316.9C872.988 315.9 873.688 314.9 874.588 314.1C875.088 313.6 875.388 313 875.788 312.5C875.788 312.5 875.688 312.4 875.588 312.3C874.688 313.1 873.788 313.9 873.188 314.9C872.788 315.6 872.188 316.2 871.588 316.7C870.688 317.5 869.888 318.3 869.188 319.4C868.788 320.1 868.188 320.6 867.588 321.2C867.088 321.7 866.588 322.2 866.188 322.8C865.288 324.2 864.088 325.5 862.888 326.7C862.288 327.3 861.788 327.9 861.288 328.5C860.688 329.4 859.988 330.3 859.188 331C858.688 331.5 858.188 332 857.888 332.6C857.088 333.8 855.988 334.7 854.988 335.6C854.188 336.4 853.188 336.7 851.988 336.8C851.188 336.8 850.388 336.7 849.588 336.5C846.288 335.5 843.088 334.4 839.988 333C832.888 329.9 825.688 327.2 818.488 324.5C810.788 321.7 803.088 318.9 795.288 316.4C789.488 314.5 783.788 312.3 777.888 310.6C775.288 309.8 772.788 308.9 770.188 308C764.688 306.2 759.188 304.3 753.688 302.5C727.188 293.8 700.588 285 674.088 276.3C673.288 276.1 672.588 275.8 671.788 275.5C671.588 275.4 671.388 274.9 671.488 274.7C671.988 274 672.488 273.4 673.188 273.1C674.388 272.4 675.588 271.7 676.888 271C678.688 270 680.588 269 682.588 268.2C684.588 267.4 686.588 266.4 688.688 265.8C690.188 264.8 692.088 264.8 693.688 263.9C696.188 263.2 698.788 262.8 701.188 261.7C701.488 261.6 701.788 261.6 702.088 261.5C703.888 261.2 705.488 260.4 707.388 260.4C707.688 260.4 707.988 260.2 708.288 260.1C708.788 260 709.288 259.8 709.688 259.7C710.988 259.6 712.188 259.1 713.488 258.8C714.688 258.5 716.088 258.5 717.288 258.2C719.488 257.7 721.888 257.6 724.088 257.3C725.388 257.1 726.688 257.1 727.988 256.8C730.388 256.4 732.788 256.7 735.188 256.2C735.488 256.1 735.788 256.1 736.088 256.2C737.988 256.3 739.888 256.4 741.788 256.5C742.288 256.5 742.788 256.5 743.288 256.6C745.388 257.1 747.588 257.6 749.688 258.1C750.188 258.2 750.688 258.4 751.188 258.4C756.088 259.2 760.788 260.4 765.488 261.7C773.388 263.8 781.288 266.2 789.088 268.7C794.988 270.6 800.888 272.5 806.788 274.4C816.288 277.4 825.888 280.4 835.388 283.5C851.288 288.7 867.088 294.2 882.888 299.7C883.488 299.9 884.088 300.3 884.888 300.2C884.888 300.1 884.888 299.9 884.888 299.9C884.188 299.5 883.588 299 882.888 298.6C880.088 297.3 877.288 296 874.388 294.9C871.288 293.8 868.188 292.6 865.088 291.4C864.488 291.2 863.988 291 863.388 290.7C860.888 289.5 858.188 288.5 855.588 287.6C850.088 285.6 844.588 283.4 838.988 281.5C829.288 278.1 819.488 274.7 809.588 271.7C802.188 269.4 794.888 267 787.488 265C784.888 264.3 782.288 263.5 779.688 262.7C773.788 261 767.888 259.5 762.088 257.7C757.188 256.2 752.188 255.3 747.188 254.2C745.888 253.9 744.588 253.7 743.388 253.4C741.888 253.1 740.488 252.8 738.888 252.9C735.588 253.1 732.288 252.8 728.988 253.2C728.788 253.2 728.588 253.2 728.388 253.2C727.088 253.1 725.788 253.2 724.488 253.5C723.988 253.6 723.488 253.6 722.988 253.6C722.388 253.6 721.788 253.5 721.188 253.6C718.988 253.9 716.888 254.4 714.688 254.3C714.488 254.3 714.288 254.4 714.088 254.4C713.088 254.5 712.088 254.6 711.088 254.8C710.588 254.9 710.088 254.9 709.588 255C708.288 255.3 706.988 255.4 705.688 255.5C704.388 255.6 703.188 256 701.888 256.2C701.688 256.2 701.488 256.3 701.288 256.3C698.788 256.2 696.388 256.9 693.888 257.2C691.488 257.5 689.088 257.6 686.788 258.3C686.488 258.4 686.188 258.4 685.888 258.4C684.988 258.3 684.088 258.5 683.188 258.7C680.988 259.1 678.888 259.5 676.688 259.7C675.588 259.8 674.488 260 673.488 260.4C671.488 261.1 669.388 261 667.288 261.4C666.988 261.5 666.688 261.4 666.388 261.4C664.588 261.1 662.788 261 660.988 260.9C659.388 260.8 657.788 260.6 656.188 260.3C654.188 259.8 652.088 259.6 649.988 259.5C647.788 259.4 645.588 259.2 643.388 259C642.488 258.9 641.588 258.9 640.688 259.1C639.988 259.2 639.288 259.4 638.588 259.4C637.088 259.5 635.988 260.4 634.988 261.3C634.488 261.8 634.288 262.5 634.488 263.2C634.688 264 634.988 264.7 635.188 265.4C634.788 265.8 634.388 265.8 634.088 265.7C632.788 265.4 556.788 250.9 505.188 255C505.088 255 504.988 255.2 504.888 255.4C533.688 256.5 602.188 261.4 660.888 277.4C665.688 278.7 670.588 279.8 675.388 281.2C677.888 281.9 680.388 282.7 682.888 283.4C688.588 285 694.288 286.6 699.988 288.1C701.088 288.4 702.088 288.7 703.188 289.1C710.588 291.5 717.988 294 725.488 296.4C736.688 300.1 747.888 303.9 759.088 307.7C769.088 311 779.088 314.3 788.988 317.7C792.188 318.8 795.388 319.9 798.588 321.1C806.088 323.7 813.588 326.3 820.988 328.9C823.088 329.6 825.088 330.4 827.188 331.2C830.388 332.4 833.588 333.6 836.788 334.8C844.388 337.5 851.788 340.4 858.888 344.1C860.688 345 862.388 346.1 864.288 346.8C864.888 347 865.488 347.5 866.088 347.9C866.188 348 866.288 348.3 866.288 348.4C866.188 348.5 865.988 348.6 865.788 348.6C865.488 348.6 865.188 348.6 864.888 348.5C861.988 347.7 825.588 337.9 823.088 337.3C819.788 336.5 704.688 315.8 702.688 315.5C700.588 315.2 698.488 315 696.488 314.5C693.688 313.9 690.988 313.5 688.188 313.2C686.488 313 684.788 312.7 683.188 312.5C681.788 312.3 680.388 312.1 678.988 312C677.288 311.9 675.588 311.9 673.888 311.7C671.188 311.3 668.488 311.2 665.788 311C662.788 310.8 647.488 310.3 646.288 310.2C643.588 310.1 640.888 310.4 638.188 310.2C636.288 310.5 634.388 310.4 632.488 310.4C631.088 310.4 629.688 310.7 628.288 310.8C626.888 310.9 617.088 311.4 615.688 311.4C614.488 311.4 607.288 311.8 604.988 312.4C604.588 312.5 591.388 313.5 588.988 314.2C586.588 314 579.688 315.7 578.688 315.8C577.288 316 575.988 316.4 574.588 316.6C573.088 316.8 571.688 317.2 570.188 317.5C568.988 317.7 567.788 317.9 566.688 318.5C566.388 318.6 566.088 318.7 565.788 318.8C563.888 319 562.188 319.9 560.388 320.5C559.088 320.9 557.888 321.7 556.588 322.3C555.088 323.1 554.188 326 556.288 327.4C556.588 327.6 556.888 327.9 557.288 328.1C559.188 329 560.988 330.1 562.988 330.8C564.288 331.2 565.588 331.8 566.988 332.2C576.888 335.5 586.788 338.7 596.788 341.5C602.388 343.1 607.988 344.7 613.488 346.3C614.688 346.6 615.788 346.9 616.988 347.1C619.688 347.5 622.288 347.9 624.988 348.3C626.588 348.6 628.188 348.8 629.788 348.6C630.688 348.5 631.588 348.5 632.488 348.6C633.188 348.7 633.888 348.8 634.588 348.8C637.288 348.6 639.988 348.4 642.688 348.6C645.688 348 648.688 348.4 651.688 348.1C653.188 347.9 654.688 348 656.188 347.7C657.288 347.5 658.388 347.4 659.488 347.4C660.288 347.4 661.088 347.2 661.888 347.1C662.288 347 662.688 346.9 663.088 346.9C664.588 347 666.088 346.6 667.588 346.5C669.688 346.3 671.788 346.1 673.788 345.6C674.088 345.5 674.388 345.6 674.688 345.6C675.588 345.5 676.488 345.5 677.388 345.2C678.088 345 678.788 345 679.488 344.9C680.388 344.8 681.288 344.7 682.188 344.5C682.688 344.4 683.188 344.3 683.688 344.2C685.188 344.1 686.688 344 688.088 343.5C688.688 343.3 689.288 343.3 689.888 343.3C690.788 343.3 691.688 343.1 692.588 342.9C693.188 342.7 693.788 342.7 694.388 342.7C695.388 342.7 696.388 342.5 697.388 342.2C697.788 342.1 698.188 342 698.588 342C701.188 341.8 703.688 340.9 706.288 340.9C706.688 340.9 707.088 340.7 707.488 340.6C707.888 340.5 708.288 340.4 708.688 340.4C709.888 340.4 711.088 340.1 712.288 339.9C713.488 339.7 714.688 339.6 715.788 339.4C718.088 338.8 720.588 338.8 722.888 338.2C723.188 338.1 723.488 338.1 723.788 338.1C725.888 338 727.888 337.4 729.988 337.2C732.388 336.9 734.688 336.3 737.088 335.9C738.588 335.6 740.088 335.8 741.488 335.1C741.688 335 741.888 335 742.088 335C743.488 335 744.788 334.5 746.188 334.3C747.688 334.1 749.188 334.1 750.688 333.9C751.888 333.8 753.088 333.6 754.288 333.7C755.088 333.8 755.888 333.6 756.688 333.6C757.288 333.6 757.888 333.4 758.488 333.4C760.588 333.6 762.688 333.3 764.788 333.1C765.588 333 766.388 333.1 767.188 333.1C768.188 333.1 769.188 333.1 770.188 333.1C773.288 332.9 776.388 333.2 779.488 333.1C779.788 333.1 780.088 333.2 780.388 333.2C781.788 333.3 783.188 333.4 784.588 333.6C787.188 333.8 789.788 334 792.288 334.6C794.788 335.2 797.388 335.7 799.988 336C803.488 336.4 806.888 337.2 810.288 338.1C812.788 338.8 815.388 339.2 817.888 339.7C820.588 340.2 823.388 340.7 826.088 341.5C829.488 342.5 832.888 343.4 836.288 344.1C843.088 345.5 849.688 347.3 856.388 349.1C860.788 350.3 865.188 351.9 869.588 353.3C872.188 354.2 874.588 355.4 876.788 356.9C877.688 357.5 878.588 358.1 879.588 358.7C881.488 359.8 883.388 361 885.088 362.4C885.588 362.8 886.188 363.2 886.788 363.6C887.888 364.2 888.788 365 889.588 365.8C891.188 367.5 893.088 368.8 894.388 370.8C894.488 371 894.688 371.1 894.788 371.2C895.388 371.8 895.988 372.5 896.688 373.2C897.088 373.6 897.488 374.1 897.888 374.5C898.488 375 899.088 375.6 899.588 376.2C900.788 377.7 902.288 378.9 903.388 380.4C903.488 380.6 903.688 380.7 903.888 380.7C904.088 380.7 904.288 380.7 904.388 380.6C904.488 380.6 904.488 380.4 904.488 380.3C904.488 380 904.488 379.7 904.388 379.4C903.888 377.9 903.188 376.4 903.088 374.8C902.288 373.3 902.288 371.5 901.688 369.9C901.088 368.3 900.988 366.6 899.988 365.1C899.888 365 899.888 364.9 899.888 364.8C899.888 363.9 899.488 363.1 899.088 362.3C898.588 361 898.188 359.7 897.688 358.3C897.588 358 897.588 357.7 897.688 357.4C897.688 357.2 897.888 357.1 898.088 357C898.288 356.9 898.488 356.8 898.688 356.9C900.488 357.2 902.288 357.5 903.988 358C909.488 359.5 914.988 361 920.488 362.5C921.588 362.8 922.588 363 923.688 363.2C926.088 363.8 928.488 363.7 930.888 363.9C932.888 364 934.788 363.3 936.788 362.9C937.288 362.8 937.688 362.5 938.188 362.3C939.188 361.4 939.688 360.5 939.588 359.4ZM625.888 342.6C624.988 342.8 624.088 342.9 623.288 343.2C621.488 343.7 619.588 343.8 617.688 343.3C616.088 342.9 614.388 342.6 612.688 342.3C603.788 340.3 595.088 337.6 586.388 334.9C580.488 333 574.588 331.1 568.688 329.1C566.988 328.5 565.288 327.8 563.588 327.2C562.588 326.8 561.888 326.2 561.288 325.4C560.788 324.8 560.988 323.7 561.688 323.3C562.188 323 562.788 322.7 563.288 322.5C564.288 322.1 565.388 321.8 566.488 321.5C568.388 321.1 570.188 320.5 571.988 320.1C574.188 319.6 594.588 316.3 595.288 316.3C596.088 316.3 607.288 315.1 607.488 315.1C608.688 314.9 620.488 313.9 622.688 313.8C624.888 313.7 632.688 313.5 634.288 313.2C634.588 313.1 638.588 313.3 640.288 313.2C641.588 313.1 642.888 313 644.188 313.1C644.688 313.1 652.588 313.1 653.188 313.1C654.688 313 693.888 317.2 697.288 317.6C700.588 318 703.788 318.8 706.988 319.6C709.188 320.1 711.488 320.7 713.688 321.3C714.488 321.5 715.188 321.8 715.988 322.1C716.088 322.2 716.288 322.4 716.288 322.6C716.288 322.8 716.188 323 716.088 323.1C714.788 323.6 713.388 323.9 711.988 323.9C710.788 323.9 709.588 324 708.388 324.3C708.288 324.3 708.188 324.4 708.088 324.3C705.888 324.2 703.688 324.7 701.488 324.9C700.188 325 696.688 325.6 696.188 325.7C694.588 325.7 692.988 326.2 691.388 326.2C689.088 326.3 686.888 327.1 684.588 326.9C684.488 326.9 679.988 327.7 677.788 328.1C676.488 328.3 675.188 328.3 673.888 328.6C672.588 328.9 671.388 329.2 670.088 329.3C669.488 329.3 668.888 329.6 668.388 329.7C667.788 329.9 667.288 330.1 666.688 330.2C665.488 330.4 664.388 330.7 663.188 331.1C662.088 331.4 660.788 331.4 659.688 331.9C657.488 332.1 655.488 333 653.288 333.5C651.488 333.9 649.588 334.3 647.788 335.1C647.288 335.3 646.788 335.5 646.388 335.5C645.788 335.5 645.288 335.8 644.688 336C642.688 336.8 640.488 337.4 638.388 338C637.088 338.4 635.688 338.8 634.488 339.4C632.588 340.3 630.588 340.9 628.588 341.7C627.588 342 626.688 342.3 625.888 342.6ZM738.688 331.8C738.588 331.9 738.288 332.3 737.888 332.3C735.888 332.5 733.988 333.1 731.988 333.2C729.188 333.3 726.488 333.9 723.688 334.2C722.988 334.3 722.288 334.5 721.588 334.5C720.588 334.5 719.588 334.6 718.588 334.9C718.088 335 717.588 335.1 717.088 335.1C715.788 335.1 714.488 335.3 713.288 335.7C712.988 335.8 712.688 335.9 712.388 335.9C710.788 335.7 709.188 336.3 707.688 336.5C705.488 336.7 703.388 337.3 701.188 337.4C700.588 337.4 699.988 337.5 699.388 337.7C698.488 338 697.688 338.1 696.688 338.1C695.788 338.2 694.888 338.3 693.988 338.6C693.088 338.8 692.288 339 691.288 339C690.788 339 690.288 339 689.788 339.2C688.688 339.5 687.688 339.8 686.588 339.7C686.388 339.7 686.188 339.7 685.988 339.8C683.888 340.4 681.688 340.6 679.488 341C677.088 341.5 674.588 342 672.088 342.2C671.288 342.3 670.488 342.6 669.788 342.7C667.888 342.9 666.088 343.3 664.188 343.6C662.988 343.8 661.788 343.8 660.588 344C659.388 344.2 658.188 344.4 656.988 344.3C656.688 344.3 656.388 344.3 656.088 344.4C653.288 345.1 650.288 344.9 647.488 345.5C644.688 345.2 641.888 346.1 639.088 345.6C638.788 345.5 638.488 345.5 638.188 345.6C635.188 346.1 632.188 345.3 629.288 345.1C629.188 345.1 628.888 344.9 628.888 344.8C628.888 344.7 628.988 344.4 629.088 344.3C630.288 343.8 631.188 342.8 632.588 342.8C635.488 341.4 638.688 340.9 641.588 339.6C642.988 339.5 644.288 338.8 645.688 338.5C646.988 338.2 648.188 337.8 649.388 337.4C650.888 336.9 652.488 336.6 654.088 336.3C656.188 336 658.088 335.3 660.188 334.8C661.988 334.4 663.688 333.9 665.388 333.5C665.788 333.4 666.188 333.3 666.588 333.3C667.988 333.2 669.288 332.7 670.688 332.5C672.088 332.3 673.388 332 674.788 331.6C675.288 331.5 675.788 331.5 676.288 331.4C676.688 331.4 677.088 331.4 677.488 331.3C680.488 330.6 683.588 330.3 686.688 330.1C687.188 330.1 687.688 329.9 688.188 329.8C689.588 329.5 690.888 329.2 692.288 329.3C692.888 329.4 693.488 329.3 694.088 329.1C695.288 328.9 696.488 328.8 697.688 328.8C697.988 328.8 698.288 328.9 698.588 328.8C701.688 328.1 704.788 328.6 707.888 328.1C708.388 328 708.888 328 709.388 328.1C710.988 328.2 712.588 328.2 714.188 328C714.988 327.9 715.788 328 716.588 328.1C717.588 328.1 718.588 328.3 719.588 328.3C722.188 328.1 724.788 328.5 727.388 328.6C728.488 328.6 729.588 328.8 730.688 328.8C732.988 328.9 735.188 329.5 737.388 330.3C737.788 330.4 738.088 330.7 738.488 330.8C738.788 330.9 738.988 331.4 738.688 331.8Z" fill="#FDC633"/>
<path d="M520.887 337.1C519.887 334.4 518.088 332.3 515.788 330.6C513.988 329.3 512.187 328.1 510.387 326.8C509.687 326.3 508.887 325.7 508.087 325.3C506.187 324.4 504.488 323.2 502.688 322C501.688 321.3 500.687 320.8 499.587 320.2C498.087 319.4 496.588 318.6 495.188 317.7C493.388 316.6 491.588 315.5 489.688 314.6C487.888 313.7 486.187 312.8 484.387 311.7C481.787 310.2 479.288 308.5 476.488 307.4C474.888 306.8 473.488 305.9 471.988 305.1C469.888 304 467.787 302.7 465.587 301.7C462.287 300.3 459.088 298.6 455.888 296.9C454.788 296.3 453.787 295.7 452.688 295.3C448.088 293.4 443.587 291.1 439.087 289C437.087 288.1 435.087 287.1 433.087 286.2C430.987 285.3 428.788 284.5 426.688 283.7C424.487 282.9 422.188 282.1 419.888 281.3C419.488 281.2 419.088 281.1 418.288 280.9C419.588 282.4 459.488 304.1 462.388 305.6C462.888 305.8 475.188 366.7 474.988 366.5C473.688 365.9 425.288 342.4 413.788 332.5C411.488 331 409.888 328.8 408.288 326.7C407.488 325.7 406.788 324.6 406.288 323.4C405.388 321 404.787 318.4 404.188 315.9C403.887 314.5 403.588 313.2 403.288 311.8C402.988 310.4 402.987 309 402.688 307.7C402.588 307 402.488 306.3 402.488 305.6C402.488 304.9 402.488 304.2 402.388 303.5C402.188 302 402.088 300.5 402.188 299C402.188 298.4 402.087 297.8 402.087 297.2C402.087 295.8 401.888 294.4 401.988 293C402.188 290.8 402.387 288.6 402.587 286.4C402.687 285.1 402.988 283.8 403.288 282.6C403.788 280.7 405.088 279.5 406.988 279C407.488 278.9 407.988 278.9 408.488 278.9C408.788 278.9 409.088 278.8 409.288 278.7C409.388 278.7 409.388 278.6 409.488 278.5C409.488 278.4 409.488 278.3 409.488 278.3C408.288 277.6 406.888 277.3 405.488 277.3C405.188 277.3 404.887 277.4 404.688 277.6C403.388 278.4 402.288 279.4 401.788 280.9C401.388 282.2 400.888 283.6 400.788 285C400.488 287.8 400.088 290.6 399.788 293.3C399.788 293.6 399.688 293.9 399.688 294.2C399.788 296.3 399.988 298.4 399.788 300.5C400.188 302.9 400.387 305.3 400.587 307.6C400.687 308.3 400.988 309 400.988 309.7C401.288 312.7 401.787 315.6 402.688 318.5C402.787 318.9 402.888 319.3 402.988 319.7C403.688 322.9 404.588 325 406.388 327.9C406.588 328.2 406.688 328.6 406.888 329C407.088 329.4 407.287 329.9 407.587 330.3C408.887 331.7 409.688 333.5 411.288 334.6C411.588 334.8 411.788 335.2 411.988 335.6C412.288 335.9 412.488 336.2 412.788 336.5C413.988 337.3 414.888 338.3 415.888 339.3C416.788 340.2 417.888 341 418.988 341.7C419.688 342.1 420.388 342.5 420.988 343C422.688 344.4 424.488 345.6 426.488 346.6C426.988 346.9 427.488 347.3 427.988 347.6C429.988 348.9 431.987 350.3 434.188 351.3C434.888 351.6 435.588 352.1 436.188 352.6C438.487 354.2 440.888 355.7 443.388 356.9C444.988 357.7 446.587 358.5 448.087 359.5C449.787 360.7 451.687 361.7 453.587 362.5C455.987 363.5 458.287 364.7 460.587 366C461.787 366.7 462.988 367.4 464.288 368C468.888 370 473.487 372 478.087 374C481.987 375.7 485.888 377 489.988 378C491.588 378.4 493.188 378.4 494.688 378.7C497.288 379.3 499.887 379 502.387 378.3C504.887 377.7 506.988 376.5 508.688 374.4C510.088 372.7 511.487 371.1 512.587 369.1C512.987 368.3 513.587 367.6 514.087 366.9C515.387 365.1 516.487 363.2 517.387 361.2C519.187 357.2 520.688 353 521.688 348.7C521.888 348 521.987 347.3 522.087 346.6C522.287 343.2 521.987 340.1 520.887 337.1Z" fill="#FDC633"/>
<path d="M678.287 391.7C677.887 389.9 677.287 388.3 675.987 386.9C675.387 386.3 674.887 385.8 674.087 385.5C672.387 384.9 670.687 384.2 668.987 383.6C664.587 382.2 660.187 380.8 655.787 379.4C648.987 377.2 642.187 375.4 635.287 373.5C632.687 372.8 630.087 372 627.487 371.4C624.687 370.8 621.887 370 619.087 369C616.487 368.2 613.887 367.5 611.287 366.9C610.087 366.6 608.887 366.5 607.687 366.6C607.487 366.6 607.287 366.7 607.187 366.8C607.087 366.9 606.987 367.2 606.987 367.3C607.287 367.7 607.687 368.1 608.087 368.3C609.187 369 610.387 369.6 611.387 370.3C613.187 371.5 614.887 372.5 616.787 373.4C618.087 374 619.387 374.9 620.687 375.6C621.987 376.4 623.187 377.3 624.487 378C625.987 378.8 627.387 379.7 628.687 380.8C629.687 381.6 630.787 382.3 631.787 383.1C632.087 383.3 632.187 383.9 631.987 384.2C630.487 386.6 603.987 421.4 603.287 422.1C603.187 422.2 603.187 422.3 603.087 422.3C602.987 422.5 603.187 423 603.387 423.1C604.887 423.4 623.887 427.2 625.187 427.5C632.187 429.1 639.487 426.2 646.987 421.7C649.287 420.3 673.887 401.1 674.787 400.2C675.487 399.6 676.087 399 676.487 398.2C677.287 396.7 677.887 395.1 678.087 393.4C678.387 392.9 678.387 392.3 678.287 391.7Z" fill="#FDC633"/>
<path d="M591.588 361.6C590.988 361 590.388 360.6 589.588 360.3C588.188 359.8 586.788 359.3 585.288 358.8C578.988 356.9 551.288 348.9 543.788 346.7C541.688 346.1 539.488 345.6 537.388 345C537.188 345 536.988 345 536.788 345C536.688 345 536.588 345.1 536.588 345.1C536.488 345.3 536.388 345.5 536.488 345.6C536.688 346.2 537.188 346.6 537.688 346.9C538.588 347.4 559.588 358.2 561.888 359.5C562.688 360 563.388 360.5 564.188 360.8C565.688 361.5 566.988 362.4 568.088 363.5C568.488 363.8 568.788 364.2 569.188 364.5C570.388 365.3 571.188 366.5 571.988 367.6C572.188 367.9 572.388 368.3 572.488 368.7C572.788 370.1 572.788 371.5 571.988 372.7C570.588 375 552.888 403.3 551.388 405.3C551.188 405.5 551.188 405.8 551.088 406.1C552.788 407.6 554.688 408.6 557.088 408.5C557.688 408.5 558.288 408.6 558.888 408.7C559.788 408.7 560.588 408.5 561.488 408.2C563.088 407.5 564.388 406.5 565.388 405.1C565.888 404.5 589.888 367.3 591.288 365.2C591.488 364.9 591.688 364.5 591.888 364.2C592.488 363.4 592.288 362.4 591.588 361.6Z" fill="#FDC633"/>
<path d="M736.087 456.3C734.987 456.8 733.787 457.1 732.787 457.7C730.387 459 727.887 460 725.387 461C724.187 461.5 722.987 462 721.787 462.6C720.687 463.2 719.487 463.8 718.287 464.1C716.587 464.5 715.187 465.3 713.487 465.8C712.187 466.2 710.887 466.8 709.587 467.2C707.487 467.9 705.387 468.6 703.287 469C702.887 469.1 702.587 469.6 702.687 469.9C702.687 470.2 702.687 470.5 702.787 470.8C703.087 471.8 703.487 472.9 703.887 473.9C704.887 476.4 706.287 479.6 709.487 483C709.787 483.3 709.887 483.7 710.187 484C710.387 484.3 710.587 484.7 710.887 485C712.187 486.1 713.187 487.5 714.387 488.7C715.687 490 717.187 490.9 718.387 492.3C718.487 492.4 718.687 492.6 718.887 492.6C720.187 493.2 721.187 494.2 722.287 495C723.187 495.7 723.987 496.3 724.887 497C725.187 497.2 725.587 497.4 725.987 497.5C726.087 497.5 726.287 497.4 726.487 497.3C726.587 497.3 726.587 497.1 726.587 497C726.187 495.5 725.687 494 725.287 492.4C725.187 491.9 724.987 491.5 724.787 491C724.687 490.4 724.687 489.8 724.987 489.3C725.587 488.4 726.187 487.4 726.787 486.6C728.687 484 730.087 481.1 731.187 478.1C731.787 476.6 732.187 475.1 732.687 473.6C732.687 473.6 732.687 473.6 732.587 473.6C732.887 472.8 733.087 472.1 733.387 471.3C734.887 466.9 735.787 462.4 736.487 457.9C736.587 457.5 736.587 457.1 736.587 456.7C736.787 456.5 736.287 456.2 736.087 456.3Z" fill="#FDC633"/>
<path d="M885.988 335.6C885.788 335.8 885.888 335.9 886.088 336C886.088 336 886.188 335.9 886.188 335.8C886.288 335.7 886.388 335.5 886.488 335.4C886.288 335.4 886.088 335.5 885.988 335.6Z" fill="#FDC633"/>
<path d="M505.387 255.2H505.287C505.287 255.2 505.387 255.3 505.387 255.2C505.387 255.3 505.387 255.3 505.387 255.2C505.387 255.3 505.387 255.3 505.387 255.2Z" fill="#FDC633"/>
<path d="M662.388 316.4C661.688 316.3 660.988 316.3 660.288 316.2C658.388 315.9 656.488 315.8 654.588 315.8C653.588 315.8 652.588 315.8 651.588 315.7C650.088 315.5 648.588 315.6 647.088 315.6C643.488 315.7 639.888 315.7 636.288 315.7C634.988 315.7 633.688 315.8 632.388 315.9C630.988 316 629.588 316 628.188 316.1C627.788 316.1 627.388 316.3 626.988 316.3C626.088 316.4 625.188 316.5 624.288 316.5C623.188 316.5 622.088 316.6 620.988 316.7C620.188 316.8 619.388 316.8 618.588 316.9C617.688 317 616.788 317 615.888 317.1C615.288 317.2 614.688 317.4 614.088 317.3C611.388 317.2 608.788 318.3 606.088 318.1C605.888 318.1 605.688 318.2 605.488 318.2C604.388 318.6 603.388 318.7 602.188 318.7C601.588 318.7 600.988 318.8 600.388 318.9C599.488 319.2 598.588 319.2 597.688 319.3C597.188 319.3 596.688 319.3 596.188 319.5C593.888 320.4 591.388 320 589.188 320.9C587.088 320.8 585.088 321.7 582.988 321.9C582.588 321.9 582.288 322.2 581.888 322.4C581.688 322.5 581.588 322.7 581.788 322.8C581.888 322.9 581.988 323 581.988 323C584.288 322.9 586.588 322.8 588.888 322.7C588.988 322.7 589.088 322.7 589.188 322.6C590.388 322.3 591.588 322.2 592.788 322.2C593.188 322.2 593.588 322.2 593.988 322.1C596.588 321.6 599.388 321.6 601.988 321.1C603.588 320.8 605.188 320.9 606.788 320.5C607.188 320.4 607.588 320.4 607.988 320.4C608.988 320.5 609.988 320.4 610.988 320.3C611.488 320.3 612.088 320 612.388 320.5C612.788 321.3 611.888 321.4 611.488 321.8C611.288 322 610.988 322.2 610.888 322.5C610.788 322.7 610.688 323.1 610.888 323.3C610.988 323.5 611.388 323.8 611.588 323.8C612.288 323.8 612.988 323.6 613.688 323.5C614.388 323.4 614.888 323.6 615.188 324.2C615.388 324.5 615.588 324.9 615.788 325.2C616.588 326.2 617.488 326.9 618.888 326.7C619.688 326.6 620.488 326.8 621.188 327.1C621.588 327.3 621.888 327.5 621.988 327.9C622.088 328.2 622.088 328.5 622.188 328.8C622.288 329.1 622.388 329.4 622.488 329.6C622.588 329.8 622.988 330.1 623.188 330C624.688 329.7 626.288 329 627.888 329.4C628.088 329.5 628.388 329.3 628.688 329.2C628.688 328.4 628.688 327.7 628.588 327C628.388 324.2 629.588 322 631.388 320C631.588 319.8 631.888 319.6 632.088 319.5C632.788 319.1 633.488 318.8 634.288 318.4C635.188 318 636.188 317.8 637.188 318C638.788 318.3 640.288 318.7 641.688 319.6C641.988 319.8 642.388 320 642.588 320.3C644.688 322.8 645.888 325.5 644.788 328.9C644.688 329.1 644.688 329.3 644.588 329.5C644.088 330.7 644.588 331.2 645.888 331C646.888 330.9 647.888 330.6 648.788 330.4C649.288 330.3 649.788 330 650.188 330C651.488 329.9 652.788 329.7 653.988 329.3C654.388 329.2 654.788 329.2 655.188 329.2C656.888 329.4 658.488 329 660.188 328.2C659.188 327.9 658.288 327.7 657.288 327.4C656.088 327 654.788 326.6 653.588 326.1C653.088 325.9 652.688 325.6 652.488 325.1C652.288 324.7 651.988 324.2 651.788 323.8C651.488 323.2 651.788 322 652.288 321.6C652.888 321.1 653.588 320.7 654.188 320.2C655.388 319.3 656.788 318.7 658.188 318.1C659.488 317.5 660.788 317.2 662.188 316.8C662.288 316.8 662.388 316.6 662.388 316.6C662.588 316.6 662.488 316.4 662.388 316.4Z" fill="#FDC633"/>
<path d="M1144.39 184.8C1165.39 148 1175.69 121.4 1175.19 105.8L1175.09 104.3L1103.59 70.3999L1100.09 67.8999L1098.69 68.6999C1097.99 69.0999 1094.19 71.6999 1087.39 82.2999C1073.09 104.6 1049.69 155.5 1018.89 271.8C1016.49 281 1013.99 290.5 1011.59 300.2L1011.39 300.9L1000.79 295.7L999.087 299.1L1009.89 304.4L1004.59 315.2L994.287 310.1L991.287 316.3L993.687 317.5C988.487 330.1 982.887 341.9 976.987 353.1C983.787 342.2 990.187 330.8 996.287 318.8L1001.49 321.4C886.287 569.5 619.887 613.7 434.787 525.2C442.687 516.9 450.687 508.5 458.587 500.2C545.087 543.8 652.887 556.2 753.487 526.6C735.387 525.7 721.787 519.5 712.787 513.6C631.587 525.2 549.787 509.6 483.387 473.9C482.387 473.4 481.387 472.8 480.487 472.3C479.487 471.7 478.387 471.2 477.387 470.6C476.387 470 475.387 469.5 474.387 468.9C473.387 468.3 472.387 467.7 471.387 467.2C470.387 466.6 469.387 466 468.387 465.4C467.387 464.8 466.287 464.1 465.287 463.5C464.387 462.9 463.487 462.4 462.487 461.8C460.687 460.7 458.987 459.5 457.287 458.4C456.387 457.8 455.487 457.2 454.587 456.5C453.587 455.8 452.687 455.2 451.687 454.5C450.787 453.8 449.787 453.2 448.887 452.5C447.987 451.8 447.087 451.2 446.087 450.5C445.187 449.8 444.287 449.2 443.287 448.5C442.287 447.8 441.387 447.1 440.387 446.3C439.387 445.6 438.487 444.9 437.487 444.1C435.987 442.9 434.487 441.7 432.987 440.5C432.187 439.8 431.287 439.1 430.487 438.4C429.587 437.7 428.687 436.9 427.787 436.2C426.887 435.5 426.087 434.7 425.187 434C424.387 433.3 423.487 432.5 422.687 431.8C421.887 431.1 420.987 430.3 420.187 429.6C419.287 428.8 418.487 428 417.587 427.2C416.587 426.3 415.687 425.4 414.687 424.5C413.387 423.3 412.187 422.1 410.987 420.9C410.187 420.1 409.487 419.4 408.687 418.6C407.887 417.8 407.087 417 406.287 416.2C405.487 415.4 404.787 414.6 403.987 413.8C403.187 413 402.487 412.2 401.687 411.4C400.987 410.6 400.187 409.8 399.487 409C398.687 408.1 397.887 407.2 397.187 406.3C396.287 405.3 395.387 404.2 394.487 403.2C393.387 401.9 392.387 400.7 391.287 399.4C390.587 398.6 389.987 397.7 389.287 396.9C388.587 396 387.887 395.1 387.187 394.2C386.487 393.3 385.887 392.5 385.187 391.6C384.487 390.7 383.887 389.8 383.187 388.9C382.587 388 381.887 387.1 381.287 386.3C380.587 385.3 379.887 384.4 379.287 383.4C378.487 382.3 377.687 381.1 376.887 379.9C375.987 378.6 375.087 377.3 374.287 375.9C373.687 375 373.187 374.1 372.587 373.2C371.987 372.2 371.387 371.3 370.787 370.3C370.187 369.4 369.687 368.4 369.087 367.5C368.487 366.5 367.987 365.6 367.387 364.6C366.887 363.7 366.287 362.7 365.787 361.8C365.187 360.7 364.687 359.7 364.087 358.6C363.387 357.3 362.787 356.1 362.087 354.8C361.387 353.4 360.687 352.1 359.987 350.7C359.487 349.8 359.087 348.8 358.687 347.9C358.187 346.9 357.687 345.8 357.287 344.8C356.887 343.8 356.387 342.8 355.987 341.8C355.587 340.8 355.087 339.8 354.687 338.7C354.287 337.7 353.887 336.7 353.487 335.7C352.987 334.6 352.587 333.4 352.187 332.3C351.687 331 351.187 329.6 350.687 328.3C350.187 326.9 349.687 325.4 349.187 324C348.887 323 348.487 322 348.187 321C347.787 319.9 347.487 318.8 347.187 317.7C346.887 316.7 346.587 315.6 346.287 314.6C345.987 313.5 345.687 312.4 345.387 311.3C345.087 310.3 344.787 309.2 344.587 308.2C344.287 307 343.987 305.8 343.687 304.5C343.387 303.1 342.987 301.7 342.687 300.2C342.387 298.7 341.987 297.2 341.687 295.8C341.487 294.8 341.287 293.7 341.087 292.7C340.887 291.6 340.687 290.4 340.487 289.2C340.287 288.1 340.087 287 339.987 285.9C339.787 284.8 339.687 283.6 339.487 282.5C339.287 281.4 339.187 280.3 339.087 279.3C338.887 278 338.787 276.7 338.587 275.4C338.387 273.9 338.287 272.4 338.087 270.9C337.987 269.4 337.787 267.9 337.687 266.3C337.687 266 337.687 265.7 337.587 265.5C317.187 271.6 297.587 278.3 278.887 285.5C279.187 287.3 279.487 289.1 279.787 290.9C284.487 291.2 289.087 291.5 293.687 291.8C289.587 294.1 285.387 296.5 281.387 298.9C282.287 303.2 283.287 307.4 284.387 311.6C280.887 308.9 277.287 306.2 273.787 303.3C269.787 305.7 265.787 308.2 261.787 310.7C263.587 306.4 265.387 302.2 267.387 297.9C265.287 296.1 263.187 294.3 261.087 292.4C249.887 297.1 238.987 301.9 228.487 306.9C228.687 306.9 228.887 306.9 229.087 307C225.087 309.5 221.087 312 217.087 314.6C218.387 319.4 219.787 324.2 221.287 329C217.387 325.9 213.587 322.7 209.787 319.4C205.887 322 201.987 324.6 198.087 327.3C198.687 325.3 199.387 323.3 199.987 321.3C185.187 329.2 171.187 337.5 157.987 346.1C157.987 346.2 158.087 346.3 158.087 346.4C157.987 346.3 157.887 346.2 157.787 346.2C148.487 352.2 139.587 358.4 131.087 364.8C132.387 367.9 133.687 371.1 134.987 374.2C139.887 374.5 144.787 374.8 149.687 375.1C146.287 378 142.787 381 139.487 384C141.987 389.2 144.487 394.4 147.187 399.5C142.487 396.3 137.887 393 133.287 389.6C129.987 392.6 126.687 395.7 123.387 398.7C123.787 393.5 124.187 388.3 124.787 383.1C121.887 380.9 119.087 378.6 116.287 376.4C103.387 386.8 91.5871 397.5 80.7871 408.4C82.9871 412.7 85.1871 416.9 87.4871 421C83.7871 418.3 80.0871 415.6 76.4871 412.8C68.5871 421.1 61.2871 429.5 54.5871 438C55.2871 439.2 55.9871 440.3 56.6871 441.5C57.6871 443.2 58.6871 444.8 59.6871 446.5C60.3871 447.6 61.0871 448.8 61.7871 449.9C62.8871 451.7 63.9871 453.4 65.0871 455.2C65.9871 456.6 66.7871 457.9 67.6871 459.2C68.5871 460.6 69.5871 462 70.4871 463.4C71.1871 464.5 71.9871 465.6 72.6871 466.6C74.0871 468.6 75.4871 470.6 76.8871 472.6C77.6871 473.7 78.3871 474.7 79.1871 475.8C80.1871 477.2 81.1871 478.5 82.1871 479.9C83.1871 481.2 84.1871 482.6 85.1871 483.9C86.3871 485.5 87.5871 487 88.7871 488.6C89.5871 489.6 90.3871 490.7 91.1871 491.7C92.3871 493.3 93.6871 494.8 94.8871 496.4C95.8871 497.7 96.8871 498.9 97.9871 500.2C99.0871 501.5 100.087 502.8 101.187 504.1C101.987 505.1 102.887 506.1 103.687 507.1C105.287 508.9 106.787 510.7 108.387 512.5C109.287 513.5 110.087 514.4 110.987 515.4C112.087 516.6 113.187 517.9 114.287 519.1C115.387 520.3 116.487 521.5 117.487 522.6C118.887 524.1 120.187 525.5 121.587 527C122.487 527.9 123.387 528.9 124.287 529.8C125.587 531.2 126.987 532.6 128.387 534C129.487 535.2 130.687 536.3 131.887 537.5C133.087 538.7 134.287 539.8 135.387 541C136.287 541.9 137.187 542.8 138.187 543.7C139.887 545.3 141.687 547 143.387 548.6C144.287 549.5 145.287 550.3 146.187 551.2C147.387 552.3 148.587 553.4 149.887 554.5C150.987 555.5 152.187 556.5 153.287 557.6C154.787 558.9 156.387 560.3 157.887 561.6C158.887 562.4 159.887 563.3 160.787 564.1C162.287 565.3 163.687 566.5 165.187 567.8C166.487 568.8 167.687 569.9 168.987 570.9C170.287 571.9 171.587 573 172.887 574C173.887 574.8 174.887 575.6 175.887 576.4C177.787 577.9 179.587 579.3 181.487 580.7C182.487 581.5 183.487 582.2 184.487 583C185.787 584 187.087 585 188.487 585.9C189.687 586.8 190.887 587.6 192.087 588.5C193.787 589.7 195.487 590.9 197.187 592.1C198.287 592.8 199.287 593.6 200.387 594.3C201.887 595.4 203.487 596.4 204.987 597.5C206.387 598.4 207.687 599.3 209.087 600.3C210.487 601.2 211.887 602.1 213.287 603.1C214.387 603.8 215.387 604.5 216.487 605.2C218.487 606.5 220.487 607.7 222.487 609C223.587 609.7 224.587 610.3 225.687 611C227.087 611.9 228.487 612.7 229.887 613.5C231.087 614.2 232.287 615 233.587 615.7C235.487 616.8 237.287 617.9 239.187 618.9C240.287 619.5 241.387 620.2 242.587 620.8C244.187 621.7 245.787 622.6 247.487 623.5C248.887 624.3 250.387 625.1 251.787 625.9C253.287 626.7 254.787 627.5 256.287 628.3C257.387 628.9 258.487 629.5 259.687 630.1C261.787 631.2 263.887 632.3 265.987 633.3C267.087 633.9 268.187 634.4 269.287 635C270.787 635.7 272.187 636.4 273.687 637.2C274.887 637.8 276.087 638.4 277.287 638.9C279.287 639.9 281.387 640.8 283.387 641.7C284.587 642.2 285.687 642.8 286.887 643.3C288.587 644.1 290.287 644.8 291.987 645.5C293.487 646.2 294.987 646.8 296.487 647.4C298.087 648.1 299.687 648.8 301.287 649.4C302.487 649.9 303.587 650.4 304.787 650.8C306.987 651.7 309.187 652.6 311.387 653.5C311.787 653.7 312.187 653.8 312.487 654C580.587 759 930.887 662.2 1026.19 333.4L1030.49 335.5C906.787 804.7 270.887 833.9 28.7871 477.2C20.1871 492.6 13.5871 508.2 8.78711 523.8C251.987 827.9 777.087 822.6 974.987 488C987.287 464.6 998.987 440.4 1010.49 415.6C1020.29 391 1028.49 365 1034.99 337.7L1039.19 339.7C1037.29 348.3 1035.29 356.7 1033.09 365.1C1036.49 357.3 1039.79 349.5 1043.19 341.7L1052.39 346.2L1055.39 340L1045.89 335.4L1051.19 324.6L1060.19 329L1061.89 325.6L1052.79 321.2L1054.09 319.4C1059.89 311.7 1110.79 243.9 1144.39 184.8ZM102.787 427.5C107.787 427.6 112.687 427.7 117.687 427.8C117.587 422.6 117.687 417.4 117.787 412.2C120.687 417.5 123.687 422.7 126.787 427.9C131.687 427.9 136.587 427.9 141.487 427.9C138.487 431 135.587 434.2 132.687 437.4C135.887 442.4 139.187 447.4 142.587 452.3C137.487 449.4 132.387 446.4 127.287 443.3C124.387 446.5 121.587 449.7 118.787 453C118.387 447.8 118.087 442.7 117.887 437.5C112.887 434.3 107.787 431 102.787 427.5ZM130.587 496.6C128.187 499.9 125.887 503.3 123.487 506.6C122.287 501.6 121.287 496.5 120.287 491.4C114.787 488.6 109.287 485.6 103.787 482.6C108.787 482.4 113.687 482.2 118.587 482C117.787 476.9 117.087 471.8 116.487 466.6C120.087 471.6 123.887 476.6 127.687 481.5C132.587 481.2 137.487 480.9 142.287 480.5C139.787 483.8 137.287 487.1 134.887 490.4C138.787 495.2 142.887 499.8 146.987 504.4C141.687 502 136.187 499.3 130.587 496.6ZM431.787 473C430.587 469.7 429.587 466.3 428.587 463C431.887 465.4 435.287 467.7 438.687 469.9C442.387 468.2 445.987 466.5 449.687 464.8C448.087 467.9 446.587 470.9 445.087 474C448.587 476.2 452.087 478.3 455.687 480.4C451.287 480.2 446.887 480 442.387 479.7C440.987 482.8 439.487 485.8 438.187 488.9C436.787 485.7 435.387 482.4 434.187 479.1C429.687 478.8 425.187 478.4 420.687 477.9C424.387 476.3 428.087 474.6 431.787 473ZM1007.09 324L1011.99 326.4C903.887 606.7 604.087 671.5 386.087 576.5C393.987 568.2 401.987 559.8 409.887 551.5C611.787 643.3 895.287 588.6 1007.09 324ZM411.387 499.9C409.987 503 408.587 506.1 407.287 509.2C411.287 511.5 415.287 513.8 419.387 515.9C414.587 515.6 409.787 515.3 404.887 514.9C403.587 518 402.387 521.1 401.087 524.2C399.287 520.9 397.487 517.5 395.787 514.1C390.887 513.6 385.987 513.1 381.087 512.6C384.987 511 388.887 509.4 392.787 507.8C391.187 504.4 389.687 500.9 388.387 497.4C392.187 499.9 396.087 502.4 399.987 504.8C403.787 503.2 407.587 501.6 411.387 499.9ZM406.087 479.3C401.487 478.7 396.887 478.1 392.287 477.5C390.587 480.6 388.887 483.7 387.187 486.8C385.987 483.3 384.787 479.7 383.787 476.2C379.187 475.5 374.587 474.7 369.887 473.8C373.887 472.4 377.887 471 381.887 469.6C380.887 466 380.087 462.4 379.287 458.8C382.587 461.6 385.887 464.3 389.187 466.9C393.187 465.4 397.087 464 400.987 462.5C399.087 465.6 397.287 468.7 395.487 471.8C399.087 474.3 402.587 476.9 406.087 479.3ZM378.887 429.4C378.587 425.7 378.387 422.1 378.287 418.4C380.987 421.3 383.687 424.2 386.487 427.1C390.587 425.8 394.587 424.5 398.587 423.2C396.287 426.2 393.987 429.2 391.787 432.3C394.687 435.1 397.587 437.8 400.587 440.5C396.287 439.7 391.987 438.9 387.687 437.9C385.487 441 383.287 444 381.187 447.1C380.587 443.5 380.087 439.8 379.687 436.2C375.387 435.2 371.087 434.2 366.687 433.1C370.687 431.9 374.787 430.6 378.887 429.4ZM373.187 535.1C371.887 538.2 370.687 541.4 369.587 544.6C374.087 547.1 378.587 549.4 383.187 551.7C377.987 551.3 372.687 550.9 367.487 550.4C366.387 553.6 365.287 556.7 364.187 559.9C361.987 556.5 359.787 553 357.687 549.5C352.387 548.9 347.087 548.3 341.787 547.6C345.887 546.1 349.887 544.5 353.887 542.9C351.887 539.3 349.987 535.7 348.187 532.1C352.487 534.8 356.887 537.4 361.287 540C365.287 538.3 369.187 536.7 373.187 535.1ZM365.687 513.8C360.687 513.1 355.687 512.4 350.687 511.5C349.087 514.7 347.587 517.8 346.087 521C344.487 517.3 342.887 513.6 341.487 509.9C336.487 509 331.487 508 326.387 507C330.587 505.7 334.687 504.3 338.887 503C337.487 499.2 336.287 495.5 335.087 491.7C338.787 494.7 342.687 497.6 346.487 500.5C350.587 499.1 354.687 497.7 358.687 496.3C356.987 499.4 355.287 502.6 353.687 505.8C357.587 508.4 361.587 511.1 365.687 513.8ZM278.987 436C281.987 439.7 285.087 443.4 288.187 447C292.587 446.1 296.987 445.2 301.387 444.3C298.887 447.4 296.487 450.5 294.087 453.6C297.287 457.1 300.587 460.6 303.987 463.9C299.187 462.5 294.487 460.9 289.687 459.3C287.287 462.4 284.987 465.6 282.787 468.7C282.087 464.6 281.387 460.4 280.887 456.2C276.087 454.5 271.387 452.8 266.587 450.9C271.087 450.1 275.587 449.3 279.987 448.4C279.587 444.4 279.187 440.2 278.987 436ZM284.387 492.3C283.287 488.2 282.287 484.1 281.387 480C284.987 483.5 288.687 486.9 292.487 490.3C296.787 489.2 301.187 488.1 305.487 486.9C303.487 490.1 301.487 493.3 299.587 496.4C303.387 499.7 307.287 502.9 311.287 506C306.187 504.8 301.087 503.6 295.987 502.3C294.087 505.5 292.187 508.7 290.387 511.9C288.987 507.9 287.687 503.8 286.487 499.8C281.387 498.4 276.287 496.9 271.187 495.4C275.587 494.4 279.987 493.4 284.387 492.3ZM295.687 536.4C293.887 532.5 292.287 528.5 290.687 524.5C294.887 527.7 299.187 530.9 303.587 533.9C307.887 532.6 312.087 531.2 316.287 529.9C314.687 533.1 313.187 536.3 311.787 539.5C316.187 542.5 320.687 545.4 325.287 548.2C319.887 547.4 314.487 546.5 309.087 545.5C307.687 548.7 306.287 551.9 304.887 555.2C302.887 551.4 300.887 547.5 299.087 543.6C293.687 542.5 288.287 541.4 282.787 540.2C286.987 539 291.387 537.7 295.687 536.4ZM352.587 433.2C348.187 432 343.787 430.7 339.487 429.3C336.987 432.3 334.487 435.4 332.087 438.4C331.787 434.5 331.487 430.6 331.287 426.7C326.887 425.3 322.487 423.8 318.087 422.2C322.487 421.3 326.787 420.4 331.087 419.4C331.087 415.5 331.087 411.6 331.287 407.6C333.787 411 336.387 414.3 339.087 417.6C343.387 416.6 347.587 415.6 351.887 414.6C349.287 417.6 346.687 420.6 344.187 423.6C346.887 426.9 349.687 430.1 352.587 433.2ZM318.887 464.3C323.187 463.2 327.387 462.1 331.687 460.9C330.987 457 330.387 453.1 329.887 449.2C332.987 452.4 336.187 455.6 339.487 458.7C343.687 457.5 347.887 456.3 351.987 455.1C349.787 458.2 347.687 461.3 345.587 464.4C348.987 467.4 352.387 470.4 355.787 473.3C351.087 472.3 346.387 471.3 341.687 470.2C339.687 473.3 337.587 476.5 335.687 479.6C334.687 475.8 333.787 471.9 332.987 468.1C328.287 466.8 323.587 465.6 318.887 464.3ZM338.587 377.3C339.187 373.4 339.987 369.5 340.787 365.7C342.687 369.2 344.587 372.6 346.687 375.9C350.987 375.1 355.387 374.4 359.687 373.6C356.587 376.4 353.587 379.3 350.587 382.1C352.687 385.4 354.887 388.7 357.187 391.9C353.187 390.5 349.087 389 345.087 387.4C342.087 390.3 339.187 393.2 336.287 396.1C336.587 392.2 337.087 388.3 337.587 384.4C333.587 382.8 329.487 381 325.487 379.3C329.787 378.7 334.187 378 338.587 377.3ZM312.087 316.7C313.787 312.7 315.587 308.8 317.387 304.9C318.287 308.8 319.387 312.7 320.487 316.5C324.987 316.4 329.587 316.2 334.087 316C330.287 318.5 326.487 321 322.687 323.5C323.887 327.3 325.287 331 326.687 334.7C323.087 332.6 319.387 330.4 315.787 328.2C312.087 330.8 308.387 333.4 304.787 336C306.187 332 307.587 328 309.187 324C305.587 321.7 301.987 319.2 298.487 316.7C302.987 316.8 307.587 316.8 312.087 316.7ZM293.387 359.4C294.387 355.3 295.487 351.2 296.587 347.1C298.187 351 299.987 354.9 301.787 358.8C306.287 358.4 310.787 358 315.287 357.6C311.887 360.3 308.587 363.1 305.287 365.9C307.187 369.7 309.187 373.4 311.287 377.1C307.287 375.2 303.187 373.2 299.187 371.1C295.887 373.9 292.687 376.7 289.487 379.6C290.187 375.4 290.887 371.3 291.787 367.2C287.787 365 283.787 362.8 279.787 360.5C284.287 360.1 288.887 359.8 293.387 359.4ZM283.587 403.4C283.887 399.2 284.287 395 284.687 390.8C286.987 394.7 289.387 398.5 291.887 402.2C296.387 401.6 300.787 400.9 305.287 400.2C302.387 403.1 299.487 406.1 296.587 409.1C299.187 412.8 301.787 416.4 304.587 420C300.187 418.3 295.787 416.5 291.387 414.7C288.587 417.7 285.787 420.7 283.087 423.7C283.087 419.5 283.087 415.3 283.287 411.2C278.887 409.3 274.487 407.2 270.087 405.1C274.587 404.6 279.087 404 283.587 403.4ZM250.187 335.7C251.587 331.3 252.987 327 254.587 322.6C255.887 327 257.387 331.4 258.887 335.8C263.587 335.8 268.187 335.8 272.787 335.8C269.087 338.4 265.387 341.1 261.787 343.8C263.387 348.1 265.187 352.3 266.987 356.5C262.987 354 259.087 351.5 255.087 348.8C251.487 351.5 247.987 354.3 244.387 357C245.387 352.6 246.487 348.2 247.787 343.8C243.887 341.1 239.987 338.2 236.087 335.3C240.787 335.5 245.487 335.6 250.187 335.7ZM234.787 382.3C235.387 377.8 236.187 373.3 236.987 368.9C239.087 373.3 241.187 377.6 243.387 381.9C248.087 381.7 252.687 381.4 257.287 381.1C254.087 384 250.787 386.9 247.687 389.8C249.987 394 252.487 398.1 254.987 402.2C250.587 400 246.187 397.6 241.787 395.2C238.687 398.1 235.587 401.1 232.487 404.1C232.787 399.6 233.187 395.1 233.687 390.6C229.287 388.1 224.987 385.5 220.687 382.8C225.487 382.6 230.187 382.5 234.787 382.3ZM228.687 429.6C228.587 425.1 228.587 420.6 228.687 416.1C231.487 420.4 234.287 424.5 237.187 428.7C241.787 428.2 246.387 427.6 250.987 427.1C248.187 430.2 245.487 433.2 242.687 436.3C245.687 440.3 248.787 444.3 251.987 448.2C247.187 446.2 242.387 444.2 237.687 442C234.987 445.1 232.387 448.2 229.787 451.4C229.387 446.9 229.087 442.5 228.887 438C224.087 435.8 219.387 433.4 214.587 431C219.387 430.6 224.087 430.1 228.687 429.6ZM188.187 354.6C189.187 349.8 190.387 345 191.587 340.3C193.287 345.3 195.087 350.2 197.087 355C201.887 355.2 206.687 355.3 211.387 355.5C207.787 358.3 204.287 361.1 200.787 363.9C202.787 368.7 204.987 373.4 207.187 378C202.887 375.2 198.587 372.2 194.287 369.2C190.787 372.1 187.387 375 183.987 377.9C184.687 373.1 185.487 368.3 186.387 363.5C182.187 360.4 177.887 357.1 173.687 353.8C178.587 354.1 183.387 354.4 188.187 354.6ZM176.287 405.1C176.587 400.3 176.987 395.4 177.487 390.6C179.987 395.5 182.487 400.2 185.187 404.9C189.987 404.8 194.687 404.6 199.487 404.5C196.387 407.5 193.287 410.5 190.287 413.6C193.087 418.2 195.987 422.8 198.887 427.3C194.087 424.7 189.387 422.1 184.687 419.3C181.687 422.4 178.687 425.5 175.787 428.6C175.687 423.8 175.787 419 175.887 414.1C171.187 411.2 166.487 408.3 161.787 405.2C166.587 405.2 171.487 405.1 176.287 405.1ZM159.387 456.8C164.187 456.5 168.987 456.2 173.787 455.8C173.287 451 172.987 446.2 172.787 441.4C175.987 446.1 179.287 450.6 182.687 455.1C187.487 454.7 192.187 454.3 196.887 453.8C194.287 457 191.587 460.1 189.087 463.3C192.587 467.7 196.187 472 199.787 476.3C194.587 474 189.487 471.7 184.287 469.3C181.787 472.5 179.287 475.7 176.787 479C175.987 474.3 175.287 469.5 174.787 464.7C169.587 462.2 164.487 459.6 159.387 456.8ZM163.387 508.6C168.187 508 172.887 507.4 177.687 506.7C176.487 502 175.387 497.3 174.487 492.5C178.387 496.9 182.387 501.2 186.487 505.4C191.187 504.7 195.887 504 200.587 503.3C198.387 506.6 196.287 509.9 194.187 513.2C198.387 517.3 202.587 521.3 206.987 525.3C201.487 523.4 195.887 521.4 190.387 519.3C188.287 522.6 186.287 525.9 184.287 529.3C182.787 524.7 181.387 520.1 180.087 515.4C174.487 513.2 168.887 511 163.387 508.6ZM204.387 566.8C202.787 570.1 201.187 573.5 199.687 576.9C197.487 572.5 195.387 568.1 193.487 563.6C187.587 561.8 181.687 559.9 175.787 557.9C180.487 557 185.187 556.1 189.887 555.2C187.987 550.7 186.287 546.1 184.587 541.6C189.187 545.7 193.787 549.6 198.587 553.5C203.187 552.6 207.887 551.6 212.487 550.6C210.787 553.9 209.087 557.3 207.487 560.6C212.287 564.4 217.187 568 222.087 571.6C216.187 570.1 210.287 568.5 204.387 566.8ZM214.987 479.8C219.587 479.1 224.287 478.4 228.887 477.6C228.087 473.2 227.387 468.7 226.787 464.2C230.287 468.3 233.787 472.2 237.387 476.1C241.987 475.3 246.487 474.5 250.987 473.7C248.687 476.9 246.387 480.1 244.087 483.3C247.787 487.1 251.587 490.9 255.387 494.5C250.187 492.8 245.087 491.1 239.887 489.2C237.687 492.4 235.487 495.6 233.387 498.9C232.287 494.5 231.287 490.1 230.287 485.7C225.287 483.9 220.087 481.9 214.987 479.8ZM223.487 526.7C228.087 525.8 232.587 524.8 237.187 523.8C235.687 519.5 234.287 515.2 233.087 510.8C237.187 514.6 241.387 518.3 245.587 521.9C250.087 520.9 254.587 519.8 258.987 518.7C257.087 521.9 255.287 525.2 253.487 528.5C257.787 532 262.187 535.5 266.687 538.8C261.187 537.5 255.687 536 250.187 534.5C248.487 537.8 246.687 541.1 245.087 544.3C243.287 540.1 241.587 535.9 239.987 531.6C234.487 530.1 228.987 528.4 223.487 526.7ZM256.587 577.4C250.787 576.2 244.987 574.9 239.087 573.5C243.587 572.3 248.087 571.1 252.487 569.8C250.387 565.7 248.287 561.6 246.287 557.4C250.987 560.8 255.787 564.2 260.687 567.5C265.087 566.2 269.487 564.9 273.887 563.6C272.487 566.9 271.087 570.1 269.787 573.4C274.687 576.6 279.687 579.6 284.787 582.6C278.987 581.6 273.187 580.6 267.387 579.5C266.087 582.8 264.887 586.1 263.687 589.4C261.187 585.4 258.887 581.4 256.587 577.4ZM292.387 621.1C291.587 624.3 290.787 627.6 289.987 630.8C286.987 627.1 283.987 623.4 281.087 619.7C274.987 618.9 268.887 618 262.787 617.1C267.187 615.7 271.487 614.2 275.887 612.7C273.087 608.9 270.387 605 267.787 601.1C273.087 604.1 278.487 607.1 283.887 609.9C288.187 608.4 292.487 606.9 296.687 605.4C295.787 608.6 294.787 611.9 293.987 615.1C299.487 617.8 304.987 620.5 310.587 623C304.487 622.4 298.487 621.8 292.387 621.1ZM327.087 595.3C324.487 591.8 321.887 588.2 319.387 584.5C313.687 583.8 307.987 583.1 302.287 582.2C306.487 580.7 310.687 579.2 314.887 577.7C312.487 574 310.187 570.3 307.987 566.5C312.787 569.4 317.687 572.1 322.587 574.8C326.687 573.3 330.887 571.7 334.987 570.1C333.887 573.3 332.787 576.5 331.787 579.7C336.787 582.3 341.787 584.8 346.887 587.2C341.287 586.7 335.587 586.2 329.987 585.6C328.887 588.9 327.987 592.1 327.087 595.3ZM337.387 627.7C345.287 619.4 353.287 611 361.187 602.7C596.087 701.1 912.987 625.6 1016.89 328.9L1021.49 331.1C921.687 643.4 588.487 729.4 337.387 627.7ZM1051.69 319.8L1013.19 301.2L1013.39 300.6C1015.79 291 1018.29 281.4 1020.69 272.3C1051.39 156.2 1074.79 105.4 1088.99 83.1999C1095.89 72.4999 1099.59 70.1999 1099.79 70.0999L1100.19 69.7999L1102.99 71.7999L1173.69 105.3V105.8C1174.19 121 1163.89 147.3 1143.09 183.9C1109.49 242.9 1058.69 310.7 1052.99 318.2L1051.69 319.8Z" fill="#FDC633"/>
<path d="M526.387 332.4C525.287 330.4 523.787 328.6 522.087 327.1C520.387 325.6 518.587 324.3 516.787 323.1C514.987 321.9 513.187 320.8 511.287 319.7C503.887 315.4 496.387 311.4 488.787 307.4L477.487 301.5C473.587 299.6 469.787 297.8 465.987 295.9C450.587 288.6 435.087 281.5 419.387 274.9C415.487 273.3 411.487 271.7 407.487 270.2C405.487 269.5 403.487 268.7 401.387 268.1C399.487 267.5 397.587 267.1 395.687 266.8C396.687 265.3 397.687 263.8 398.787 262.4C400.087 260.8 401.587 259.3 403.187 258.2C404.787 257.1 406.587 256.4 408.587 256.2C410.587 256 412.587 256.1 414.787 256.3C416.987 256.4 419.187 256.5 421.387 256.5C425.787 256.5 430.187 256.3 434.587 255.9C443.387 255 451.987 253.2 460.487 250.6C464.687 249.2 468.787 247.7 472.887 245.9C474.887 245 476.887 244.1 478.887 243.1C480.887 242.1 482.787 241 484.587 240.2C485.487 239.8 486.387 239.5 487.287 239.3C488.187 239.1 489.187 239 490.187 239C492.287 238.9 494.487 239 496.587 239C500.887 239.1 505.187 239.3 509.487 239.5C526.687 240.7 543.787 244 560.387 249C544.287 242.4 527.187 238.2 509.787 236.4C505.387 235.9 501.087 235.6 496.687 235.5C494.487 235.4 492.387 235.4 490.087 235.4C488.987 235.4 487.787 235.5 486.587 235.7C485.387 235.9 484.187 236.3 483.087 236.7C481.987 237.1 480.987 237.6 479.987 238.2C478.987 238.7 478.087 239.2 477.087 239.6C475.187 240.6 473.187 241.4 471.287 242.3C467.387 244 463.287 245.4 459.287 246.7C451.187 249.3 442.787 251.1 434.287 252.1C430.087 252.6 425.787 252.9 421.487 253C419.387 253.1 417.187 253 415.087 253C412.887 252.9 410.687 252.8 408.287 253.2C405.887 253.5 403.487 254.5 401.687 255.9C399.787 257.3 398.187 259 396.887 260.8C395.587 262.6 394.387 264.5 393.387 266.4C392.987 267.2 392.587 268 392.187 268.9C391.587 270.1 391.087 271.3 390.587 272.5C387.387 280.8 386.087 289.5 385.787 298.2C386.887 289.6 388.787 281.1 392.387 273.3C392.987 272 393.687 270.7 394.387 269.5C394.487 269.5 394.587 269.5 394.687 269.6C396.687 270.1 398.787 270.5 400.787 271.1C402.787 271.7 404.787 272.4 406.787 273.1C410.787 274.6 414.687 276.2 418.587 277.8C434.287 284.4 449.687 291.5 465.087 298.7C468.887 300.5 472.787 302.3 476.487 304.2L487.787 310.1C495.287 314.1 502.787 318.1 510.087 322.3C511.887 323.4 513.687 324.5 515.387 325.6C517.087 326.8 518.787 328 520.287 329.3C521.787 330.7 522.987 332.2 523.987 333.9C524.487 334.8 524.887 335.6 525.187 336.6C525.487 337.5 525.687 338.5 525.887 339.5C526.787 343.4 526.687 347.6 525.787 351.7C525.387 353.7 524.787 355.8 524.087 357.8C523.387 359.8 522.687 361.8 521.887 363.8C523.987 360.1 525.987 356.3 527.387 352.2C528.787 348.1 529.487 343.6 528.887 339.1C528.287 336.7 527.487 334.5 526.387 332.4Z" fill="#FDC633"/>
</svg>
