<svg width="12" height="12" viewBox="0 0 12 12" fill="none" xmlns="http://www.w3.org/2000/svg">
<path d="M5.0625 1.78125H5.625C5.64986 1.78125 5.67371 1.77137 5.69129 1.75379C5.70887 1.73621 5.71875 1.71236 5.71875 1.6875C5.71875 1.66264 5.70887 1.63879 5.69129 1.62121C5.67371 1.60363 5.64986 1.59375 5.625 1.59375H5.0625C5.03764 1.59375 5.01379 1.60363 4.99621 1.62121C4.97863 1.63879 4.96875 1.66264 4.96875 1.6875C4.96875 1.71236 4.97863 1.73621 4.99621 1.75379C5.01379 1.77137 5.03764 1.78125 5.0625 1.78125Z" fill="#565966"/>
<path d="M6 1.78125H6.9375C6.96236 1.78125 6.98621 1.77137 7.00379 1.75379C7.02137 1.73621 7.03125 1.71236 7.03125 1.6875C7.03125 1.66264 7.02137 1.63879 7.00379 1.62121C6.98621 1.60363 6.96236 1.59375 6.9375 1.59375H6C5.97514 1.59375 5.95129 1.60363 5.93371 1.62121C5.91613 1.63879 5.90625 1.66264 5.90625 1.6875C5.90625 1.71236 5.91613 1.73621 5.93371 1.75379C5.95129 1.77137 5.97514 1.78125 6 1.78125Z" fill="#565966"/>
<path d="M3.1875 9.9375C3.29105 9.9375 3.375 9.85355 3.375 9.75C3.375 9.64645 3.29105 9.5625 3.1875 9.5625C3.08395 9.5625 3 9.64645 3 9.75C3 9.85355 3.08395 9.9375 3.1875 9.9375Z" fill="#565966"/>
<path d="M3.1875 3.75C3.29105 3.75 3.375 3.66605 3.375 3.5625C3.375 3.45895 3.29105 3.375 3.1875 3.375C3.08395 3.375 3 3.45895 3 3.5625C3 3.66605 3.08395 3.75 3.1875 3.75Z" fill="#565966"/>
<path d="M3.1875 5.8125C3.29105 5.8125 3.375 5.72855 3.375 5.625C3.375 5.52145 3.29105 5.4375 3.1875 5.4375C3.08395 5.4375 3 5.52145 3 5.625C3 5.72855 3.08395 5.8125 3.1875 5.8125Z" fill="#565966"/>
<path d="M3.1875 7.875C3.29105 7.875 3.375 7.79105 3.375 7.6875C3.375 7.58395 3.29105 7.5 3.1875 7.5C3.08395 7.5 3 7.58395 3 7.6875C3 7.79105 3.08395 7.875 3.1875 7.875Z" fill="#565966"/>
<path d="M2.625 11.6133H9.375C9.52103 11.6131 9.66102 11.555 9.76428 11.4518C9.86754 11.3485 9.92562 11.2085 9.92578 11.0625V0.9375C9.92562 0.791474 9.86754 0.651477 9.76428 0.548221C9.66102 0.444965 9.52103 0.386883 9.375 0.386719H2.625C2.47897 0.386883 2.33898 0.444965 2.23572 0.548221C2.13246 0.651477 2.07438 0.791474 2.07422 0.9375V11.0625C2.07438 11.2085 2.13246 11.3485 2.23572 11.4518C2.33898 11.555 2.47897 11.6131 2.625 11.6133ZM6 10.0312H5.4375C5.41264 10.0312 5.38879 10.0214 5.37121 10.0038C5.35363 9.98621 5.34375 9.96236 5.34375 9.9375C5.34375 9.91264 5.35363 9.88879 5.37121 9.87121C5.38879 9.85363 5.41264 9.84375 5.4375 9.84375H6C6.02486 9.84375 6.04871 9.85363 6.06629 9.87121C6.08387 9.88879 6.09375 9.91264 6.09375 9.9375C6.09375 9.96236 6.08387 9.98621 6.06629 10.0038C6.04871 10.0214 6.02486 10.0312 6 10.0312ZM5.34375 7.875C5.34375 7.85014 5.35363 7.82629 5.37121 7.80871C5.38879 7.79113 5.41264 7.78125 5.4375 7.78125H6.5625C6.58736 7.78125 6.61121 7.79113 6.62879 7.80871C6.64637 7.82629 6.65625 7.85014 6.65625 7.875C6.65625 7.89986 6.64637 7.92371 6.62879 7.94129C6.61121 7.95887 6.58736 7.96875 6.5625 7.96875H5.4375C5.41264 7.96875 5.38879 7.95887 5.37121 7.94129C5.35363 7.92371 5.34375 7.89986 5.34375 7.875ZM6.1875 9.65625H5.625C5.60014 9.65625 5.57629 9.64637 5.55871 9.62879C5.54113 9.61121 5.53125 9.58736 5.53125 9.5625C5.53125 9.53764 5.54113 9.51379 5.55871 9.49621C5.57629 9.47863 5.60014 9.46875 5.625 9.46875H6.1875C6.21236 9.46875 6.23621 9.47863 6.25379 9.49621C6.27137 9.51379 6.28125 9.53764 6.28125 9.5625C6.28125 9.58736 6.27137 9.61121 6.25379 9.62879C6.23621 9.64637 6.21236 9.65625 6.1875 9.65625ZM7.28936 9.66646L7.16106 9.75966L7.21008 9.91049C7.21619 9.92932 7.21619 9.9496 7.21008 9.96843C7.20396 9.98726 7.19204 10.0037 7.17602 10.0153C7.16001 10.0269 7.14072 10.0332 7.12092 10.0332C7.10112 10.0332 7.08183 10.027 7.06581 10.0153L6.9375 9.9221L6.80919 10.0153C6.79317 10.027 6.77388 10.0332 6.75408 10.0332C6.73428 10.0332 6.71499 10.027 6.69897 10.0153C6.68296 10.0037 6.67104 9.98727 6.66492 9.96844C6.6588 9.9496 6.6588 9.92932 6.66492 9.91049L6.71394 9.75966L6.58564 9.66646C6.56962 9.65482 6.5577 9.63841 6.55158 9.61958C6.54546 9.60075 6.54546 9.58047 6.55158 9.56164C6.5577 9.54281 6.56962 9.5264 6.58564 9.51476C6.60165 9.50313 6.62094 9.49686 6.64074 9.49686H6.79932L6.84834 9.34602C6.85446 9.3272 6.86638 9.31079 6.8824 9.29915C6.89841 9.28752 6.9177 9.28125 6.9375 9.28125C6.9573 9.28125 6.97659 9.28752 6.9926 9.29915C7.00862 9.31079 7.02054 9.3272 7.02666 9.34602L7.07568 9.49686H7.23426C7.25406 9.49686 7.27335 9.50313 7.28936 9.51476C7.30538 9.5264 7.3173 9.54281 7.32342 9.56164C7.32954 9.58047 7.32954 9.60075 7.32342 9.61958C7.3173 9.63841 7.30538 9.65482 7.28936 9.66646ZM7.3125 7.59375H6.375C6.35014 7.59375 6.32629 7.58387 6.30871 7.56629C6.29113 7.54871 6.28125 7.52486 6.28125 7.5C6.28125 7.47514 6.29113 7.45129 6.30871 7.43371C6.32629 7.41613 6.35014 7.40625 6.375 7.40625H7.3125C7.33736 7.40625 7.36121 7.41613 7.37879 7.43371C7.39637 7.45129 7.40625 7.47514 7.40625 7.5C7.40625 7.52486 7.39637 7.54871 7.37879 7.56629C7.36121 7.58387 7.33736 7.59375 7.3125 7.59375ZM5.4375 5.34375H7.125C7.14986 5.34375 7.17371 5.35363 7.19129 5.37121C7.20887 5.38879 7.21875 5.41264 7.21875 5.4375C7.21875 5.46236 7.20887 5.48621 7.19129 5.50379C7.17371 5.52137 7.14986 5.53125 7.125 5.53125H5.4375C5.41264 5.53125 5.38879 5.52137 5.37121 5.50379C5.35363 5.48621 5.34375 5.46236 5.34375 5.4375C5.34375 5.41264 5.35363 5.38879 5.37121 5.37121C5.38879 5.35363 5.41264 5.34375 5.4375 5.34375ZM5.25 3.84375C5.22514 3.84375 5.20129 3.83387 5.18371 3.81629C5.16613 3.79871 5.15625 3.77486 5.15625 3.75C5.15625 3.72514 5.16613 3.70129 5.18371 3.68371C5.20129 3.66613 5.22514 3.65625 5.25 3.65625H6.9375C6.96236 3.65625 6.98621 3.66613 7.00379 3.68371C7.02137 3.70129 7.03125 3.72514 7.03125 3.75C7.03125 3.77486 7.02137 3.79871 7.00379 3.81629C6.98621 3.83387 6.96236 3.84375 6.9375 3.84375H5.25ZM8.22686 9.66646L8.09856 9.75966L8.14758 9.91049C8.15369 9.92932 8.15369 9.9496 8.14758 9.96843C8.14146 9.98726 8.12954 10.0037 8.11352 10.0153C8.09751 10.0269 8.07822 10.0332 8.05842 10.0332C8.03862 10.0332 8.01933 10.027 8.00331 10.0153L7.875 9.9221L7.74669 10.0153C7.73067 10.027 7.71138 10.0332 7.69158 10.0332C7.67178 10.0332 7.65249 10.027 7.63647 10.0153C7.62046 10.0037 7.60854 9.98727 7.60242 9.96844C7.5963 9.9496 7.5963 9.92932 7.60242 9.91049L7.65144 9.75966L7.52314 9.66646C7.50712 9.65482 7.4952 9.63841 7.48908 9.61958C7.48296 9.60075 7.48296 9.58047 7.48908 9.56164C7.4952 9.54281 7.50712 9.5264 7.52314 9.51476C7.53915 9.50313 7.55844 9.49686 7.57824 9.49686H7.73682L7.78584 9.34602C7.79196 9.3272 7.80388 9.31079 7.8199 9.29915C7.83591 9.28752 7.8552 9.28125 7.875 9.28125C7.8948 9.28125 7.91409 9.28752 7.9301 9.29915C7.94612 9.31079 7.95804 9.3272 7.96416 9.34602L8.01318 9.49686H8.17176C8.19156 9.49686 8.21085 9.50313 8.22686 9.51476C8.24288 9.5264 8.2548 9.54281 8.26092 9.56164C8.26704 9.58047 8.26704 9.60075 8.26092 9.61958C8.2548 9.63841 8.24288 9.65482 8.22686 9.66646ZM8.22686 7.60199L8.09856 7.69519L8.14758 7.84602C8.15369 7.86485 8.15369 7.88514 8.14758 7.90396C8.14146 7.92279 8.12954 7.9392 8.11352 7.95084C8.09751 7.96248 8.07822 7.96875 8.05842 7.96875C8.03862 7.96875 8.01933 7.96249 8.00331 7.95085L7.875 7.85763L7.74669 7.95085C7.73067 7.96249 7.71138 7.96876 7.69158 7.96875C7.67178 7.96875 7.65249 7.96248 7.63648 7.95085C7.62046 7.93921 7.60854 7.9228 7.60242 7.90397C7.5963 7.88514 7.5963 7.86485 7.60242 7.84602L7.65144 7.69519L7.52314 7.60199C7.50712 7.59035 7.4952 7.57394 7.48908 7.55511C7.48296 7.53628 7.48296 7.516 7.48908 7.49717C7.4952 7.47834 7.50712 7.46193 7.52314 7.45029C7.53915 7.43866 7.55844 7.43239 7.57824 7.43239H7.73682L7.78584 7.28156C7.79196 7.26273 7.80388 7.24632 7.8199 7.23468C7.83591 7.22305 7.8552 7.21678 7.875 7.21678C7.8948 7.21678 7.91409 7.22305 7.9301 7.23468C7.94612 7.24632 7.95804 7.26273 7.96416 7.28156L8.01318 7.43239H8.17176C8.19156 7.43239 8.21085 7.43866 8.22686 7.45029C8.24288 7.46193 8.2548 7.47834 8.26092 7.49717C8.26704 7.516 8.26704 7.53628 8.26092 7.55511C8.2548 7.57394 8.24288 7.59035 8.22686 7.60199ZM8.42658 3.3682C8.4327 3.34938 8.44463 3.33297 8.46064 3.32134C8.47666 3.3097 8.49595 3.30343 8.51574 3.30343H8.67432L8.72334 3.1526C8.72946 3.13377 8.74138 3.11736 8.7574 3.10573C8.77341 3.09409 8.7927 3.08782 8.8125 3.08782C8.8323 3.08782 8.85159 3.09409 8.8676 3.10573C8.88362 3.11736 8.89554 3.13377 8.90166 3.1526L8.95068 3.30343H9.10926C9.12906 3.30343 9.14835 3.3097 9.16436 3.32134C9.18038 3.33297 9.1923 3.34938 9.19842 3.36821C9.20454 3.38704 9.20454 3.40733 9.19842 3.42616C9.1923 3.44499 9.18038 3.46139 9.16436 3.47303L9.03606 3.56623L9.08508 3.71706C9.09119 3.73589 9.09119 3.75618 9.08508 3.77501C9.07896 3.79383 9.06704 3.81024 9.05102 3.82188C9.03501 3.83352 9.01572 3.83979 8.99592 3.83979C8.97612 3.83979 8.95683 3.83353 8.94081 3.82189L8.8125 3.72867L8.68419 3.82189C8.66817 3.83353 8.64888 3.8398 8.62908 3.8398C8.60928 3.83979 8.58999 3.83352 8.57397 3.82189C8.55796 3.81025 8.54604 3.79384 8.53992 3.77501C8.5338 3.75618 8.5338 3.73589 8.53992 3.71706L8.58894 3.56623L8.46064 3.47303C8.44462 3.46139 8.4327 3.44498 8.42658 3.42615C8.42046 3.40732 8.42046 3.38703 8.42658 3.3682ZM8.42658 5.4327C8.4327 5.41387 8.44463 5.39746 8.46064 5.38583C8.47666 5.37419 8.49595 5.36792 8.51574 5.36792H8.67432L8.72334 5.21707C8.72946 5.19824 8.74138 5.18183 8.7574 5.1702C8.77341 5.15856 8.7927 5.15229 8.8125 5.15229C8.8323 5.15229 8.85159 5.15856 8.8676 5.1702C8.88362 5.18183 8.89554 5.19824 8.90166 5.21707L8.95068 5.36792H9.10926C9.12906 5.36792 9.14835 5.37419 9.16436 5.38583C9.18038 5.39747 9.1923 5.41387 9.19842 5.4327C9.20454 5.45153 9.20454 5.47182 9.19842 5.49065C9.1923 5.50948 9.18038 5.52589 9.16436 5.53752L9.03606 5.63072L9.08508 5.78156C9.09119 5.80039 9.09119 5.82067 9.08508 5.8395C9.07896 5.85833 9.06704 5.87474 9.05102 5.88637C9.03501 5.89801 9.01572 5.90428 8.99592 5.90428C8.97612 5.90429 8.95683 5.89802 8.94081 5.88638L8.8125 5.79316L8.68419 5.88638C8.66817 5.89802 8.64888 5.90429 8.62908 5.90429C8.60928 5.90429 8.58999 5.89802 8.57397 5.88638C8.55796 5.87474 8.54604 5.85833 8.53992 5.8395C8.5338 5.82067 8.5338 5.80038 8.53992 5.78156L8.58894 5.63072L8.46064 5.53752C8.44462 5.52588 8.4327 5.50947 8.42658 5.49064C8.42046 5.47181 8.42046 5.45152 8.42658 5.43269V5.4327ZM8.42658 7.49716C8.4327 7.47834 8.44463 7.46193 8.46064 7.4503C8.47666 7.43866 8.49595 7.43239 8.51574 7.43239H8.67432L8.72334 7.28156C8.72946 7.26273 8.74138 7.24632 8.7574 7.23469C8.77341 7.22305 8.7927 7.21678 8.8125 7.21678C8.8323 7.21678 8.85159 7.22305 8.8676 7.23469C8.88362 7.24632 8.89554 7.26273 8.90166 7.28156L8.95068 7.43239H9.10926C9.12906 7.43239 9.14835 7.43866 9.16436 7.4503C9.18038 7.46193 9.1923 7.47834 9.19842 7.49717C9.20454 7.516 9.20454 7.53629 9.19842 7.55512C9.1923 7.57395 9.18038 7.59035 9.16436 7.60199L9.03606 7.69519L9.08508 7.84603C9.09119 7.86485 9.09119 7.88514 9.08508 7.90397C9.07896 7.9228 9.06704 7.93921 9.05102 7.95084C9.03501 7.96248 9.01572 7.96875 8.99592 7.96875C8.97612 7.96875 8.95683 7.96249 8.94081 7.95085L8.8125 7.85763L8.68419 7.95085C8.66817 7.96249 8.64888 7.96876 8.62908 7.96875C8.60928 7.96875 8.58999 7.96248 8.57398 7.95085C8.55796 7.93921 8.54604 7.9228 8.53992 7.90397C8.5338 7.88514 8.5338 7.86485 8.53992 7.84602L8.58894 7.69519L8.46064 7.60199C8.44462 7.59035 8.4327 7.57394 8.42658 7.55511C8.42046 7.53628 8.42046 7.51599 8.42658 7.49716V7.49716ZM8.42658 9.56163C8.4327 9.54281 8.44463 9.5264 8.46064 9.51476C8.47666 9.50313 8.49595 9.49686 8.51574 9.49686H8.67432L8.72334 9.34603C8.72946 9.3272 8.74138 9.31079 8.7574 9.29916C8.77341 9.28752 8.7927 9.28125 8.8125 9.28125C8.8323 9.28125 8.85159 9.28752 8.8676 9.29916C8.88362 9.31079 8.89554 9.3272 8.90166 9.34603L8.95068 9.49686H9.10926C9.12906 9.49686 9.14835 9.50313 9.16436 9.51476C9.18038 9.5264 9.1923 9.54281 9.19842 9.56164C9.20454 9.58047 9.20454 9.60076 9.19842 9.61959C9.1923 9.63842 9.18038 9.65482 9.16436 9.66646L9.03606 9.75966L9.08508 9.91049C9.09119 9.92932 9.09119 9.94961 9.08508 9.96844C9.07896 9.98726 9.06704 10.0037 9.05102 10.0153C9.03501 10.0269 9.01572 10.0332 8.99592 10.0332C8.97612 10.0332 8.95683 10.027 8.94081 10.0153L8.8125 9.9221L8.68419 10.0153C8.66817 10.027 8.64888 10.0332 8.62908 10.0332C8.60928 10.0332 8.58999 10.027 8.57397 10.0153C8.55796 10.0037 8.54604 9.98727 8.53992 9.96844C8.5338 9.9496 8.5338 9.92932 8.53992 9.91049L8.58894 9.75966L8.46064 9.66646C8.44462 9.65482 8.4327 9.63841 8.42658 9.61958C8.42046 9.60075 8.42046 9.58046 8.42658 9.56163V9.56163ZM7.78584 5.21706C7.79196 5.19824 7.80388 5.18183 7.8199 5.17019C7.83591 5.15856 7.8552 5.15229 7.875 5.15229C7.8948 5.15229 7.91409 5.15856 7.9301 5.17019C7.94612 5.18183 7.95804 5.19824 7.96416 5.21706L8.01318 5.36792H8.17176C8.19156 5.36792 8.21085 5.37419 8.22686 5.38583C8.24288 5.39746 8.2548 5.41387 8.26092 5.4327C8.26704 5.45153 8.26704 5.47182 8.26092 5.49065C8.2548 5.50948 8.24288 5.52588 8.22686 5.53752L8.09856 5.63072L8.14758 5.78156C8.15369 5.80038 8.15369 5.82067 8.14758 5.8395C8.14146 5.85833 8.12954 5.87473 8.11352 5.88637C8.09751 5.89801 8.07822 5.90428 8.05842 5.90428C8.03862 5.90428 8.01933 5.89802 8.00331 5.88638L7.875 5.79316L7.74669 5.88638C7.73067 5.89802 7.71138 5.90429 7.69158 5.90429C7.67178 5.90429 7.65249 5.89802 7.63647 5.88638C7.62046 5.87474 7.60854 5.85833 7.60242 5.8395C7.5963 5.82067 7.5963 5.80038 7.60242 5.78156L7.65144 5.63072L7.52314 5.53752C7.50712 5.52588 7.4952 5.50948 7.48908 5.49065C7.48296 5.47182 7.48296 5.45153 7.48908 5.4327C7.4952 5.41387 7.50712 5.39746 7.52314 5.38583C7.53915 5.37419 7.55844 5.36792 7.57824 5.36792H7.73682L7.78584 5.21706ZM7.59375 3.375C7.59375 3.39986 7.58387 3.42371 7.56629 3.44129C7.54871 3.45887 7.52486 3.46875 7.5 3.46875H5.0625C5.03764 3.46875 5.01379 3.45887 4.99621 3.44129C4.97863 3.42371 4.96875 3.39986 4.96875 3.375C4.96875 3.35014 4.97863 3.32629 4.99621 3.30871C5.01379 3.29113 5.03764 3.28125 5.0625 3.28125H7.5C7.52486 3.28125 7.54871 3.29113 7.56629 3.30871C7.58387 3.32629 7.59375 3.35014 7.59375 3.375ZM5.0625 1.21875H6.9375C7.06182 1.21875 7.18105 1.26814 7.26896 1.35604C7.35686 1.44395 7.40625 1.56318 7.40625 1.6875C7.40625 1.81182 7.35686 1.93105 7.26896 2.01896C7.18105 2.10686 7.06182 2.15625 6.9375 2.15625H5.0625C4.93818 2.15625 4.81895 2.10686 4.73104 2.01896C4.64314 1.93105 4.59375 1.81182 4.59375 1.6875C4.59375 1.56318 4.64314 1.44395 4.73104 1.35604C4.81895 1.26814 4.93818 1.21875 5.0625 1.21875ZM4.125 3.28125H4.5C4.52486 3.28125 4.54871 3.29113 4.56629 3.30871C4.58387 3.32629 4.59375 3.35014 4.59375 3.375C4.59375 3.39986 4.58387 3.42371 4.56629 3.44129C4.54871 3.45887 4.52486 3.46875 4.5 3.46875H4.125C4.10014 3.46875 4.07629 3.45887 4.05871 3.44129C4.04113 3.42371 4.03125 3.39986 4.03125 3.375C4.03125 3.35014 4.04113 3.32629 4.05871 3.30871C4.07629 3.29113 4.10014 3.28125 4.125 3.28125ZM4.125 3.65625H4.875C4.89986 3.65625 4.92371 3.66613 4.94129 3.68371C4.95887 3.70129 4.96875 3.72514 4.96875 3.75C4.96875 3.77486 4.95887 3.79871 4.94129 3.81629C4.92371 3.83387 4.89986 3.84375 4.875 3.84375H4.125C4.10014 3.84375 4.07629 3.83387 4.05871 3.81629C4.04113 3.79871 4.03125 3.77486 4.03125 3.75C4.03125 3.72514 4.04113 3.70129 4.05871 3.68371C4.07629 3.66613 4.10014 3.65625 4.125 3.65625ZM4.125 5.34375H4.875C4.89986 5.34375 4.92371 5.35363 4.94129 5.37121C4.95887 5.38879 4.96875 5.41264 4.96875 5.4375C4.96875 5.46236 4.95887 5.48621 4.94129 5.50379C4.92371 5.52137 4.89986 5.53125 4.875 5.53125H4.125C4.10014 5.53125 4.07629 5.52137 4.05871 5.50379C4.04113 5.48621 4.03125 5.46236 4.03125 5.4375C4.03125 5.41264 4.04113 5.38879 4.05871 5.37121C4.07629 5.35363 4.10014 5.34375 4.125 5.34375ZM4.125 5.71875H6.75C6.77486 5.71875 6.79871 5.72863 6.81629 5.74621C6.83387 5.76379 6.84375 5.78764 6.84375 5.8125C6.84375 5.83736 6.83387 5.86121 6.81629 5.87879C6.79871 5.89637 6.77486 5.90625 6.75 5.90625H4.125C4.10014 5.90625 4.07629 5.89637 4.05871 5.87879C4.04113 5.86121 4.03125 5.83736 4.03125 5.8125C4.03125 5.78764 4.04113 5.76379 4.05871 5.74621C4.07629 5.72863 4.10014 5.71875 4.125 5.71875ZM4.125 7.40625H5.8125C5.83736 7.40625 5.86121 7.41613 5.87879 7.43371C5.89637 7.45129 5.90625 7.47514 5.90625 7.5C5.90625 7.52486 5.89637 7.54871 5.87879 7.56629C5.86121 7.58387 5.83736 7.59375 5.8125 7.59375H4.125C4.10014 7.59375 4.07629 7.58387 4.05871 7.56629C4.04113 7.54871 4.03125 7.52486 4.03125 7.5C4.03125 7.47514 4.04113 7.45129 4.05871 7.43371C4.07629 7.41613 4.10014 7.40625 4.125 7.40625ZM4.125 7.78125H4.875C4.89986 7.78125 4.92371 7.79113 4.94129 7.80871C4.95887 7.82629 4.96875 7.85014 4.96875 7.875C4.96875 7.89986 4.95887 7.92371 4.94129 7.94129C4.92371 7.95887 4.89986 7.96875 4.875 7.96875H4.125C4.10014 7.96875 4.07629 7.95887 4.05871 7.94129C4.04113 7.92371 4.03125 7.89986 4.03125 7.875C4.03125 7.85014 4.04113 7.82629 4.05871 7.80871C4.07629 7.79113 4.10014 7.78125 4.125 7.78125ZM4.125 9.46875H5.25C5.27486 9.46875 5.29871 9.47863 5.31629 9.49621C5.33387 9.51379 5.34375 9.53764 5.34375 9.5625C5.34375 9.58736 5.33387 9.61121 5.31629 9.62879C5.29871 9.64637 5.27486 9.65625 5.25 9.65625H4.125C4.10014 9.65625 4.07629 9.64637 4.05871 9.62879C4.04113 9.61121 4.03125 9.58736 4.03125 9.5625C4.03125 9.53764 4.04113 9.51379 4.05871 9.49621C4.07629 9.47863 4.10014 9.46875 4.125 9.46875ZM4.125 9.84375H4.875C4.89986 9.84375 4.92371 9.85363 4.94129 9.87121C4.95887 9.88879 4.96875 9.91264 4.96875 9.9375C4.96875 9.96236 4.95887 9.98621 4.94129 10.0038C4.92371 10.0214 4.89986 10.0312 4.875 10.0312H4.125C4.10014 10.0312 4.07629 10.0214 4.05871 10.0038C4.04113 9.98621 4.03125 9.96236 4.03125 9.9375C4.03125 9.91264 4.04113 9.88879 4.05871 9.87121C4.07629 9.85363 4.10014 9.84375 4.125 9.84375ZM3.1875 3.09375C3.28021 3.09375 3.37084 3.12124 3.44792 3.17275C3.52501 3.22426 3.58509 3.29746 3.62057 3.38312C3.65605 3.46877 3.66533 3.56302 3.64724 3.65395C3.62916 3.74488 3.58451 3.8284 3.51896 3.89396C3.4534 3.95951 3.36988 4.00416 3.27895 4.02224C3.18802 4.04033 3.09377 4.03105 3.00812 3.99557C2.92246 3.96009 2.84926 3.90001 2.79775 3.82292C2.74624 3.74584 2.71875 3.65521 2.71875 3.5625C2.71889 3.43822 2.76832 3.31908 2.8562 3.2312C2.94408 3.14332 3.06322 3.09389 3.1875 3.09375ZM3.1875 5.15625C3.28021 5.15625 3.37084 5.18374 3.44792 5.23525C3.52501 5.28676 3.58509 5.35996 3.62057 5.44562C3.65605 5.53127 3.66533 5.62552 3.64724 5.71645C3.62916 5.80738 3.58451 5.8909 3.51896 5.95646C3.4534 6.02201 3.36988 6.06666 3.27895 6.08474C3.18802 6.10283 3.09377 6.09355 3.00812 6.05807C2.92246 6.02259 2.84926 5.96251 2.79775 5.88542C2.74624 5.80834 2.71875 5.71771 2.71875 5.625C2.71889 5.50072 2.76832 5.38158 2.8562 5.2937C2.94408 5.20582 3.06322 5.15639 3.1875 5.15625ZM3.1875 7.21875C3.28021 7.21875 3.37084 7.24624 3.44792 7.29775C3.52501 7.34926 3.58509 7.42246 3.62057 7.50812C3.65605 7.59377 3.66533 7.68802 3.64724 7.77895C3.62916 7.86988 3.58451 7.9534 3.51896 8.01896C3.4534 8.08451 3.36988 8.12916 3.27895 8.14724C3.18802 8.16533 3.09377 8.15605 3.00812 8.12057C2.92246 8.08509 2.84926 8.02501 2.79775 7.94792C2.74624 7.87084 2.71875 7.78021 2.71875 7.6875C2.71889 7.56322 2.76832 7.44408 2.8562 7.3562C2.94408 7.26832 3.06322 7.21889 3.1875 7.21875ZM3.1875 9.28125C3.28021 9.28125 3.37084 9.30874 3.44792 9.36025C3.52501 9.41176 3.58509 9.48496 3.62057 9.57062C3.65605 9.65627 3.66533 9.75052 3.64724 9.84145C3.62916 9.93238 3.58451 10.0159 3.51896 10.0815C3.4534 10.147 3.36988 10.1917 3.27895 10.2097C3.18802 10.2278 3.09377 10.2185 3.00812 10.1831C2.92246 10.1476 2.84926 10.0875 2.79775 10.0104C2.74624 9.93334 2.71875 9.84271 2.71875 9.75C2.71889 9.62572 2.76832 9.50658 2.8562 9.4187C2.94408 9.33082 3.06322 9.28139 3.1875 9.28125Z" fill="#565966"/>
</svg>
