<svg width="12" height="12" viewBox="0 0 12 12" fill="none" xmlns="http://www.w3.org/2000/svg">
<g clip-path="url(#clip0)">
<path d="M10.7145 1.28571H9.42882V0.428579C9.42882 0.191878 9.23694 0 9.00024 0C8.76354 0 8.57166 0.191878 8.57166 0.428579V1.28571H3.4288V0.428579C3.4288 0.191878 3.23693 0 3.00025 0C2.76357 0 2.57167 0.191878 2.57167 0.428579V1.28571H1.28596C0.575877 1.28571 0.000244141 1.86135 0.000244141 2.57143V10.7143C0.000244141 11.4244 0.575877 12 1.28596 12H10.7145C11.4246 12 12.0002 11.4244 12.0002 10.7143V2.57143C12.0002 1.86135 11.4246 1.28571 10.7145 1.28571ZM11.1431 10.7143C11.1431 10.951 10.9512 11.1429 10.7145 11.1429H1.28596C1.04926 11.1429 0.857378 10.951 0.857378 10.7143V5.14285H11.1431V10.7143ZM11.1431 4.28572H0.857378V2.57143C0.857378 2.33472 1.04926 2.14285 1.28596 2.14285H2.57167V2.99998C2.57167 3.23668 2.76355 3.42856 3.00025 3.42856C3.23695 3.42856 3.42883 3.23668 3.42883 2.99998V2.14285H8.57168V2.99998C8.57168 3.23668 8.76356 3.42856 9.00026 3.42856C9.23697 3.42856 9.42884 3.23668 9.42884 2.99998V2.14285H10.7146C10.9513 2.14285 11.1431 2.33472 11.1431 2.57143V4.28572H11.1431Z" fill="#565966"/>
<path d="M8.86401 6.12544C8.69792 5.96502 8.43463 5.96502 8.26856 6.12544L5.14297 9.251L3.73167 7.8397C3.56142 7.67527 3.29011 7.67999 3.12568 7.85023C2.96527 8.01631 2.96527 8.27961 3.12568 8.4457L4.83998 10.16C5.00734 10.3273 5.27863 10.3273 5.44597 10.16L8.87453 6.73143C9.03896 6.56117 9.03424 6.28987 8.86401 6.12544Z" fill="#565966"/>
</g>
<defs>
<clipPath id="clip0">
<rect width="12" height="12" fill="white" transform="translate(0.000244141)"/>
</clipPath>
</defs>
</svg>
