<svg width="45" height="60" viewBox="0 0 45 60" fill="none" xmlns="http://www.w3.org/2000/svg">
<path d="M21.443 59.5893C21.7244 59.8683 22.0946 60.0005 22.4648 60.0005C22.835 60.0005 23.2053 59.8683 23.4866 59.5893C24.3604 58.7524 44.9296 38.9432 44.9296 22.2765C44.9296 10.0005 34.8597 0.000488281 22.4648 0.000488281C10.0699 0.000488281 0 10.0005 0 22.2765C0 38.9432 20.5693 58.7524 21.443 59.5893ZM8.95927 22.2765C8.95927 14.8904 15.016 8.88447 22.4648 8.88447C29.9137 8.88447 35.9704 14.8904 35.9704 22.2765C35.9704 29.6628 29.9137 35.6686 22.4648 35.6686C15.016 35.6686 8.95927 29.6628 8.95927 22.2765Z" fill="#FFC730"/>
</svg>
