<svg width="60" height="60" viewBox="0 0 60 60" fill="none" xmlns="http://www.w3.org/2000/svg">
<path d="M59.7133 47.8957C59.5952 47.5487 59.3196 47.0133 59.1227 46.7059C57.8823 44.8223 51.2177 39.5775 47.8902 37.8623C45.9903 36.8809 44.5826 36.5537 43.539 36.8609C42.4168 37.1784 41.8261 37.7037 39.9458 40.0534C39.1879 40.9953 38.4101 41.8777 38.2034 42.0164C37.6914 42.3734 36.6873 42.661 35.9785 42.661C34.3345 42.6509 31.3517 41.5802 29.0579 40.1724C27.2761 39.0819 24.9923 37.1288 23.2399 35.1954C21.1725 32.925 19.7649 30.9223 18.6524 28.6619C17.2152 25.757 16.8509 23.9822 17.4514 22.6834C17.5991 22.3563 17.796 22.0094 17.8845 21.9001C17.9731 21.8012 18.8985 21.0377 19.9222 20.2048C21.9306 18.5988 22.2554 18.2319 22.6295 17.1314C23.102 15.7334 22.9741 14.3058 22.2456 12.8683C21.6844 11.7776 20.2176 9.3982 19.1545 7.86151C17.7467 5.83905 14.2421 1.51639 13.5431 0.931271C12.283 -0.09972 10.6687 -0.27829 8.88666 0.415859C7.00655 1.14954 3.48215 4.00484 1.97592 5.99766C0.617392 7.80203 0.0958072 9.08093 0.0169712 10.7664C-0.0518913 12.1543 0.0661981 12.7294 0.794699 14.5041C6.49461 28.4238 15 39.5379 26.6855 48.3617C32.789 52.9718 39.1189 56.4816 45.6851 58.881C49.5145 60.2788 51.1782 60.3481 53.1373 59.1982C53.9641 58.7024 56.0118 56.5906 57.1537 55.0539C59.0439 52.4959 59.7429 51.3162 59.9397 50.3743C60.0776 49.7299 59.9693 48.6096 59.7133 47.8957Z" fill="#FFC730"/>
</svg>
