<svg width="12" height="12" viewBox="0 0 12 12" fill="none" xmlns="http://www.w3.org/2000/svg">
<path d="M2.48438 12H9.51562C10.0972 12 10.5703 11.5269 10.5703 10.9453V3.51562H8.10938C7.5278 3.51562 7.05469 3.04252 7.05469 2.46094V0H2.48438C1.9028 0 1.42969 0.473109 1.42969 1.05469V10.9453C1.42969 11.5269 1.9028 12 2.48438 12ZM3.89062 4.94531H8.10938C8.3037 4.94531 8.46094 5.10255 8.46094 5.29688C8.46094 5.4912 8.3037 5.64844 8.10938 5.64844H3.89062C3.6963 5.64844 3.53906 5.4912 3.53906 5.29688C3.53906 5.10255 3.6963 4.94531 3.89062 4.94531ZM3.89062 6.35156H8.10938C8.3037 6.35156 8.46094 6.5088 8.46094 6.70312C8.46094 6.89745 8.3037 7.05469 8.10938 7.05469H3.89062C3.6963 7.05469 3.53906 6.89745 3.53906 6.70312C3.53906 6.5088 3.6963 6.35156 3.89062 6.35156ZM3.89062 7.75781H8.10938C8.3037 7.75781 8.46094 7.91505 8.46094 8.10938C8.46094 8.3037 8.3037 8.46094 8.10938 8.46094H3.89062C3.6963 8.46094 3.53906 8.3037 3.53906 8.10938C3.53906 7.91505 3.6963 7.75781 3.89062 7.75781ZM3.89062 9.16406H6.70312C6.89745 9.16406 7.05469 9.3213 7.05469 9.51562C7.05469 9.70995 6.89745 9.86719 6.70312 9.86719H3.89062C3.6963 9.86719 3.53906 9.70995 3.53906 9.51562C3.53906 9.3213 3.6963 9.16406 3.89062 9.16406Z" fill="#565966"/>
<path d="M8.10937 2.81244H10.3643L7.75781 0.205933V2.46088C7.75781 2.65485 7.91541 2.81244 8.10937 2.81244Z" fill="#565966"/>
</svg>
