<svg width="44" height="44" viewBox="0 0 44 44" fill="none" xmlns="http://www.w3.org/2000/svg">
<circle cx="22" cy="22" r="22" fill="#232323"/>
<path d="M33.2 21.561H29.088C28.9038 20.8831 28.5016 20.2847 27.9435 19.858C27.3854 19.4314 26.7025 19.2002 26 19.2002C25.2975 19.2002 24.6146 19.4314 24.0565 19.858C23.4984 20.2847 23.0962 20.8831 22.912 21.561H10.8C10.5878 21.561 10.3843 21.6453 10.2343 21.7953C10.0843 21.9453 10 22.1488 10 22.361C10 22.5732 10.0843 22.7767 10.2343 22.9267C10.3843 23.0767 10.5878 23.161 10.8 23.161H22.912C23.0962 23.8389 23.4984 24.4373 24.0565 24.864C24.6146 25.2906 25.2975 25.5218 26 25.5218C26.7025 25.5218 27.3854 25.2906 27.9435 24.864C28.5016 24.4373 28.9038 23.8389 29.088 23.161H33.2C33.4122 23.161 33.6157 23.0767 33.7657 22.9267C33.9157 22.7767 34 22.5732 34 22.361C34 22.1488 33.9157 21.9453 33.7657 21.7953C33.6157 21.6453 33.4122 21.561 33.2 21.561ZM26 23.961C25.6835 23.961 25.3742 23.8672 25.1111 23.6913C24.848 23.5155 24.6429 23.2657 24.5218 22.9733C24.4007 22.6809 24.369 22.3592 24.4307 22.0489C24.4925 21.7385 24.6449 21.4534 24.8686 21.2296C25.0924 21.0059 25.3775 20.8535 25.6879 20.7917C25.9982 20.73 26.3199 20.7617 26.6123 20.8828C26.9047 21.0039 27.1545 21.209 27.3304 21.4721C27.5062 21.7352 27.6 22.0445 27.6 22.361C27.6 22.7853 27.4314 23.1923 27.1314 23.4924C26.8313 23.7924 26.4243 23.961 26 23.961Z" fill="#FFC730"/>
<path d="M10.8 15.9608H13.312C13.4962 16.6387 13.8984 17.2371 14.4565 17.6638C15.0146 18.0904 15.6975 18.3216 16.4 18.3216C17.1025 18.3216 17.7854 18.0904 18.3435 17.6638C18.9016 17.2371 19.3038 16.6387 19.488 15.9608H33.2C33.4122 15.9608 33.6157 15.8765 33.7657 15.7265C33.9157 15.5765 34 15.373 34 15.1608C34 14.9486 33.9157 14.7451 33.7657 14.5951C33.6157 14.4451 33.4122 14.3608 33.2 14.3608H19.488C19.3038 13.6829 18.9016 13.0845 18.3435 12.6578C17.7854 12.2312 17.1025 12 16.4 12C15.6975 12 15.0146 12.2312 14.4565 12.6578C13.8984 13.0845 13.4962 13.6829 13.312 14.3608H10.8C10.5878 14.3608 10.3843 14.4451 10.2343 14.5951C10.0843 14.7451 10 14.9486 10 15.1608C10 15.373 10.0843 15.5765 10.2343 15.7265C10.3843 15.8765 10.5878 15.9608 10.8 15.9608ZM16.4 13.5608C16.7165 13.5608 17.0258 13.6546 17.2889 13.8304C17.552 14.0063 17.7571 14.2561 17.8782 14.5485C17.9993 14.8409 18.031 15.1626 17.9693 15.4729C17.9075 15.7833 17.7551 16.0684 17.5314 16.2922C17.3076 16.5159 17.0225 16.6683 16.7121 16.7301C16.4018 16.7918 16.0801 16.7601 15.7877 16.639C15.4953 16.5179 15.2455 16.3128 15.0696 16.0497C14.8938 15.7866 14.8 15.4773 14.8 15.1608C14.8 14.7365 14.9686 14.3295 15.2686 14.0294C15.5687 13.7294 15.9757 13.5608 16.4 13.5608Z" fill="#FFC730"/>
<path d="M33.2 28.7607H19.488C19.3038 28.0828 18.9016 27.4844 18.3435 27.0577C17.7854 26.6311 17.1025 26.3999 16.4 26.3999C15.6975 26.3999 15.0146 26.6311 14.4565 27.0577C13.8984 27.4844 13.4962 28.0828 13.312 28.7607H10.8C10.5878 28.7607 10.3843 28.845 10.2343 28.995C10.0843 29.145 10 29.3485 10 29.5607C10 29.7729 10.0843 29.9764 10.2343 30.1264C10.3843 30.2764 10.5878 30.3607 10.8 30.3607H13.312C13.4962 31.0386 13.8984 31.637 14.4565 32.0637C15.0146 32.4903 15.6975 32.7215 16.4 32.7215C17.1025 32.7215 17.7854 32.4903 18.3435 32.0637C18.9016 31.637 19.3038 31.0386 19.488 30.3607H33.2C33.4122 30.3607 33.6157 30.2764 33.7657 30.1264C33.9157 29.9764 34 29.7729 34 29.5607C34 29.3485 33.9157 29.145 33.7657 28.995C33.6157 28.845 33.4122 28.7607 33.2 28.7607ZM16.4 31.1607C16.0835 31.1607 15.7742 31.0669 15.5111 30.8911C15.248 30.7152 15.0429 30.4654 14.9218 30.173C14.8007 29.8806 14.769 29.5589 14.8307 29.2486C14.8925 28.9382 15.0449 28.6531 15.2686 28.4293C15.4924 28.2056 15.7775 28.0532 16.0879 27.9914C16.3982 27.9297 16.7199 27.9614 17.0123 28.0825C17.3047 28.2036 17.5545 28.4087 17.7304 28.6718C17.9062 28.9349 18 29.2443 18 29.5607C18 29.985 17.8314 30.392 17.5314 30.6921C17.2313 30.9921 16.8243 31.1607 16.4 31.1607Z" fill="#FFC730"/>
</svg>
