<svg width="12" height="12" viewBox="0 0 12 12" fill="none" xmlns="http://www.w3.org/2000/svg">
<path d="M7.125 2.25C7.125 2.04288 6.95712 1.875 6.75 1.875H3C2.79288 1.875 2.625 2.04288 2.625 2.25V5.25C2.625 5.45712 2.79288 5.625 3 5.625H6.75C6.95712 5.625 7.125 5.45712 7.125 5.25V2.25ZM6.375 4.875H3.375V2.625H6.375V4.875Z" fill="#565966"/>
<path d="M11.4267 2.65905L9.93115 1.90905C9.74548 1.81603 9.52287 1.89166 9.43022 2.07677C9.33757 2.26207 9.41377 2.4873 9.59906 2.57995L10.1686 2.86446C10.1534 2.90524 10.1337 2.94837 10.1337 2.99452C10.1337 3.48277 10.5 3.89512 10.875 4.0504V8.61952C10.875 8.82623 10.7067 8.99452 10.5 8.99452C10.2933 8.99452 10.125 8.82623 10.125 8.61952V5.61952C10.125 4.7141 9.375 3.95665 8.625 3.78241V1.49452C8.625 0.66743 7.96999 0 7.14291 0H2.64291C1.81582 0 1.125 0.66743 1.125 1.49452V9.8877L0.582281 10.1591C0.455203 10.2226 0.375 10.3524 0.375 10.4945V11.6195C0.375 11.8266 0.560812 12 0.767906 12H9.01791C9.225 12 9.375 11.8266 9.375 11.6195V10.4945C9.375 10.3524 9.2948 10.2226 9.16772 10.1591L8.625 9.8877V4.56363C9 4.71891 9.375 5.13127 9.375 5.61952V8.61952C9.375 9.23988 9.87963 9.74452 10.5 9.74452C11.1204 9.74452 11.625 9.23988 11.625 8.61952V2.99452C11.625 2.85241 11.5538 2.72259 11.4267 2.65905ZM8.625 11.25H1.125V10.7263L1.66772 10.455C1.7948 10.3914 1.875 10.2616 1.875 10.1195V1.49449C1.875 1.08087 2.22926 0.75 2.64291 0.75H7.14291C7.55653 0.75 7.875 1.08087 7.875 1.49452V10.1195C7.875 10.2616 7.9552 10.3914 8.08228 10.455L8.625 10.7263V11.25Z" fill="#565966"/>
</svg>
