<svg width="15" height="14" viewBox="0 0 15 14" fill="none" xmlns="http://www.w3.org/2000/svg">
<path fill-rule="evenodd" clip-rule="evenodd" d="M7.2856 1.26123C9.15469 1.26123 9.37607 1.26834 10.1142 1.30202C10.7967 1.33317 11.1673 1.44721 11.414 1.54304C11.7407 1.67003 11.9739 1.82174 12.2189 2.06668C12.4638 2.31162 12.6155 2.54483 12.7425 2.87154C12.8384 3.11823 12.9524 3.48888 12.9835 4.17134C13.0172 4.90949 13.0243 5.13087 13.0243 6.99996C13.0243 8.86905 13.0172 9.09042 12.9835 9.82854C12.9524 10.511 12.8384 10.8817 12.7425 11.1284C12.6155 11.4551 12.4638 11.6883 12.2189 11.9332C11.9739 12.1782 11.7407 12.3299 11.414 12.4568C11.1673 12.5527 10.7967 12.6667 10.1142 12.6979C9.37618 12.7316 9.1548 12.7387 7.2856 12.7387C5.4164 12.7387 5.19503 12.7316 4.45702 12.6979C3.77452 12.6667 3.40388 12.5527 3.15722 12.4568C2.83047 12.3299 2.59726 12.1782 2.35232 11.9332C2.10739 11.6883 1.95567 11.4551 1.82871 11.1284C1.73285 10.8817 1.61881 10.511 1.58767 9.82857C1.55399 9.09042 1.54688 8.86905 1.54688 6.99996C1.54688 5.13087 1.55399 4.90949 1.58767 4.17137C1.61881 3.48888 1.73285 3.11823 1.82871 2.87154C1.95567 2.54483 2.10739 2.31162 2.35232 2.06668C2.59726 1.82174 2.83047 1.67003 3.15722 1.54304C3.40388 1.44721 3.77452 1.33317 4.45699 1.30202C5.19514 1.26834 5.41651 1.26123 7.2856 1.26123ZM7.28563 0C5.38453 0 5.14618 0.0080581 4.39955 0.0421244C3.65446 0.0761351 3.14563 0.19445 2.70035 0.367505C2.24004 0.546395 1.84967 0.785748 1.46052 1.1749C1.07136 1.56405 0.832011 1.95442 0.653122 2.41473C0.480067 2.86001 0.361752 3.36884 0.327741 4.11394C0.293675 4.86053 0.285645 5.09891 0.285645 7.00001C0.285645 8.90111 0.293675 9.13949 0.327741 9.88609C0.361752 10.6312 0.480067 11.14 0.653122 11.5853C0.832011 12.0456 1.07136 12.436 1.46052 12.8251C1.84967 13.2143 2.24004 13.4536 2.70035 13.6325C3.14563 13.8056 3.65446 13.9239 4.39955 13.9579C5.14618 13.992 5.38453 14 7.28563 14C9.18673 14 9.42511 13.992 10.1717 13.9579C10.9168 13.9239 11.4256 13.8056 11.8709 13.6325C12.3312 13.4536 12.7216 13.2143 13.1107 12.8251C13.4999 12.436 13.7393 12.0456 13.9181 11.5853C14.0912 11.14 14.2095 10.6312 14.2435 9.88609C14.2776 9.13949 14.2856 8.90111 14.2856 7.00001C14.2856 5.09891 14.2776 4.86053 14.2435 4.11394C14.2095 3.36884 14.0912 2.86001 13.9181 2.41473C13.7393 1.95442 13.4999 1.56405 13.1107 1.1749C12.7216 0.785748 12.3312 0.546395 11.8709 0.367505C11.4256 0.19445 10.9168 0.0761351 10.1717 0.0421244C9.42511 0.0080581 9.18673 0 7.28563 0ZM7.29959 3.41673C5.31291 3.41673 3.70237 5.02727 3.70237 7.01395C3.70237 9.00063 5.31291 10.6112 7.29959 10.6112C9.28627 10.6112 10.8968 9.00063 10.8968 7.01395C10.8968 5.02727 9.28627 3.41673 7.29959 3.41673ZM7.29958 9.34898C6.00998 9.34898 4.96453 8.30353 4.96453 7.01393C4.96453 5.72434 6.00998 4.67889 7.29958 4.67889C8.58917 4.67889 9.63462 5.72434 9.63462 7.01393C9.63462 8.30353 8.58917 9.34898 7.29958 9.34898ZM11.8414 3.24998C11.8414 3.71022 11.4683 4.08333 11.0081 4.08333C10.5479 4.08333 10.1748 3.71022 10.1748 3.24998C10.1748 2.78974 10.5479 2.41666 11.0081 2.41666C11.4683 2.41666 11.8414 2.78974 11.8414 3.24998Z" fill="#232323"/>
</svg>
