<svg width="17" height="28" viewBox="0 0 17 28" fill="none" xmlns="http://www.w3.org/2000/svg">
<path d="M0.0139416 13.7657C0.0666077 13.316 0.270344 12.8975 0.591814 12.5786L12.5871 0.583336C12.7737 0.397675 12.9951 0.250618 13.2386 0.150522C13.4821 0.0504284 13.7429 -0.000703812 14.0062 7.62939e-06C14.2694 0.00071907 14.53 0.0532627 14.7729 0.154671C15.0159 0.256081 15.2364 0.404356 15.4221 0.591022C15.6077 0.777689 15.7548 0.999121 15.8548 1.24262C15.9549 1.48612 16.006 1.74694 16.0053 2.0102C16.0045 2.27346 15.952 2.53399 15.8505 2.77693C15.7491 3.01986 15.6008 3.24044 15.4141 3.42606L4.84014 14L15.4141 24.5739C15.6008 24.7596 15.7491 24.9801 15.8505 25.223C15.952 25.466 16.0045 25.7265 16.0053 25.9898C16.006 26.2531 15.9549 26.5139 15.8548 26.7574C15.7548 27.0009 15.6077 27.2223 15.4221 27.4089C15.2364 27.5956 15.0159 27.7439 14.7729 27.8453C14.53 27.9467 14.2694 27.9993 14.0062 28C13.7429 28.0007 13.4821 27.9495 13.2386 27.8494C12.9951 27.7494 12.7737 27.6023 12.5871 27.4166L0.591814 15.4213C0.376014 15.2074 0.211809 14.9471 0.111678 14.6602C0.0115459 14.3734 -0.0218785 14.0674 0.0139416 13.7657Z" fill="#232426"/>
</svg>
