<svg width="177" height="39" viewBox="0 0 985 161" fill="none" xmlns="http://www.w3.org/2000/svg">
<path d="M210.95 34.0611V91.1611C210.95 96.2611 210.15 100.461 208.45 103.861C205.05 110.861 198.65 114.361 189.35 114.361C180.05 114.361 173.65 110.861 170.25 103.861C168.55 100.461 167.75 96.261 167.75 91.261V33.9611H150.75V92.3611C150.75 99.7611 151.95 105.761 154.25 110.461C159.95 122.561 171.55 128.561 189.35 128.561C206.95 128.561 218.65 122.561 224.45 110.561C226.85 105.861 227.95 99.7611 227.95 92.3611V33.9611H210.95V34.0611Z" fill="#FDC633"/>
<path d="M240.45 34.061V48.461H267.65V127.261H284.55V48.461H309.45L323.75 34.061H240.45Z" fill="#FDC633"/>
<path d="M402.35 46.5611C393.55 37.6611 382.35 33.1611 368.55 33.1611C354.65 33.1611 343.45 37.5611 334.65 46.4611C325.95 55.3611 321.55 66.8611 321.55 80.9611C321.55 95.1611 325.95 106.661 334.65 115.461C343.45 124.261 354.65 128.561 368.45 128.561C382.15 128.561 393.35 124.161 402.15 115.361C410.95 106.561 415.35 95.0611 415.35 80.9611C415.55 66.9611 411.15 55.4611 402.35 46.5611ZM389.45 105.461C384.15 111.361 377.15 114.361 368.55 114.361C359.75 114.361 352.75 111.361 347.55 105.461C342.35 99.5611 339.75 91.3611 339.75 80.9611C339.75 70.4611 342.35 62.2611 347.55 56.3611C352.75 50.4611 359.75 47.4611 368.55 47.4611C377.45 47.4611 384.45 50.4611 389.65 56.4611C394.85 62.4611 397.45 70.6611 397.45 80.9611C397.45 91.3611 394.75 99.5611 389.45 105.461Z" fill="#FDC633"/>
<path d="M465.65 79.3611L531.75 1.16107H512.05L451.55 73.8611H451.15V34.0611H434.15V127.261H451.15V86.3611H451.55L484.45 127.261H484.55L511.05 160.161H532.95L465.65 79.3611Z" fill="#FDC633"/>
<path d="M595.65 46.5611C586.85 37.6611 575.65 33.1611 561.85 33.1611C547.95 33.1611 536.75 37.5611 527.95 46.4611C519.25 55.3611 514.85 66.8611 514.85 80.9611C514.85 95.1611 519.25 106.661 527.95 115.461C536.75 124.261 547.95 128.561 561.75 128.561C575.45 128.561 586.65 124.161 595.45 115.361C604.25 106.561 608.65 95.0611 608.65 80.9611C608.75 66.9611 604.35 55.4611 595.65 46.5611ZM582.75 105.461C577.45 111.361 570.45 114.361 561.85 114.361C553.05 114.361 546.05 111.361 540.85 105.461C535.65 99.5611 533.05 91.3611 533.05 80.9611C533.05 70.4611 535.65 62.2611 540.85 56.3611C546.05 50.4611 553.05 47.4611 561.85 47.4611C570.75 47.4611 577.75 50.4611 582.95 56.4611C588.15 62.4611 590.75 70.6611 590.75 80.9611C590.65 91.3611 588.05 99.5611 582.75 105.461Z" fill="#FDC633"/>
<path d="M680.05 87.7611C677.25 83.7611 673.95 80.6611 670.05 78.3611C666.15 76.0611 662.25 74.0611 658.25 72.2611C654.25 70.4611 650.95 68.2611 648.15 65.8611C645.35 63.4611 643.95 60.6611 643.95 57.5611C643.95 54.0611 645.15 51.5611 647.55 49.9611C649.95 48.3611 652.95 47.5611 656.65 47.5611C663.85 47.5611 671.25 49.5611 678.85 53.4611V37.8611C672.65 34.7611 665.05 33.1611 656.05 33.1611C646.75 33.1611 639.35 35.6611 633.95 40.6611C628.55 45.6611 625.85 51.7611 625.85 58.8611C625.85 64.1611 627.25 68.6611 630.05 72.5611C632.85 76.4611 636.25 79.4611 640.15 81.6611C644.15 83.8611 648.05 85.9611 651.95 87.7611C655.85 89.6611 659.25 91.8611 661.95 94.3611C664.75 96.8611 666.15 99.8611 666.15 103.161C666.15 106.961 664.65 109.761 661.65 111.461C658.65 113.261 654.95 114.161 650.65 114.161C643.15 114.161 636.05 111.861 629.55 107.361L622.95 120.361C630.55 125.761 639.95 128.461 651.05 128.461C660.75 128.461 668.75 126.061 674.95 121.161C681.15 116.261 684.25 109.861 684.25 101.761C684.25 96.4611 682.85 91.7611 680.05 87.7611Z" fill="#FDC633"/>
<path d="M780.65 34.061L758.35 68.761C755.75 72.861 753.15 76.961 750.75 81.361H750.45C749.15 78.961 746.55 74.961 742.65 69.361L718.15 34.161H702.75V127.361H719.75V74.361C719.75 68.961 719.75 65.061 719.65 62.661H719.95C720.75 63.961 722.85 67.161 726.35 72.261L750.65 107.461L772.85 72.961C776.05 68.061 778.15 64.561 779.25 62.461H779.55C779.35 64.961 779.25 69.061 779.25 74.761V127.361H796.35V34.161H780.65V34.061Z" fill="#FDC633"/>
<path d="M895.65 46.5611C886.85 37.6611 875.65 33.1611 861.85 33.1611C847.95 33.1611 836.75 37.5611 827.95 46.4611C819.25 55.3611 814.85 66.8611 814.85 80.9611C814.85 95.1611 819.25 106.661 827.95 115.461C836.75 124.261 847.95 128.561 861.75 128.561C875.45 128.561 886.65 124.161 895.45 115.361C904.25 106.561 908.65 95.0611 908.65 80.9611C908.75 66.9611 904.35 55.4611 895.65 46.5611ZM882.75 105.461C877.45 111.361 870.45 114.361 861.85 114.361C853.05 114.361 846.05 111.361 840.85 105.461C835.65 99.5611 833.05 91.3611 833.05 80.9611C833.05 70.4611 835.65 62.2611 840.85 56.3611C846.05 50.4611 853.05 47.4611 861.85 47.4611C870.75 47.4611 877.75 50.4611 882.95 56.4611C888.15 62.4611 890.75 70.6611 890.75 80.9611C890.65 91.3611 888.05 99.5611 882.75 105.461Z" fill="#FDC633"/>
<path d="M980.05 87.7611C977.25 83.7611 973.95 80.6611 970.05 78.3611C966.15 76.0611 962.25 74.0611 958.25 72.2611C954.25 70.4611 950.95 68.2611 948.15 65.8611C945.35 63.4611 943.95 60.6611 943.95 57.5611C943.95 54.0611 945.15 51.5611 947.55 49.9611C949.95 48.3611 952.95 47.5611 956.65 47.5611C963.85 47.5611 971.25 49.5611 978.85 53.4611V37.8611C972.65 34.7611 965.05 33.1611 956.05 33.1611C946.75 33.1611 939.35 35.6611 933.95 40.6611C928.55 45.6611 925.85 51.7611 925.85 58.8611C925.85 64.1611 927.25 68.6611 930.05 72.5611C932.85 76.4611 936.25 79.4611 940.15 81.6611C944.15 83.8611 948.05 85.9611 951.95 87.7611C955.85 89.6611 959.25 91.8611 961.95 94.3611C964.75 96.8611 966.15 99.8611 966.15 103.161C966.15 106.961 964.65 109.761 961.65 111.461C958.65 113.261 954.95 114.161 950.65 114.161C943.15 114.161 936.05 111.861 929.55 107.361L922.95 120.361C930.55 125.761 939.95 128.461 951.05 128.461C960.75 128.461 968.75 126.061 974.95 121.161C981.15 116.261 984.25 109.861 984.25 101.761C984.25 96.4611 982.85 91.7611 980.05 87.7611Z" fill="#FDC633"/>
<path d="M0.849609 132.161H23.7496L112.25 41.3611V116.261H61.1496L76.8496 132.161H128.65V0.96106L0.849609 132.161Z" fill="#FDC633"/>
</svg>
