<svg width="25" height="25" viewBox="0 0 25 25" fill="none" xmlns="http://www.w3.org/2000/svg">
<circle cx="12.5" cy="12.5" r="12.5" fill="#363636"/>
<path fill-rule="evenodd" clip-rule="evenodd" d="M15.9553 17.3173C16.3319 17.6939 16.9425 17.6939 17.319 17.3173C17.6956 16.9407 17.6956 16.3301 17.319 15.9536L13.91 12.5445L17.3191 9.13534C17.6957 8.75877 17.6957 8.14821 17.3191 7.77164C16.9425 7.39506 16.332 7.39506 15.9554 7.77164L12.5462 11.1808L9.13681 7.77133C8.76023 7.39476 8.14968 7.39476 7.7731 7.77133C7.39652 8.14791 7.39652 8.75846 7.7731 9.13504L11.1825 12.5445L7.77315 15.9539C7.39657 16.3305 7.39657 16.941 7.77315 17.3176C8.14972 17.6942 8.76027 17.6942 9.13685 17.3176L12.5462 13.9082L15.9553 17.3173Z" fill="#FF5631"/>
</svg>
