<svg width="12" height="12" viewBox="0 0 12 12" fill="none" xmlns="http://www.w3.org/2000/svg">
<path d="M10.56 0H1.44C0.648 0 0 0.648 0 1.44V10.56C0 11.352 0.648 12 1.44 12H10.56C11.352 12 12 11.352 12 10.56V1.44C12 0.648 11.352 0 10.56 0ZM6.26016 1.09488L6.45168 2.14224C6.5088 2.44416 6.5616 2.77248 6.60192 3.02928H6.61008C6.65136 2.75328 6.71136 2.44848 6.77568 2.13552L6.98976 1.09536H7.60032L7.80432 2.16528C7.86096 2.46384 7.90224 2.73552 7.93968 3.0168H7.94784C7.98528 2.73456 8.04144 2.43696 8.0952 2.13504L8.30208 1.09488H8.88672L8.23056 3.63504H7.60896L7.3944 2.54208C7.34496 2.28624 7.30416 2.04912 7.27344 1.7592H7.26576C7.22064 2.04528 7.17936 2.28624 7.11888 2.54208L6.87792 3.63504H6.24816L5.64528 1.09488H6.26016ZM3.79872 1.09488H5.3664V1.56576H4.3752V2.09376H5.31024V2.56128H4.3752V3.16368H5.4192V3.63504H3.7992L3.79872 1.09488ZM1.19664 1.09488H1.8672L2.39472 2.0256C2.54544 2.29296 2.69616 2.61024 2.80944 2.89632H2.82048C2.78256 2.5608 2.77152 2.21808 2.77152 1.83696V1.0944H3.29904V3.63456H2.69616L2.15376 2.6544C2.00304 2.38416 1.83696 2.05584 1.71312 1.75872L1.7016 1.76208C1.71696 2.09664 1.72464 2.45472 1.72464 2.86992V3.63504H1.19712L1.19664 1.09488ZM10.8 10.32C10.8 10.584 10.584 10.8 10.32 10.8H1.68C1.416 10.8 1.2 10.584 1.2 10.32V4.56H10.8V10.32ZM9.77856 3.67248C9.48864 3.67248 9.20208 3.59712 9.05856 3.5184L9.1752 3.0432C9.32976 3.12336 9.56688 3.20112 9.81264 3.20112C10.0757 3.20112 10.2158 3.09216 10.2158 2.92704C10.2158 2.76912 10.0954 2.67744 9.79008 2.56848C9.36816 2.4216 9.09264 2.18832 9.09264 1.8192C9.09264 1.38528 9.45456 1.0536 10.0536 1.0536C10.3397 1.0536 10.5504 1.11456 10.7021 1.18224L10.5739 1.64496C10.4717 1.59648 10.2907 1.52544 10.0416 1.52544C9.79296 1.52544 9.67296 1.63824 9.67296 1.77024C9.67296 1.93248 9.816 2.00304 10.1434 2.12832C10.5917 2.29344 10.8029 2.52672 10.8029 2.88576C10.8034 3.31056 10.4755 3.67248 9.77856 3.67248Z" fill="#565966"/>
<path d="M1.86195 5.62897H5.48787C5.61987 5.62897 5.72787 5.53873 5.72787 5.42929C5.72787 5.31937 5.61987 5.22913 5.48787 5.22913H1.86195C1.72995 5.22913 1.62195 5.31937 1.62195 5.42929C1.62195 5.53873 1.72995 5.62897 1.86195 5.62897Z" fill="#565966"/>
<path d="M1.86195 6.52996H5.48787C5.61987 6.52996 5.72787 6.43972 5.72787 6.33028C5.72787 6.22036 5.61987 6.12964 5.48787 6.12964H1.86195C1.72995 6.12964 1.62195 6.21988 1.62195 6.33028C1.62195 6.43924 1.72995 6.52996 1.86195 6.52996Z" fill="#565966"/>
<path d="M1.86195 7.42988H5.48787C5.61987 7.42988 5.72787 7.33964 5.72787 7.2302C5.72787 7.12076 5.61987 7.03052 5.48787 7.03052H1.86195C1.72995 7.03052 1.62195 7.12076 1.62195 7.2302C1.62195 7.33964 1.72995 7.42988 1.86195 7.42988Z" fill="#565966"/>
<path d="M1.86195 8.3299H5.48787C5.61987 8.3299 5.72787 8.23966 5.72787 8.13022C5.72787 8.02078 5.61987 7.93054 5.48787 7.93054H1.86195C1.72995 7.93054 1.62195 8.02078 1.62195 8.13022C1.62195 8.24014 1.72995 8.3299 1.86195 8.3299Z" fill="#565966"/>
<path d="M1.86195 9.2304H5.48787C5.61987 9.2304 5.72787 9.14016 5.72787 9.03072C5.72787 8.9208 5.61987 8.83008 5.48787 8.83008H1.86195C1.72995 8.83008 1.62195 8.92032 1.62195 9.03072C1.62195 9.14064 1.72995 9.2304 1.86195 9.2304Z" fill="#565966"/>
<path d="M1.86195 10.1304H5.48787C5.61987 10.1304 5.72787 10.0402 5.72787 9.93076C5.72787 9.82132 5.61987 9.73108 5.48787 9.73108H1.86195C1.72995 9.73108 1.62195 9.82132 1.62195 9.93076C1.62195 10.0412 1.72995 10.1304 1.86195 10.1304Z" fill="#565966"/>
<path d="M6.51148 5.62897H10.1379C10.2699 5.62897 10.3779 5.53873 10.3779 5.42929C10.3779 5.31937 10.2699 5.22913 10.1379 5.22913H6.51148C6.37996 5.22913 6.27148 5.31937 6.27148 5.42929C6.27148 5.53873 6.37996 5.62897 6.51148 5.62897Z" fill="#565966"/>
<path d="M6.51148 6.52996H10.1379C10.2699 6.52996 10.3779 6.43972 10.3779 6.33028C10.3779 6.22036 10.2699 6.12964 10.1379 6.12964H6.51148C6.37996 6.12964 6.27148 6.21988 6.27148 6.33028C6.27148 6.43924 6.37996 6.52996 6.51148 6.52996Z" fill="#565966"/>
<path d="M6.51148 7.42988H10.1379C10.2699 7.42988 10.3779 7.33964 10.3779 7.2302C10.3779 7.12076 10.2699 7.03052 10.1379 7.03052H6.51148C6.37996 7.03052 6.27148 7.12076 6.27148 7.2302C6.27148 7.33964 6.37996 7.42988 6.51148 7.42988Z" fill="#565966"/>
<path d="M6.51148 8.3299H10.1379C10.2699 8.3299 10.3779 8.23966 10.3779 8.13022C10.3779 8.02078 10.2699 7.93054 10.1379 7.93054H6.51148C6.37996 7.93054 6.27148 8.02078 6.27148 8.13022C6.27148 8.24014 6.37996 8.3299 6.51148 8.3299Z" fill="#565966"/>
<path d="M6.51148 9.2304H10.1379C10.2699 9.2304 10.3779 9.14016 10.3779 9.03072C10.3779 8.9208 10.2699 8.83008 10.1379 8.83008H6.51148C6.37996 8.83008 6.27148 8.92032 6.27148 9.03072C6.27148 9.14064 6.37996 9.2304 6.51148 9.2304Z" fill="#565966"/>
<path d="M6.51148 10.1304H10.1379C10.2699 10.1304 10.3779 10.0402 10.3779 9.93076C10.3779 9.82132 10.2699 9.73108 10.1379 9.73108H6.51148C6.37996 9.73108 6.27148 9.82132 6.27148 9.93076C6.27148 10.0412 6.37996 10.1304 6.51148 10.1304Z" fill="#565966"/>
</svg>
