<svg width="25" height="25" viewBox="0 0 25 25" fill="none" xmlns="http://www.w3.org/2000/svg">
<circle cx="12.5" cy="12.5" r="12.5" fill="#363636"/>
<path d="M11.3575 14.4292L9.16255 12.2343C8.98034 12.0521 8.76001 11.9739 8.54251 11.9882C8.33144 12.002 8.1416 12.1013 8.00316 12.2397C7.86473 12.3782 7.76548 12.568 7.75164 12.7791C7.73738 12.9966 7.8155 13.2169 7.99771 13.3991L10.8061 16.2075C11.1277 16.5291 11.6493 16.5291 11.971 16.2075L11.9712 16.2078L11.98 16.1979L17.4399 10.1287C17.6121 9.93748 17.6783 9.7136 17.6525 9.49743C17.6275 9.28769 17.5184 9.10361 17.3731 8.97283C17.2278 8.84205 17.0333 8.75293 16.8221 8.75007C16.6044 8.74712 16.3887 8.83645 16.2166 9.02771L16.2166 9.02775L11.3575 14.4292Z" fill="#FFC730" stroke="#FFC730" stroke-width="0.5"/>
</svg>
