<svg width="10" height="10" viewBox="0 0 10 10" fill="none" xmlns="http://www.w3.org/2000/svg">
<path d="M9.38775 1.14361L7.29571 0.0280145C7.22496 -0.00972234 7.14241 -0.00972234 7.07165 0.0303731L5.0315 1.14597C4.95602 1.18606 4.90649 1.26626 4.90649 1.35352V2.93375C4.90885 3.29225 4.97253 3.6484 5.09754 3.98567H2.39463C2.08094 3.98567 1.79556 4.17435 1.67291 4.46446L1.09035 5.82063L0.854491 6.04469C0.62571 6.24281 0.493631 6.53291 0.49599 6.83716V9.22402C0.491273 9.64856 0.830905 9.99527 1.25545 9.99998C1.2578 9.99998 1.2578 9.99998 1.26016 9.99998H1.70829C2.13519 9.99763 2.47954 9.65092 2.47718 9.22402V8.93628H6.55748V9.22166C6.5622 9.65092 6.90891 9.99763 7.33817 9.99763H7.78629C8.21319 9.99527 8.5599 9.65092 8.56226 9.22166V6.77348C8.56226 6.4881 8.44433 6.21686 8.23914 6.0211L8.07404 5.84657L7.96554 5.60836C8.92076 5.0423 9.50568 4.01397 9.50332 2.90309V1.35352C9.5104 1.2639 9.46323 1.18371 9.38775 1.14361ZM2.10689 4.65078C2.15641 4.53285 2.26963 4.45738 2.39463 4.45502H5.31452C5.38292 4.57767 5.4584 4.69559 5.54095 4.80881C5.14471 4.96211 4.85461 5.30882 4.77441 5.72864H1.64697L2.10689 4.65078ZM5.89237 5.20976C6.10936 5.41495 6.35229 5.58949 6.61645 5.72864H5.26028C5.3499 5.44562 5.59755 5.24278 5.89237 5.20976ZM2.00783 9.22166C2.01018 9.38676 1.8781 9.52356 1.71065 9.52592H1.26252C1.09506 9.52592 0.97006 9.38912 0.97006 9.22166V8.88439C1.06204 8.92212 1.16346 8.93863 1.26252 8.93628H2.00783V9.22166ZM8.09291 9.22166C8.09291 9.38912 7.95611 9.52592 7.78865 9.52592H7.34053C7.17307 9.52592 7.03391 9.39148 7.03155 9.22166V8.93628H7.78865C7.89243 8.93863 7.99621 8.92212 8.09291 8.88439V9.22166ZM8.09291 6.77112V8.1721C8.09291 8.33956 7.95611 8.46457 7.78865 8.46457H1.26252C1.1045 8.46928 0.974777 8.34428 0.97006 8.18626C0.97006 8.18154 0.97006 8.17682 0.97006 8.1721V6.8348C0.967701 6.66735 1.04082 6.50932 1.16582 6.39847C1.16818 6.39611 1.16818 6.39611 1.17054 6.39375L1.38045 6.20035H7.75799L7.90186 6.34894C7.90422 6.3513 7.90894 6.35366 7.91366 6.35838C8.02687 6.46687 8.09291 6.61546 8.09291 6.77112ZM9.03633 2.90073C9.03869 3.97624 8.3948 4.94796 7.40185 5.36542L7.17778 5.46212L6.98674 5.37958C6.01266 4.95504 5.38056 3.99275 5.37821 2.92904V1.49032L7.17778 0.502084L9.03633 1.49268V2.90073Z" fill="#565966"/>
</svg>
