<svg width="10" height="10" viewBox="0 0 10 10" fill="none" xmlns="http://www.w3.org/2000/svg">
<path d="M8.92857 1.07143H7.85714V0.35715C7.85714 0.159898 7.69725 0 7.49999 0C7.30274 0 7.14285 0.159898 7.14285 0.35715V1.07143H2.85713V0.35715C2.85713 0.159898 2.69724 0 2.50001 0C2.30277 0 2.14286 0.159898 2.14286 0.35715V1.07143H1.07143C0.479694 1.07143 0 1.55112 0 2.14286V8.92857C0 9.52031 0.479694 10 1.07143 10H8.92857C9.52031 10 10 9.52031 10 8.92857V2.14286C10 1.55112 9.52031 1.07143 8.92857 1.07143ZM9.2857 8.92857C9.2857 9.12582 9.1258 9.28572 8.92855 9.28572H1.07143C0.874176 9.28572 0.714278 9.12582 0.714278 8.92857V4.28571H9.2857V8.92857ZM9.2857 3.57143H0.714278V2.14286C0.714278 1.9456 0.874176 1.78571 1.07143 1.78571H2.14286V2.49998C2.14286 2.69724 2.30275 2.85713 2.50001 2.85713C2.69726 2.85713 2.85715 2.69724 2.85715 2.49998V1.78571H7.14287V2.49998C7.14287 2.69724 7.30276 2.85713 7.50002 2.85713C7.69727 2.85713 7.85716 2.69724 7.85716 2.49998V1.78571H8.92859C9.12584 1.78571 9.28574 1.9456 9.28574 2.14286V3.57143H9.2857Z" fill="#565966"/>
<path d="M7.38657 5.1046C7.24816 4.97092 7.02875 4.97092 6.89036 5.1046L4.2857 7.70924L3.10962 6.53316C2.96774 6.39613 2.74165 6.40006 2.60463 6.54192C2.47095 6.68033 2.47095 6.89974 2.60463 7.03815L4.03321 8.46673C4.17268 8.60614 4.39875 8.60614 4.5382 8.46673L7.39534 5.60959C7.53236 5.46771 7.52843 5.24162 7.38657 5.1046Z" fill="#565966"/>
</svg>
