<svg width="10" height="10" viewBox="0 0 10 10" fill="none" xmlns="http://www.w3.org/2000/svg">
<g clip-path="url(#clip0)">
<path d="M4.99999 4.7071C5.16179 4.7071 5.29296 4.57593 5.29296 4.41413V2.94931C5.29296 2.78752 5.16179 2.65635 4.99999 2.65635C4.8382 2.65635 4.70703 2.78752 4.70703 2.94931V4.41413C4.70703 4.57593 4.8382 4.7071 4.99999 4.7071Z" fill="#565966"/>
<path d="M5.29296 5.58598C5.29296 5.42418 5.16179 5.29301 4.99999 5.29301C4.8382 5.29301 4.70703 5.42418 4.70703 5.58598V7.0508C4.70703 7.21259 4.8382 7.34376 4.99999 7.34376C5.16179 7.34376 5.29296 7.21259 5.29296 7.0508V5.58598Z" fill="#565966"/>
<path d="M9.99497 9.65357L8.23718 0.239653C8.21129 0.100984 8.09027 0.000457764 7.9492 0.000457764C7.7527 0.000457764 2.35849 0.000457764 2.05086 0.000457764C1.90978 0.000457764 1.78877 0.100984 1.76287 0.239653L0.00508618 9.65357C-0.0285266 9.83359 0.109733 10.0003 0.29307 10.0003H9.70699C9.89011 10.0003 10.0286 9.83378 9.99497 9.65357ZM5.00003 7.93002C4.83823 7.93002 4.70706 8.06119 4.70706 8.22299V9.41437H1.83719L3.48556 0.586386H4.70706V1.77777C4.70706 1.93957 4.83823 2.07074 5.00003 2.07074C5.16182 2.07074 5.29299 1.93957 5.29299 1.77777V0.586386H6.5145L8.16287 9.41437H5.29299V8.22299C5.29299 8.06119 5.16182 7.93002 5.00003 7.93002ZM2.29419 0.586386H2.88951L1.24114 9.41437H0.645799L2.29419 0.586386ZM8.75891 9.41437L7.11054 0.586386H7.70586L9.35424 9.41437H8.75891Z" fill="#565966"/>
</g>
<defs>
<clipPath id="clip0">
<rect width="10" height="10" fill="white"/>
</clipPath>
</defs>
</svg>
