<svg width="10" height="10" viewBox="0 0 10 10" fill="none" xmlns="http://www.w3.org/2000/svg">
<path d="M2.5178 9.96516C2.64719 10.0346 2.80762 9.99736 2.89346 9.87897L7.58094 3.41415C7.64559 3.32501 7.65477 3.20714 7.60473 3.10903C7.55469 3.01095 7.45387 2.94919 7.34377 2.94919H6.10163L7.59541 0.442948C7.64938 0.352421 7.65055 0.239882 7.59848 0.148242C7.54645 0.0566013 7.44916 0 7.34377 0H3.82816C3.69361 0 3.57636 0.0916403 3.54387 0.222187L2.37199 4.9292C2.35022 5.0167 2.36994 5.10935 2.42545 5.18039C2.48098 5.25144 2.56612 5.29295 2.65627 5.29295H3.99195L2.38184 9.60449C2.33055 9.7418 2.38864 9.89588 2.5178 9.96516ZM4.68855 5.10248C4.72216 5.01254 4.70952 4.91184 4.65478 4.83295C4.60003 4.75406 4.51011 4.70701 4.4141 4.70701H3.03113L4.05713 0.585935H6.82811L5.33433 3.09218C5.28036 3.1827 5.27919 3.29524 5.33126 3.38688C5.38331 3.47852 5.4806 3.53512 5.58599 3.53512H6.7695L3.68547 7.78849L4.68855 5.10248Z" fill="#565966"/>
</svg>
