<svg width="10" height="10" viewBox="0 0 10 10" fill="none" xmlns="http://www.w3.org/2000/svg">
<path d="M5.9375 1.87506C5.9375 1.70246 5.7976 1.56256 5.625 1.56256H2.5C2.3274 1.56256 2.1875 1.70246 2.1875 1.87506V4.37506C2.1875 4.54766 2.3274 4.68756 2.5 4.68756H5.625C5.7976 4.68756 5.9375 4.54766 5.9375 4.37506V1.87506ZM5.3125 4.06256H2.8125V2.18756H5.3125V4.06256Z" fill="#565966"/>
<path d="M9.52223 2.21594L8.27596 1.59094C8.12123 1.51342 7.93572 1.57645 7.85852 1.73071C7.78131 1.88512 7.8448 2.07281 7.99922 2.15002L8.47385 2.38711C8.46115 2.4211 8.44473 2.45703 8.44473 2.49549C8.44473 2.90237 8.75 3.246 9.0625 3.37539V7.18299C9.0625 7.35526 8.92227 7.49549 8.75 7.49549C8.57773 7.49549 8.4375 7.35526 8.4375 7.18299V4.68299C8.4375 3.92848 7.8125 3.29727 7.1875 3.15207V1.24549C7.1875 0.556252 6.64166 6.10352e-05 5.95242 6.10352e-05H2.20242C1.51318 6.10352e-05 0.9375 0.556252 0.9375 1.24549V8.23981L0.485234 8.46594C0.379336 8.51889 0.3125 8.62707 0.3125 8.74549V9.68299C0.3125 9.85557 0.467344 10.0001 0.639922 10.0001H7.51492C7.6875 10.0001 7.8125 9.85557 7.8125 9.68299V8.74549C7.8125 8.62707 7.74566 8.51889 7.63977 8.46594L7.1875 8.23981V3.80309C7.5 3.93248 7.8125 4.27612 7.8125 4.68299V7.18299C7.8125 7.69996 8.23303 8.12049 8.75 8.12049C9.26697 8.12049 9.6875 7.69996 9.6875 7.18299V2.49549C9.6875 2.37707 9.62813 2.26889 9.52223 2.21594ZM7.1875 9.37506H0.9375V8.93865L1.38977 8.71252C1.49566 8.65957 1.5625 8.55139 1.5625 8.43297V1.24547C1.5625 0.900784 1.85771 0.625061 2.20242 0.625061H5.95242C6.29711 0.625061 6.5625 0.900784 6.5625 1.24549V8.43299C6.5625 8.55141 6.62934 8.65959 6.73523 8.71254L7.1875 8.93865V9.37506Z" fill="#565966"/>
</svg>
