<svg width="10" height="10" viewBox="0 0 10 10" fill="none" xmlns="http://www.w3.org/2000/svg">
<path d="M9.23688 0.678125C9.15125 0.620625 9.04187 0.609375 8.94563 0.6475C8.92437 0.65625 6.865 1.47125 5.13375 0.655C3.6475 -0.046875 2.01063 0.28125 1.25 0.503125V0.3125C1.25 0.14 1.11 0 0.9375 0C0.765 0 0.625 0.14 0.625 0.3125V9.6875C0.625 9.86 0.765 10 0.9375 10C1.11 10 1.25 9.86 1.25 9.6875V6.15812C1.80375 5.9775 3.445 5.54812 4.86688 6.22C5.5425 6.53937 6.24937 6.64563 6.89125 6.64563C8.12563 6.64563 9.11812 6.2525 9.18 6.2275C9.2975 6.17937 9.375 6.065 9.375 5.9375V0.9375C9.375 0.83375 9.32312 0.736875 9.23688 0.678125ZM8.75 5.71625C8.19313 5.89687 6.5525 6.32438 5.13313 5.65438C3.6475 4.95312 2.01063 5.28125 1.25 5.50313V1.15875C1.80375 0.978125 3.445 0.54875 4.86688 1.22062C6.35125 1.92125 7.98938 1.59375 8.75 1.37125V5.71625Z" fill="#565966"/>
</svg>
