<svg width="12" height="14" viewBox="0 0 12 14" fill="none" xmlns="http://www.w3.org/2000/svg">
<path d="M3.05478 8.98242H1.35814C1.18533 8.98242 1.04395 9.12381 1.04395 9.29661V10.4591C1.04395 10.6319 1.18533 10.7733 1.35814 10.7733H3.05478C3.22758 10.7733 3.36897 10.6319 3.36897 10.4591V9.29661C3.36897 9.12381 3.22758 8.98242 3.05478 8.98242ZM2.74058 10.1449H1.67233V9.61081H2.74058V10.1449Z" fill="#565966"/>
<path d="M9.35825 8.98242H7.66161C7.4888 8.98242 7.34741 9.12381 7.34741 9.29661V10.4591C7.34741 10.6319 7.4888 10.7733 7.66161 10.7733H9.35825C9.53105 10.7733 9.67244 10.6319 9.67244 10.4591V9.29661C9.67244 9.12381 9.53105 8.98242 9.35825 8.98242ZM9.04405 10.1449H7.9758V9.61081H9.04405V10.1449Z" fill="#565966"/>
<path d="M6.45654 10.1133H4.26976C4.09695 10.1133 3.95557 10.2547 3.95557 10.4275C3.95557 10.6003 4.09381 10.7417 4.26976 10.7417H6.45654C6.62934 10.7417 6.77073 10.6003 6.77073 10.4275C6.77073 10.2547 6.62934 10.1133 6.45654 10.1133Z" fill="#565966"/>
<path d="M6.45654 9.23389H4.26976C4.09695 9.23389 3.95557 9.37527 3.95557 9.54808C3.95557 9.72088 4.09381 9.86227 4.26976 9.86227H6.45654C6.62934 9.86227 6.77073 9.72088 6.77073 9.54808C6.77073 9.37527 6.62934 9.23389 6.45654 9.23389Z" fill="#565966"/>
<path d="M11.8451 1.52345L9.05823 0.0373192C8.96397 -0.0129515 8.854 -0.0129515 8.75974 0.0404611L6.04198 1.52659C5.94144 1.58 5.87546 1.68683 5.87546 1.80308V3.90816C5.8786 4.38573 5.96343 4.86016 6.12996 5.30946H2.52931C2.11144 5.30946 1.73126 5.56081 1.56788 5.94727L0.791829 7.75387L0.477637 8.05235C0.17287 8.31627 -0.00307725 8.70273 6.46715e-05 9.10804V12.2877C-0.00621917 12.8532 0.446218 13.3151 1.01176 13.3214C1.01491 13.3214 1.01491 13.3214 1.01805 13.3214H1.61501C2.1837 13.3182 2.64242 12.8563 2.63928 12.2877V11.9043H8.07481V12.2845C8.08109 12.8563 8.54295 13.3182 9.11478 13.3182H9.71175C10.2804 13.3151 10.7423 12.8563 10.7454 12.2845V9.02321C10.7454 8.64303 10.5883 8.28171 10.315 8.02093L10.0951 7.78843L9.95053 7.4711C11.223 6.71704 12.0022 5.34716 11.9991 3.86732V1.80308C12.0085 1.68368 11.9457 1.57686 11.8451 1.52345ZM2.146 6.19548C2.21198 6.03838 2.36279 5.93784 2.52931 5.9347H6.41901C6.51013 6.09808 6.61067 6.25518 6.72064 6.40599C6.19279 6.61021 5.80634 7.07207 5.69951 7.63134H1.53332L2.146 6.19548ZM7.18878 6.94011C7.47784 7.21346 7.80146 7.44596 8.15335 7.63134H6.34675C6.46614 7.25431 6.79604 6.9841 7.18878 6.94011ZM2.01404 12.2845C2.01718 12.5045 1.84123 12.6867 1.61815 12.6898H1.02119C0.798113 12.6898 0.631591 12.5076 0.631591 12.2845V11.8352C0.754126 11.8855 0.889229 11.9075 1.02119 11.9043H2.01404V12.2845ZM10.1202 12.2845C10.1202 12.5076 9.93797 12.6898 9.71489 12.6898H9.11792C8.89485 12.6898 8.70947 12.5107 8.70633 12.2845V11.9043H9.71489C9.85314 11.9075 9.99138 11.8855 10.1202 11.8352V12.2845ZM10.1202 9.02006V10.8864C10.1202 11.1094 9.93797 11.276 9.71489 11.276H1.02119C0.810681 11.2822 0.637875 11.1157 0.631591 10.9052C0.631591 10.8989 0.631591 10.8926 0.631591 10.8864V9.1049C0.628449 8.88182 0.725849 8.67131 0.892371 8.52364C0.895513 8.5205 0.895513 8.5205 0.898655 8.51736L1.17829 8.25972H9.67404L9.8657 8.45766C9.86884 8.4608 9.87513 8.46394 9.88141 8.47023C10.0322 8.61476 10.1202 8.8127 10.1202 9.02006ZM11.377 3.86418C11.3801 5.29689 10.5224 6.59136 9.19961 7.14748L8.90113 7.2763L8.64664 7.16633C7.34902 6.60079 6.50699 5.31888 6.50385 3.90188V1.98531L8.90113 0.668845L11.377 1.98845V3.86418Z" fill="#565966"/>
<path d="M10.4702 3.17302C10.3602 3.03792 10.1623 3.01906 10.0272 3.12903L8.55677 4.3261L8.02264 3.70086C7.90953 3.5689 7.71159 3.55319 7.57963 3.6663C7.44767 3.77941 7.43196 3.97735 7.54507 4.10931L8.27713 4.96705C8.28028 4.9702 8.28342 4.97334 8.28656 4.97648C8.2897 4.97962 8.29284 4.9859 8.29913 4.98905C8.30541 4.99219 8.30855 4.99847 8.3117 5.00161C8.31484 5.00476 8.32112 5.0079 8.32426 5.01104C8.32741 5.01418 8.33369 5.01732 8.33997 5.02047C8.34312 5.02361 8.3494 5.02675 8.35254 5.02989C8.35882 5.03303 8.36197 5.03618 8.36825 5.03932C8.37139 5.04246 8.37768 5.0456 8.38082 5.0456C8.3871 5.04874 8.39339 5.05188 8.39967 5.05188C8.40281 5.05503 8.4091 5.05503 8.41224 5.05817C8.41852 5.06131 8.4248 5.06131 8.43109 5.06445C8.43423 5.06445 8.44051 5.06759 8.44366 5.06759C8.44994 5.06759 8.45622 5.07074 8.46251 5.07074C8.46565 5.07074 8.47193 5.07388 8.47508 5.07388C8.4845 5.07388 8.49079 5.07388 8.50021 5.07388C8.50335 5.07388 8.50649 5.07388 8.50964 5.07388C8.51906 5.07388 8.52849 5.07388 8.53791 5.07388C8.54106 5.07388 8.54106 5.07388 8.5442 5.07388C8.55048 5.07388 8.55991 5.07074 8.56619 5.07074C8.56933 5.07074 8.57248 5.07074 8.57562 5.06759C8.5819 5.06759 8.58819 5.06445 8.59447 5.06445C8.59761 5.06445 8.60075 5.06131 8.60389 5.06131C8.61018 5.06131 8.61332 5.05817 8.6196 5.05503C8.62275 5.05503 8.62589 5.05188 8.63217 5.05188C8.63531 5.04874 8.6416 5.04874 8.64474 5.0456C8.64788 5.04246 8.65102 5.04246 8.65731 5.03932C8.66359 5.03618 8.66673 5.03618 8.66987 5.03303C8.67302 5.02989 8.67616 5.02675 8.68244 5.02675C8.68558 5.02361 8.69187 5.02047 8.69501 5.02047C8.69815 5.02047 8.70129 5.01418 8.70758 5.01104C8.71072 5.0079 8.71386 5.0079 8.717 5.00476L10.4262 3.61603C10.5613 3.50606 10.5802 3.30812 10.4702 3.17302Z" fill="#565966"/>
</svg>
