<svg width="12" height="12" viewBox="0 0 12 12" fill="none" xmlns="http://www.w3.org/2000/svg">
<g clip-path="url(#clip0)">
<path d="M6.00024 5.6484C6.19439 5.6484 6.35179 5.491 6.35179 5.29684V3.53906C6.35179 3.3449 6.19439 3.1875 6.00024 3.1875C5.80608 3.1875 5.64868 3.3449 5.64868 3.53906V5.29684C5.64868 5.491 5.80608 5.6484 6.00024 5.6484Z" fill="#565966"/>
<path d="M6.35179 6.70312C6.35179 6.50897 6.19439 6.35156 6.00024 6.35156C5.80608 6.35156 5.64868 6.50897 5.64868 6.70312V8.46091C5.64868 8.65506 5.80608 8.81246 6.00024 8.81246C6.19439 8.81246 6.35179 8.65506 6.35179 8.46091V6.70312Z" fill="#565966"/>
<path d="M11.9942 11.5842L9.88483 0.287523C9.85375 0.121119 9.70854 0.000488281 9.53925 0.000488281C9.30345 0.000488281 2.83039 0.000488281 2.46123 0.000488281C2.29195 0.000488281 2.14673 0.121119 2.11565 0.287523L0.00631093 11.5842C-0.0340244 11.8002 0.131887 12.0003 0.351892 12.0003H11.6486C11.8683 12.0003 12.0346 11.8005 11.9942 11.5842ZM6.00024 9.51596C5.80609 9.51596 5.64868 9.67337 5.64868 9.86752V11.2972H2.20483L4.18288 0.703602H5.64868V2.13327C5.64868 2.32742 5.80609 2.48482 6.00024 2.48482C6.19439 2.48482 6.3518 2.32742 6.3518 2.13327V0.703602H7.8176L9.79565 11.2972H6.3518V9.86752C6.3518 9.67337 6.19439 9.51596 6.00024 9.51596ZM2.75324 0.703602H3.46762L1.48958 11.2972H0.775166L2.75324 0.703602ZM10.5109 11.2972L8.53286 0.703602H9.24725L11.2253 11.2972H10.5109Z" fill="#565966"/>
</g>
<defs>
<clipPath id="clip0">
<rect width="12" height="12" fill="white" transform="translate(0.000244141)"/>
</clipPath>
</defs>
</svg>
