<svg width="17" height="28" viewBox="0 0 17 28" fill="none" xmlns="http://www.w3.org/2000/svg">
<path d="M15.9913 14.2343C15.9386 14.684 15.7349 15.1025 15.4134 15.4214L3.41818 27.4167C3.23154 27.6023 3.01015 27.7494 2.76666 27.8495C2.52317 27.9496 2.26235 28.0007 1.99909 28C1.73583 27.9993 1.47529 27.9467 1.23234 27.8453C0.989395 27.7439 0.768806 27.5956 0.583167 27.409C0.397527 27.2223 0.250475 27.0009 0.150408 26.7574C0.0503404 26.5139 -0.00078417 26.2531 -4.2209e-05 25.9898C0.000699752 25.7265 0.0532911 25.466 0.154728 25.2231C0.256164 24.9801 0.40446 24.7596 0.591147 24.5739L11.1651 14L0.591147 3.42606C0.40446 3.24044 0.256165 3.01989 0.154728 2.77696C0.0532913 2.53402 0.000699975 2.27346 -4.19808e-05 2.0102C-0.000783937 1.74694 0.0503406 1.48612 0.150408 1.24262C0.250475 0.999119 0.397528 0.777719 0.583167 0.591053C0.768806 0.404386 0.989395 0.25611 1.23234 0.154701C1.47529 0.0532915 1.73583 0.000718844 1.99909 7.3207e-06C2.26235 -0.000704203 2.52317 0.0504575 2.76666 0.150552C3.01015 0.250647 3.23154 0.397735 3.41818 0.583396L15.4134 12.5787C15.6292 12.7926 15.7934 13.0529 15.8936 13.3398C15.9937 13.6266 16.0271 13.9326 15.9913 14.2343Z" fill="#232426"/>
</svg>
