<svg width="78" height="78" viewBox="0 0 78 78" fill="none" xmlns="http://www.w3.org/2000/svg">
<g clip-path="url(#clip0)">
<path d="M44.15 12.1729H33.85C31.7813 12.1729 30.1045 13.8497 30.1045 15.9184C30.1045 17.987 31.7813 19.6639 33.85 19.6639H44.15C46.2187 19.6639 47.8955 17.987 47.8955 15.9184C47.8955 13.8497 46.2185 12.1729 44.15 12.1729Z" fill="#FFC730"/>
<path d="M31.5088 69.4796L38.8125 78.0006L45.1799 72.5697L41.2471 68.1687C40.8708 67.8004 40.6668 67.2905 40.6853 66.7641C40.7267 66.2591 40.9614 65.7893 41.3407 65.4532L45.5543 62.2696V57.1195L41.9026 52.8121C41.6646 52.3848 41.5662 51.8936 41.6217 51.4075C41.6631 50.9025 41.8979 50.4327 42.2772 50.0966L45.5545 47.3812V35.5828H31.509V69.4796H31.5088Z" fill="#FFC730"/>
<path d="M52.6705 0H25.3282C20.1781 0 15.5898 4.02636 15.5898 9.17647V22.5666C15.7418 27.7832 20.0157 31.9325 25.2345 31.9304H54.7302C58.9345 31.9307 62.3572 28.5498 62.4085 24.3458V9.17647C62.4087 4.02636 57.8204 0 52.6705 0ZM44.1495 23.4093H33.8494C29.7123 23.4093 26.3584 20.0554 26.3584 15.9183C26.3584 11.7812 29.7123 8.4273 33.8494 8.4273H44.1495C48.2866 8.4273 51.6405 11.7812 51.6405 15.9183C51.6405 20.0554 48.2866 23.4093 44.1495 23.4093Z" fill="#565966"/>
</g>
<defs>
<clipPath id="clip0">
<rect width="78" height="78" fill="white"/>
</clipPath>
</defs>
</svg>
