<svg width="97" height="78" viewBox="0 0 97 78" fill="none" xmlns="http://www.w3.org/2000/svg">
<path d="M73.8184 3H56.2812C55.5736 3 55 3.5736 55 4.28125V17.9746C55 18.1957 55.1793 18.375 55.4004 18.375H73.8184C74.0395 18.375 74.2188 18.1957 74.2188 17.9746V3.40039C74.2188 3.17929 74.0395 3 73.8184 3ZM66.5312 5.5625C67.2391 5.5625 67.8125 6.13586 67.8125 6.84375C67.8125 7.55164 67.2391 8.125 66.5312 8.125C65.8234 8.125 65.25 7.55164 65.25 6.84375C65.25 6.13586 65.8234 5.5625 66.5312 5.5625ZM62.6875 5.5625C63.3954 5.5625 63.9688 6.13586 63.9688 6.84375C63.9688 7.55164 63.3954 8.125 62.6875 8.125C61.9796 8.125 61.4062 7.55164 61.4062 6.84375C61.4062 6.13586 61.9796 5.5625 62.6875 5.5625ZM58.8438 5.5625C59.5516 5.5625 60.125 6.13586 60.125 6.84375C60.125 7.55164 59.5516 8.125 58.8438 8.125C58.1359 8.125 57.5625 7.55164 57.5625 6.84375C57.5625 6.13586 58.1359 5.5625 58.8438 5.5625ZM58.8438 15.8125C58.1359 15.8125 57.5625 15.2391 57.5625 14.5312C57.5625 13.8234 58.1359 13.25 58.8438 13.25C59.5516 13.25 60.125 13.8234 60.125 14.5312C60.125 15.2391 59.5516 15.8125 58.8438 15.8125ZM59.4844 10.6875C59.4844 9.97961 60.0577 9.40625 60.7656 9.40625C61.4735 9.40625 62.0469 9.97961 62.0469 10.6875C62.0469 11.3954 61.4735 11.9688 60.7656 11.9688C60.0577 11.9688 59.4844 11.3954 59.4844 10.6875ZM62.6875 15.8125C61.9796 15.8125 61.4062 15.2391 61.4062 14.5312C61.4062 13.8234 61.9796 13.25 62.6875 13.25C63.3954 13.25 63.9688 13.8234 63.9688 14.5312C63.9688 15.2391 63.3954 15.8125 62.6875 15.8125ZM63.3281 10.6875C63.3281 9.97961 63.9015 9.40625 64.6094 9.40625C65.3173 9.40625 65.8906 9.97961 65.8906 10.6875C65.8906 11.3954 65.3173 11.9688 64.6094 11.9688C63.9015 11.9688 63.3281 11.3954 63.3281 10.6875ZM66.5312 15.8125C65.8234 15.8125 65.25 15.2391 65.25 14.5312C65.25 13.8234 65.8234 13.25 66.5312 13.25C67.2391 13.25 67.8125 13.8234 67.8125 14.5312C67.8125 15.2391 67.2391 15.8125 66.5312 15.8125ZM67.1719 10.6875C67.1719 9.97961 67.7452 9.40625 68.4531 9.40625C69.161 9.40625 69.7344 9.97961 69.7344 10.6875C69.7344 11.3954 69.161 11.9688 68.4531 11.9688C67.7452 11.9688 67.1719 11.3954 67.1719 10.6875ZM70.375 15.8125C69.6671 15.8125 69.0938 15.2391 69.0938 14.5312C69.0938 13.8234 69.6671 13.25 70.375 13.25C71.0829 13.25 71.6562 13.8234 71.6562 14.5312C71.6562 15.2391 71.0829 15.8125 70.375 15.8125ZM70.375 8.125C69.6671 8.125 69.0938 7.55164 69.0938 6.84375C69.0938 6.13586 69.6671 5.5625 70.375 5.5625C71.0829 5.5625 71.6562 6.13586 71.6562 6.84375C71.6562 7.55164 71.0829 8.125 70.375 8.125Z" fill="#FFC730"/>
<path d="M94.7197 3H77.1826C76.9615 3 76.7822 3.17929 76.7822 3.40039V5.5625V6.44336C76.7822 6.66446 76.9615 6.84375 77.1826 6.84375H95.6006C95.8217 6.84375 96.001 6.66446 96.001 6.44336V4.28125C96.001 3.5736 95.4274 3 94.7197 3Z" fill="#FFC730"/>
<path d="M76.7822 10.6875V12.209C76.7822 12.4301 76.9615 12.6094 77.1826 12.6094H95.6006C95.8217 12.6094 96.001 12.4301 96.001 12.209V9.80664C96.001 9.58554 95.8217 9.40625 95.6006 9.40625H77.1826C76.9615 9.40625 76.7822 9.58554 76.7822 9.80664V10.6875Z" fill="#FFC730"/>
<path d="M76.7822 17.9751C76.7822 18.1962 76.9615 18.3755 77.1826 18.3755H95.6006C95.8217 18.3755 96.001 18.1962 96.001 17.9751V15.5728C96.001 15.3517 95.8217 15.1724 95.6006 15.1724H77.1826C76.9615 15.1724 76.7822 15.3517 76.7822 15.5728V17.9751Z" fill="#FFC730"/>
<path d="M55 21.3384V24.3813C55 24.6024 55.1793 24.7817 55.4004 24.7817H95.5996C95.8207 24.7817 96 24.6024 96 24.3813V21.3384C96 21.1173 95.8207 20.938 95.5996 20.938H55.4004C55.1793 20.938 55 21.1173 55 21.3384Z" fill="#FFC730"/>
<path d="M55 27.7437V29.9058C55 30.6134 55.5736 31.187 56.2812 31.187H94.7188C95.4264 31.187 96 30.6134 96 29.9058V27.7437C96 27.5226 95.8207 27.3433 95.5996 27.3433H55.4004C55.1793 27.3433 55 27.5226 55 27.7437Z" fill="#FFC730"/>
<path d="M0 53.6761C0 54.4757 0.560382 55.1033 1.36006 55.1033H3.53154C4.99061 51.8849 8.31258 49.4495 12.1697 49.4495C16.0271 49.4495 19.3483 51.8849 20.8081 55.1033H49.0334V43.5549H0V53.6761Z" fill="#565966"/>
<path d="M12.1694 52.5015C8.63426 52.5015 5.76855 55.3672 5.76855 58.9023C5.76855 62.4374 8.63426 65.3031 12.1694 65.3031C15.7028 65.2992 18.5663 62.4357 18.5702 58.9023C18.5702 55.3674 15.7045 52.5015 12.1694 52.5015Z" fill="#FFC730"/>
<path d="M77.1661 38.8508L71.07 36.1714H52.0625V55.1032H55.7519C57.212 51.8848 60.533 49.4494 64.3901 49.4494C68.2473 49.4494 71.5693 51.8848 73.0284 55.1032H76.639C77.4387 55.1032 77.9991 54.4756 77.9991 53.6759V40.2279C78.0192 39.6442 77.6924 39.1039 77.1661 38.8508Z" fill="#565966"/>
<path d="M64.8027 25.2555C64.042 23.7968 62.5231 22.8924 60.8781 22.9185H52.0625V33.1417H68.8957L64.8027 25.2555Z" fill="#565966"/>
<path d="M44.6859 12.696H4.32478C1.89034 12.696 0 14.7002 0 17.1346V40.5258H49.0334V17.1346C49.0334 17.1278 49.0336 17.121 49.0336 17.1142C49.0531 14.6937 47.1065 12.7155 44.6859 12.696Z" fill="#565966"/>
<path d="M64.3899 52.5015C60.8548 52.5017 57.9891 55.3674 57.9893 58.9025C57.9894 62.4376 60.8552 65.3033 64.3903 65.3031C67.9237 65.2992 70.787 62.4357 70.7909 58.9023V58.9021C70.7908 55.3672 67.9251 52.5015 64.3899 52.5015Z" fill="#FFC730"/>
</svg>
