<svg width="75" height="72" viewBox="0 0 75 72" fill="none" xmlns="http://www.w3.org/2000/svg">
<path d="M0 29.7914C0 30.1756 0.152631 30.5441 0.424316 30.8158L11.3408 41.7322C11.6125 42.0039 11.9809 42.1565 12.3652 42.1565H24.7729C25.573 42.1565 26.2216 41.5079 26.2216 40.7078V39.2591C26.2216 38.459 26.8702 37.8104 27.6703 37.8104H46.5035C47.3036 37.8104 47.9522 38.459 47.9522 39.2591V40.7078C47.9522 41.5079 48.6008 42.1565 49.4009 42.1565H61.8086C62.1928 42.1565 62.5613 42.0039 62.833 41.7322L73.7494 30.8158C74.0211 30.5441 74.1738 30.1825 74.1738 29.7983C74.1738 27.674 74.1738 20.6133 74.1738 17.5274C74.1738 16.7273 73.5252 16.0798 72.7251 16.0798H1.44871C0.648608 16.0798 0 16.7284 0 17.5285V29.7914Z" fill="#565966"/>
<path d="M42.159 42.1567H32.018C31.2179 42.1567 30.5693 42.8053 30.5693 43.6054V45.0542C30.5693 45.8542 31.2179 46.5029 32.018 46.5029H42.159C42.9591 46.5029 43.6077 45.8542 43.6077 45.0542V43.6054C43.6077 42.8053 42.9591 42.1567 42.159 42.1567Z" fill="#FFC730"/>
<path d="M72.7251 63.3083H1.44871C0.648608 63.3083 0 63.957 0 64.7571V70.5519C0 71.352 0.648608 72.0006 1.44871 72.0006H72.7251C73.5252 72.0006 74.1738 71.352 74.1738 70.5519V64.7571C74.1738 63.957 73.5252 63.3083 72.7251 63.3083Z" fill="#565966"/>
<path d="M64.6326 45.3542C64.3609 45.6259 63.9924 45.7785 63.6082 45.7785H49.4009C48.6008 45.7785 47.9522 46.4271 47.9522 47.2272V48.6759C47.9522 49.476 47.3036 50.1246 46.5035 50.1246H27.6703C26.8702 50.1246 26.2216 49.476 26.2216 48.6759V47.2272C26.2216 46.4271 25.573 45.7785 24.7729 45.7785H10.5656C10.1814 45.7785 9.81287 45.6259 9.54119 45.3542L2.4731 38.2861C1.56047 37.3735 0 38.0198 0 39.3105V57.513C0 58.3131 0.648608 58.9617 1.44871 58.9617H72.7251C73.5252 58.9617 74.1738 58.3131 74.1738 57.513V39.3105C74.1738 38.0198 72.6133 37.3735 71.7007 38.2861L64.6326 45.3542Z" fill="#565966"/>
<path d="M18.3966 0C17.9165 0 17.5273 0.389165 17.5273 0.869224V7.96788C17.5273 8.44794 17.9165 8.83711 18.3966 8.83711H21.0042C21.4843 8.83711 21.8735 9.22627 21.8735 9.70633V12.314C21.8735 12.7941 22.2626 13.1832 22.7427 13.1832H25.3504C25.8304 13.1832 26.2196 12.7941 26.2196 12.314V9.70633C26.2196 9.22627 26.6087 8.83711 27.0888 8.83711H47.081C47.561 8.83711 47.9502 9.22627 47.9502 9.70633V12.314C47.9502 12.7941 48.3393 13.1832 48.8194 13.1832H51.4271C51.9071 13.1832 52.2963 12.7941 52.2963 12.314V9.70633C52.2963 9.22627 52.6855 8.83711 53.1655 8.83711H55.7732C56.2532 8.83711 56.6424 8.44794 56.6424 7.96788V0.869224C56.6424 0.389165 56.2532 0 55.7732 0H18.3966Z" fill="#FFC730"/>
</svg>
