<svg width="78" height="78" viewBox="0 0 78 78" fill="none" xmlns="http://www.w3.org/2000/svg">
<g clip-path="url(#clip0)">
<path d="M7.92188 78H2.28516C1.02314 78 0 76.9769 0 75.7148V48.293C0 47.031 1.02314 46.0078 2.28516 46.0078H7.92188C9.18389 46.0078 10.207 47.031 10.207 48.293V75.7148C10.207 76.9769 9.18389 78 7.92188 78Z" fill="#FFC730"/>
<path d="M75.1439 53.1393C73.3822 52.1695 71.2321 52.2356 69.5333 53.3118L61.1727 58.6068C60.92 60.764 59.9703 62.7656 58.4229 64.3502C56.5424 66.2755 54.027 67.3359 51.3398 67.3359H39.9787C38.7482 67.3359 37.6894 66.3903 37.6315 65.1612C37.5696 63.8489 38.6153 62.7656 39.9141 62.7656H51.3398C54.3226 62.7656 56.7413 60.3034 56.6703 57.3049C56.6015 54.3942 54.1513 52.1016 51.2398 52.1016H38.3906L36.9001 50.9837C33.9317 48.7573 30.2535 47.5312 26.5429 47.5312C23.4149 47.5312 20.3438 48.3819 17.6615 49.9911L14.7773 51.7218V74.9531H53.1872C55.4082 74.9531 57.5811 74.3058 59.44 73.0904L75.5029 62.5877C77.0664 61.5652 78 59.8394 78 57.9712C78 55.9603 76.9056 54.1088 75.1439 53.1393Z" fill="#565966"/>
<path d="M32.2969 0C21.7966 0 13.2539 8.54268 13.2539 19.043C13.2539 29.5433 21.7966 38.0859 32.2969 38.0859C42.7972 38.0859 51.3398 29.5433 51.3398 19.043C51.3398 8.54268 42.7972 0 32.2969 0ZM34.582 28.4991V28.9453C34.582 30.2073 33.5589 31.2305 32.2969 31.2305C31.0349 31.2305 30.0117 30.2073 30.0117 28.9453V28.4971C28.165 27.7451 26.74 26.109 26.3256 24.068C26.0745 22.8313 26.8734 21.625 28.1103 21.3737C29.3469 21.1229 30.5535 21.9217 30.8047 23.1584C30.9477 23.8633 31.5755 24.3748 32.297 24.3748C33.1371 24.3748 33.8205 23.6914 33.8205 22.8514C33.8205 22.0114 33.1371 21.328 32.297 21.328C28.9369 21.328 26.2033 18.5943 26.2033 15.2342C26.2033 12.6822 27.7811 10.4927 30.0119 9.58669V9.14062C30.0119 7.87861 31.035 6.85547 32.297 6.85547C33.559 6.85547 34.5822 7.87861 34.5822 9.14062V9.58882C36.4289 10.3408 37.8539 11.977 38.2683 14.0179C38.5194 15.2546 37.7203 16.4609 36.4836 16.7123C35.247 16.9633 34.0406 16.1643 33.7892 14.9276C33.646 14.2225 33.0184 13.7109 32.2969 13.7109C31.4569 13.7109 30.7734 14.3944 30.7734 15.2344C30.7734 16.0744 31.4569 16.7578 32.2969 16.7578C35.657 16.7578 38.3906 19.4915 38.3906 22.8516C38.3906 25.4036 36.8128 27.5931 34.582 28.4991Z" fill="#FFC730"/>
<path d="M77.7858 30.7443C77.4096 29.9413 76.603 29.4284 75.7163 29.4284H72.3901C70.3704 21.4516 65.817 14.233 59.432 8.94529C56.4619 6.48555 53.153 4.49914 49.6328 3.02734C53.5275 7.23934 55.9117 12.8678 55.9117 19.0434C55.9117 20.9428 55.6847 22.7898 55.2593 24.5605C56.3202 26.0812 57.2175 27.7139 57.9231 29.4284H55.9117C55.025 29.4284 54.2184 29.9413 53.8422 30.7443C53.4661 31.5473 53.5886 32.4953 54.1562 33.1765L64.0585 45.0593C64.4927 45.5803 65.1358 45.8815 65.814 45.8815C66.4922 45.8815 67.1354 45.5802 67.5695 45.0593L77.4718 33.1765C78.0394 32.4953 78.1619 31.5472 77.7858 30.7443Z" fill="#565966"/>
</g>
<defs>
<clipPath id="clip0">
<rect width="78" height="78" fill="white"/>
</clipPath>
</defs>
</svg>
