<svg width="78" height="78" viewBox="0 0 78 78" fill="none" xmlns="http://www.w3.org/2000/svg">
<g clip-path="url(#clip0)">
<circle cx="38.5" cy="38.5" r="18.5" fill="#FFC730"/>
<path d="M70.4861 40.4768L78 39.1526L75.5857 25.4569L68.0782 26.7809C67.0395 24.3053 65.6929 21.9926 64.0898 19.8863L68.9942 14.0399L58.3402 5.10041L53.4407 10.942C51.1005 9.7341 48.5894 8.81151 45.9525 8.21813V0.593018H32.0472V8.21813C29.4103 8.81166 26.8992 9.7341 24.559 10.942L19.6595 5.10056L9.00565 14.0402L13.9101 19.8866C12.3069 21.9929 10.9604 24.3056 9.92169 26.7812L2.41419 25.4572L0 39.1526L7.5139 40.4766C7.64293 43.1973 8.1155 45.8262 8.88956 48.3243L2.28851 52.1353L9.24269 64.178L15.8518 60.362C17.6565 62.3136 19.7048 64.0392 21.9497 65.4841L19.3402 72.6513L32.4085 77.4073L35.018 70.2402C36.3212 70.4047 37.6518 70.4902 39 70.4902C40.3482 70.4902 41.6788 70.4047 42.982 70.2402L45.5915 77.4073L58.6597 72.6513L56.0502 65.4841C58.2951 64.0392 60.3434 62.3134 62.148 60.362L68.7572 64.178L75.7113 52.1353L69.1103 48.3243C69.8845 45.8263 70.3571 43.1975 70.4861 40.4768ZM39 53.4935C30.978 53.4935 24.4754 46.9908 24.4754 38.9689C24.4754 30.9469 30.978 24.4443 39 24.4443C47.022 24.4443 53.5246 30.9469 53.5246 38.9689C53.5246 46.9908 47.022 53.4935 39 53.4935Z" fill="#565966"/>
</g>
<defs>
<clipPath id="clip0">
<rect width="78" height="78" fill="white"/>
</clipPath>
</defs>
</svg>
