<svg width="78" height="78" viewBox="0 0 78 78" fill="none" xmlns="http://www.w3.org/2000/svg">
<g clip-path="url(#clip0)">
<path d="M18.8499 19.8251C16.2499 17.225 5.19995 16.5751 1.6249 16.25C1.29995 16.25 0.974848 16.25 0.649898 16.5749C0.324949 16.9001 0 17.5501 0 17.8751V47.1251C0 48.1001 0.650051 48.7501 1.62505 48.7501H11.3751C12.0251 48.7501 12.675 48.4252 13.0001 47.7751C13.0001 46.8001 18.8501 29.5751 19.5002 21.1252C19.5 20.8001 19.5 20.1502 18.8499 19.8251Z" fill="#FFC730"/>
<path d="M53.6254 27.6252C50.3755 26.6502 47.4505 25.3502 44.8504 24.3752C39.0004 21.7752 36.4004 23.0753 31.2004 28.2752C28.9255 30.5502 27.3004 33.8003 27.6254 35.1002C27.6254 35.4252 27.6254 35.4252 28.2754 35.7503C29.9005 36.4003 32.1754 36.7253 34.4504 33.1502C34.7753 32.8253 35.1004 32.5002 35.7503 32.5002C36.7253 32.5002 37.0503 32.1752 38.0253 31.8501C38.6753 31.5252 39.3252 31.2001 40.3002 30.8751C40.6252 30.8751 40.6252 30.8751 40.9503 30.8751C41.2752 30.8751 41.9253 31.2001 42.2502 31.2001C43.8754 32.8253 46.8004 35.1002 49.7254 37.7003C54.2755 41.2753 58.8254 45.1753 61.1005 48.1003H61.4254C59.1505 41.6003 55.2505 30.5502 53.6254 27.6252Z" fill="#565966"/>
<path d="M76.3751 19.5C63.7001 19.5 56.5501 22.7499 56.225 22.7499C55.9001 23.0749 55.5749 23.4 55.25 23.7249C55.25 24.0499 55.25 24.7 55.575 25.0249C57.525 28.2748 64.025 46.15 65 50.6999C65.325 51.3499 65.975 51.9998 66.6251 51.9998H76.3751C77.3501 51.9998 78.0001 51.3497 78.0001 50.3747V21.1247C78.0001 20.15 77.3501 19.5 76.3751 19.5Z" fill="#FFC730"/>
<path d="M58.8252 51.3503C57.5253 48.4252 52.0002 44.2003 47.1252 40.3003C44.5253 38.0252 41.9253 36.0752 39.9753 34.4501C39.6503 34.7751 39.0003 34.7751 39.0003 35.1002C38.0253 35.4251 37.7003 35.7502 36.4002 35.7502C33.8003 39.0002 30.5502 40.3001 26.9753 39.0002C25.3503 38.6752 24.3753 37.3751 24.0503 36.0752C23.4003 32.8252 26.3253 28.2752 28.6004 26.0002H22.1003C20.8004 32.5003 18.5253 40.9502 16.9004 45.5002C18.2003 46.8002 19.5004 48.4253 20.4754 49.0753C26.6504 54.2753 33.8005 59.4754 35.1004 60.4504C36.0754 61.1004 38.0254 61.7503 39.0004 61.7503C39.3254 61.7503 39.6505 61.7503 39.9754 61.7503L34.7753 56.5502C34.1253 55.9002 34.1253 54.9252 34.7753 54.2753C35.4254 53.6254 36.4004 53.6252 37.0503 54.2753L43.5503 60.7753C44.2004 61.4254 44.8503 61.1003 45.5003 61.1003C46.4753 60.7753 46.8003 60.1253 47.1254 59.1503L39.6503 51.6752C39.0003 51.0252 39.0003 50.0501 39.6503 49.4003C40.3004 48.7504 41.2754 48.7502 41.9253 49.4003L50.0502 57.5252C50.3752 57.8502 51.6753 57.8502 52.6503 57.5252C52.9752 57.2003 53.6253 56.8752 53.9502 56.2253L44.8503 47.1252C44.2002 46.4751 44.2002 45.5001 44.8503 44.8502C45.5003 44.2003 46.4753 44.2001 47.1252 44.8502L56.5503 54.2753C57.2003 54.6002 57.8502 54.2753 58.5003 53.9503C58.8252 53.6252 59.4753 52.6502 58.8252 51.3503Z" fill="#565966"/>
</g>
<defs>
<clipPath id="clip0">
<rect width="78" height="78" fill="white"/>
</clipPath>
</defs>
</svg>
