<svg width="78" height="78" viewBox="0 0 78 78" fill="none" xmlns="http://www.w3.org/2000/svg">
<circle cx="22.5" cy="53.5" r="5.5" fill="#FFC730"/>
<circle cx="63.5" cy="53.5" r="5.5" fill="#FFC730"/>
<path fill-rule="evenodd" clip-rule="evenodd" d="M18.3693 29.8594C18.3693 28.3657 17.4082 27.7266 16.0842 27.7266H4.57031C3.30812 27.7266 2.28516 26.7036 2.28516 25.4414C2.28516 24.1792 3.30812 23.1562 4.57031 23.1562H7.3125V18.1289C7.3125 16.8667 8.33546 15.8438 9.59766 15.8438H51.0352V29.5547C51.0352 30.8169 52.0581 31.8398 53.3203 31.8398H70.9214C70.9216 31.8402 70.9311 31.8411 70.9492 31.8429C71.431 31.8904 78 32.538 78 39V52.7109C78 53.9731 76.977 54.9961 75.7148 54.9961H71.7307C70.9118 59.0296 67.3478 62.0039 63.1465 62.0039C58.9451 62.0039 55.3811 59.0296 54.5623 54.9961H31.3596C30.5408 59.0296 26.9767 62.0039 22.7754 62.0039C18.574 62.0039 15.01 59.0296 14.1912 54.9961H9.59766C8.33546 54.9961 7.3125 53.9731 7.3125 52.7109V45.8555H2.28516C1.02296 45.8555 0 44.8325 0 43.5703C0 42.3081 1.02296 41.2852 2.28516 41.2852H22.8605C24.1227 41.2852 25.1456 40.2622 25.1456 39C25.1456 37.7372 24.1257 36.7148 22.8516 36.7148H2.28516C1.02296 36.7148 0 35.6919 0 34.4297C0 33.1681 1.02296 32.1445 2.28516 32.1445H16.0907C17.3499 32.141 18.3693 31.1192 18.3693 29.8594ZM66.1089 56.2071C67.7448 54.5712 67.7448 51.9177 66.1089 50.2818C63.4774 47.6503 58.957 49.5224 58.957 53.2441C58.957 56.9664 63.4774 58.8386 66.1089 56.2071ZM25.7378 56.2071C27.3737 54.5712 27.3737 51.9177 25.7378 50.2818C23.1063 47.6503 18.5859 49.5224 18.5859 53.2441C18.5859 56.9664 23.1063 58.8386 25.7378 56.2071Z" fill="#565966"/>
<path d="M55.6055 16.3032C62.3681 17.8724 64.955 21.8268 68.1982 27.2695H55.6055V16.3032Z" fill="#565966"/>
<path d="M55 16C62.5184 17.7172 65.3943 22.0443 69 28H55V16Z" fill="#FFC730"/>
</svg>
