<svg width="96" height="80" viewBox="0 0 96 80" fill="none" xmlns="http://www.w3.org/2000/svg">
<path d="M64.6895 33.3654C64.6895 33.5573 64.845 33.7129 65.0369 33.7129H85.9631C86.155 33.7129 86.3105 33.5573 86.3105 33.3654V7.63457C86.3105 7.44267 86.155 7.28711 85.9631 7.28711H65.0369C64.845 7.28711 64.6895 7.44267 64.6895 7.63457V33.3654ZM67.0918 16.8846C67.0918 16.6441 67.3301 16.4764 67.5565 16.5575L71.7065 18.045C71.9529 18.1333 72.2048 17.9277 72.1677 17.6686L71.8485 15.4428C71.8329 15.3345 71.8693 15.2252 71.9467 15.1478L75.2544 11.8401C75.39 11.7044 75.61 11.7044 75.7457 11.84L79.0544 15.1477C79.1318 15.2251 79.1683 15.3345 79.1527 15.4429L78.8326 17.6683C78.7953 17.9275 79.0473 18.1332 79.2938 18.0448L83.4435 16.5575C83.6699 16.4764 83.9082 16.6441 83.9082 16.8846V22.0989C83.9082 22.2015 83.8629 22.2989 83.7843 22.3649L79.2225 26.1991C79.1355 26.2723 79.0181 26.2982 78.9084 26.2686L77.1392 25.7907C76.9184 25.7311 76.7012 25.8974 76.7012 26.1262V28.5607C76.7012 28.7526 76.5456 28.9082 76.3537 28.9082H74.6463C74.4544 28.9082 74.2988 28.7526 74.2988 28.5607V26.1262C74.2988 25.8974 74.0816 25.7311 73.8608 25.7907L72.0916 26.2685C71.9819 26.2982 71.8645 26.2722 71.7775 26.1991L67.2157 22.3648C67.1371 22.2988 67.0918 22.2014 67.0918 22.0988V16.8846Z" fill="#FFC730"/>
<path d="M75.4094 22.8839C75.4687 22.8678 75.5313 22.8678 75.5906 22.8839L78.3241 23.6226C78.4339 23.6522 78.5513 23.6263 78.6384 23.5531L81.382 21.2462C81.4605 21.1802 81.5059 21.0829 81.5059 20.9803V20.2984C81.5059 20.058 81.2675 19.8902 81.0412 19.9713L76.3471 21.6535C76.1006 21.7419 75.8487 21.5362 75.8859 21.277L76.6025 16.2924C76.6181 16.1841 76.5817 16.0748 76.5044 15.9974L75.7457 15.2379C75.61 15.1021 75.3899 15.102 75.2542 15.2378L74.4945 15.9974C74.4171 16.0748 74.3807 16.1842 74.3962 16.2925L75.1119 21.277C75.1491 21.5362 74.8971 21.7418 74.6507 21.6535L69.9589 19.9714C69.7325 19.8902 69.4941 20.058 69.4941 20.2985V20.9803C69.4941 21.0829 69.5395 21.1802 69.618 21.2462L72.3616 23.5531C72.4487 23.6263 72.5661 23.6522 72.6759 23.6226L75.4094 22.8839Z" fill="#FFC730"/>
<path d="M55 7.63457C55 7.44267 55.1556 7.28711 55.3475 7.28711H61.9397C62.1315 7.28711 62.2871 7.44267 62.2871 7.63457V33.3654C62.2871 33.5573 62.1315 33.7129 61.9397 33.7129H55.3475C55.1556 33.7129 55 33.5573 55 33.3654V7.63457Z" fill="#FFC730"/>
<path d="M88.7129 7.63457C88.7129 7.44267 88.8685 7.28711 89.0603 7.28711H95.6525C95.8444 7.28711 96 7.44267 96 7.63457V33.3654C96 33.5573 95.8444 33.7129 95.6525 33.7129H89.0603C88.8685 33.7129 88.7129 33.5573 88.7129 33.3654V7.63457Z" fill="#FFC730"/>
<path d="M0 55.6761C0 56.4757 0.560382 57.1033 1.36006 57.1033H3.53154C4.99061 53.8849 8.31258 51.4495 12.1697 51.4495C16.0271 51.4495 19.3483 53.8849 20.8081 57.1033H49.0334V45.5549H0V55.6761Z" fill="#565966"/>
<path d="M12.1694 54.5015C8.63426 54.5015 5.76855 57.3672 5.76855 60.9023C5.76855 64.4374 8.63426 67.3031 12.1694 67.3031C15.7028 67.2992 18.5663 64.4357 18.5702 60.9023C18.5702 57.3674 15.7045 54.5015 12.1694 54.5015Z" fill="#FFC730"/>
<path d="M77.1661 40.8508L71.07 38.1714H52.0625V57.1032H55.7519C57.212 53.8848 60.533 51.4494 64.3901 51.4494C68.2473 51.4494 71.5693 53.8848 73.0284 57.1032H76.639C77.4387 57.1032 77.9991 56.4756 77.9991 55.6759V42.2279C78.0192 41.6442 77.6924 41.1039 77.1661 40.8508Z" fill="#565966"/>
<path d="M64.8027 27.2555C64.042 25.7968 62.5231 24.8924 60.8781 24.9185H52.0625V35.1417H68.8957L64.8027 27.2555Z" fill="#565966"/>
<path d="M44.6552 15.0007H4.32181C1.88904 15.0007 0 17.2332 0 19.9449V46.0007H48.9997V19.9449C48.9997 19.9373 48.9999 19.9297 48.9999 19.9221C49.0193 17.226 47.0741 15.0225 44.6552 15.0007Z" fill="#565966"/>
<path d="M64.3899 54.5015C60.8548 54.5017 57.9891 57.3674 57.9893 60.9025C57.9894 64.4376 60.8552 67.3033 64.3903 67.3031C67.9237 67.2992 70.787 64.4357 70.7909 60.9023V60.9021C70.7908 57.3672 67.9251 54.5015 64.3899 54.5015Z" fill="#FFC730"/>
</svg>
