<svg width="78" height="78" viewBox="0 0 78 78" fill="none" xmlns="http://www.w3.org/2000/svg">
<g clip-path="url(#clip0)">
<path d="M48.7485 16.2507C49.916 16.2507 51.069 16.3092 52.2057 16.418C49.2912 13.2441 45.7402 10.7204 41.7845 9.01155C37.8288 7.3027 33.5572 6.44712 29.2485 6.50066C13.1195 6.50066 -0.00152212 18.1641 -0.00152212 32.5007C0.0298545 38.7827 2.50706 44.8056 6.90473 49.2918C5.28623 52.5304 3.50523 54.7355 1.7941 55.5935C1.13907 55.9209 0.613794 56.4599 0.303422 57.1232C-0.00694991 57.7865 -0.0842277 58.5351 0.0841144 59.2478C0.252457 59.9605 0.656552 60.5954 1.2309 61.0497C1.80525 61.504 2.51619 61.751 3.24848 61.7507C8.85445 61.8402 14.4011 60.5932 19.4294 58.1131C17.3452 54.2356 16.2524 49.9028 16.2485 45.5007C16.2485 29.3717 30.828 16.2507 48.7485 16.2507Z" fill="#FFC730"/>
<path d="M76.2036 68.5929C74.4924 67.7373 72.7098 65.5298 71.0929 62.2911C75.4909 57.805 77.9684 51.7822 78 45.5C78 31.1634 64.8789 19.5 48.75 19.5C32.6211 19.5 19.5 31.1634 19.5 45.5C19.5 59.8366 32.6211 71.5 48.75 71.5C51.6063 71.504 54.4508 71.133 57.2106 70.3966C62.5712 73.3681 68.622 74.8699 74.75 74.75C75.4822 74.7501 76.193 74.503 76.7672 74.0487C77.3414 73.5943 77.7454 72.9594 77.9136 72.2467C78.0819 71.5341 78.0045 70.7855 77.6942 70.1224C77.3838 69.4592 76.8585 68.9202 76.2036 68.5929ZM52 58.5H45.5V45.5H52V58.5ZM48.75 42.25C48.1072 42.25 47.4789 42.0594 46.9444 41.7023C46.4099 41.3452 45.9934 40.8376 45.7474 40.2437C45.5014 39.6499 45.437 38.9964 45.5624 38.366C45.6878 37.7355 45.9974 37.1564 46.4519 36.7019C46.9064 36.2474 47.4855 35.9379 48.116 35.8124C48.7464 35.687 49.3999 35.7514 49.9937 35.9974C50.5876 36.2434 51.0952 36.6599 51.4523 37.1944C51.8094 37.7289 52 38.3572 52 39C52 39.862 51.6576 40.6886 51.0481 41.2981C50.4386 41.9076 49.612 42.25 48.75 42.25Z" fill="#565966"/>
</g>
<defs>
<clipPath id="clip0">
<rect width="78" height="78" fill="white"/>
</clipPath>
</defs>
</svg>
