<svg width="78" height="52" viewBox="0 0 78 52" fill="none" xmlns="http://www.w3.org/2000/svg">
<path d="M73.1669 16.7718C73.1143 16.7113 73.0698 16.6524 73.0077 16.5935L70.2743 13.9557C72.5413 13.4415 74.9817 11.5424 74.9817 9.59389C74.9817 7.32383 71.8313 6.51833 69.1425 6.51833C66.3311 6.51833 66.0048 8.44453 65.9714 9.80561L58.9191 3.0066C57.4863 1.58821 54.7689 0.47229 52.7376 0.47229H39.0024H38.9992H25.2608C23.2311 0.47229 20.5153 1.58821 19.0809 3.0066L12.0302 9.80561C11.9936 8.44453 11.6673 6.51833 8.85911 6.51833C6.16715 6.51833 3.01831 7.32383 3.01831 9.59389C3.01831 11.5424 5.46033 13.4415 7.72725 13.9557L4.9939 16.5935C4.93181 16.6524 4.88883 16.7113 4.8347 16.7718C1.91032 19.2711 0 23.9067 0 27.2704V37.2659C0 39.692 0.956752 41.8936 2.50252 43.5348V47.4111C2.50252 49.678 4.40011 51.5262 6.73388 51.5262H11.8504C14.1841 51.5262 16.0801 49.6812 16.0801 47.4111V46.4193H38.9992H39.0024H61.9199V47.4111C61.9199 49.6812 63.8143 51.5262 66.1512 51.5262H71.2661C73.6015 51.5262 75.4959 49.678 75.4959 47.4111V43.5348C77.0433 41.8936 77.9984 39.692 77.9984 37.2659V27.2704C78.0016 23.9067 76.0913 19.2711 73.1669 16.7718ZM21.671 6.02803C22.6628 5.20183 24.3964 4.57462 25.2608 4.57462H38.9992H39.0024H52.7408C53.6052 4.57462 55.3388 5.20183 56.3306 6.02803L65.5781 14.9904H39.0024H38.9992H12.425L21.671 6.02803ZM3.17272 25.7581C3.17272 23.297 5.09897 21.2991 7.47731 21.2991C9.85407 21.2991 17.6211 25.8583 17.6211 28.3194C17.6211 30.7805 9.85407 30.2106 7.47731 30.2106C5.09897 30.2106 3.17272 28.2207 3.17272 25.7581ZM16.0817 42.0368H15.2619H14.442L9.57867 42.0448C8.22871 41.6245 7.27673 41.1342 6.60334 40.6073C6.26267 40.3415 6.00159 40.0645 5.79782 39.7891C5.59246 39.5105 5.44282 39.2367 5.34572 38.9629C4.74078 37.2532 5.99045 35.682 5.99045 35.682H14.2908L19.8244 42.0337L16.0817 42.0368ZM50.9355 42.04H39.0024H38.9992H27.0661C24.5779 42.04 22.5577 40.0199 22.5577 37.5333H38.9992H39.0024H55.4439C55.4439 40.0231 53.4237 42.04 50.9355 42.04ZM51.983 34.4578H39.0024H38.9992H26.0186C23.3123 34.4578 21.1154 31.1212 21.1154 27.0061H38.9992H39.0024H56.8862C56.8862 31.1228 54.6893 34.4578 51.983 34.4578ZM72.6575 38.9661C72.5588 39.2399 72.4091 39.5137 72.2038 39.7907C72.0016 40.0661 71.7405 40.3431 71.3982 40.6089C70.7264 41.1358 69.7729 41.6293 68.4229 42.0464L63.5596 42.0384H62.7397H61.9199H58.174L63.7108 35.6867H72.0096C72.0096 35.6852 73.2608 37.2532 72.6575 38.9661ZM70.5243 30.2106C68.1491 30.2106 60.3821 30.7773 60.3821 28.3194C60.3821 25.8615 68.1491 21.2991 70.5243 21.2991C72.9026 21.2991 74.8289 23.297 74.8289 25.7581C74.8289 28.2175 72.9026 30.2106 70.5243 30.2106Z" fill="#565966"/>
</svg>
