<svg width="78" height="78" viewBox="0 0 78 78" fill="none" xmlns="http://www.w3.org/2000/svg">
<path d="M76.2916 55.0193L70.8986 50.9517L69.2533 49.7179C71.3643 46.5501 72.6353 42.6364 72.6353 38.5664C72.6353 27.2319 63.0781 18 51.7439 18C50.6644 18 50.5442 18.0145 49.3672 18.1827C49.4129 18.8684 49.4892 19.5538 49.4892 20.2852C49.4892 23.0272 48.8933 28.8926 44.9798 34.5902C47.5849 33.0364 54.4403 26.9576 56.5884 29.1515C57.8682 30.4311 58.5993 32.1678 58.5993 33.9961C58.5993 36.2806 57.5227 38.18 55.9484 39.3432L52.2007 42.1768C51.1039 42.9994 50.3271 44.142 49.9156 45.4218H56.3142C57.594 45.4218 58.5993 46.4271 58.5993 47.707C58.5993 48.9865 62.2798 44.5 61 44.5H56.5884C55.3085 44.5 53.5 44.7795 53.5 43.5C53.5 39.935 50.1207 45.6479 53 43.5L57 40.5C57.5332 40.1193 61 33.1633 61 32.5C61 31.9059 55.9572 28.4115 55.5 28C54.6316 27.1316 51.8227 28.1316 51 29C50.5428 29.4115 49.9156 29.9059 49.9156 30.5C49.9156 31.7795 49.7798 31 48.5 31C47.449 31 48 31.5 44.9798 34.5902C41.872 39.1148 37.3017 42.5425 32 44.2335C33.7824 50.5863 38.6269 55.705 44.7969 57.8988V57.853C46.9359 58.5668 49.096 59.1329 51.7439 59.1329H74.9205C75.9258 59.1329 76.7942 58.493 77.0684 57.5788C77.3884 56.6191 77.0685 55.6134 76.2916 55.0193Z" fill="#FFC730"/>
<path d="M40.6695 7.12967C40.3554 6.97261 35.0217 1.84582e-09 25.1306 1.84582e-09C13.8133 -0.000152342 4.48215 9.42991 4.56472 20.7469C4.59687 25.1594 5.80998 28.6517 7.80903 31.7941C-0.981344 38.8494 1.2217 37.0812 0.862165 37.3699C0.0852134 37.964 -0.188852 39.0152 0.131069 39.9292C0.450685 40.8433 1.31904 41.4376 2.27896 41.4376H25.1305C36.9264 41.4376 45.6968 31.5598 45.6968 20.5665C45.6967 15.4265 43.7951 11.0379 40.6695 7.12967Z" fill="#FFC730"/>
<path d="M25.1928 46.0065C25.1477 46.0053 25.1026 46.0062 25.0575 46.0078H25.1311C25.1518 46.0078 25.1721 46.0065 25.1928 46.0065Z" fill="#565966"/>
<path d="M28.3306 45.7793C27.2991 45.9137 26.2673 46.0032 25.193 46.0066C25.4673 46.0139 25.7428 46.071 26.006 46.1819C26.8607 46.5345 27.4469 47.3692 27.4469 48.293V64.289H29.7016C30.9647 64.289 31.9867 65.3111 31.9867 66.5742C31.9867 67.8373 30.9647 68.8593 29.7016 68.8593H20.561C19.2979 68.8593 18.2758 67.8373 18.2758 66.5742C18.2758 65.3111 19.2979 64.289 20.561 64.289H22.8461V53.8095L22.1766 54.479C21.284 55.3716 19.8378 55.3716 18.9452 54.479C18.0526 53.5864 18.0526 52.1402 18.9452 51.2477L23.5155 46.6774C23.9358 46.2586 24.4899 46.0267 25.0578 46.0078H8.1299C5.89015 49.2526 4.56491 53.1832 4.56491 57.4336C4.56491 61.3182 5.66178 65.0658 7.80998 68.3566L0.863117 73.9324C0.0863173 74.5265 -0.187901 75.5777 0.13202 76.4917C0.451637 77.4058 1.31999 78.0001 2.27991 78.0001H25.1314C34.5463 78.0001 42.4073 71.6931 44.8294 63.055C36.8313 60.4955 30.5242 53.9601 28.3306 45.7793Z" fill="#565966"/>
<path d="M40.6705 7.12967C40.3564 6.97261 35.0227 1.84582e-09 25.1316 1.84582e-09C13.8143 -0.000152342 4.48313 9.42991 4.5657 20.7469C4.59784 25.1594 5.81095 28.6517 7.81 31.7941C-0.980367 38.8494 1.22267 37.0812 0.863142 37.3699C0.08619 37.964 -0.187876 39.0152 0.132045 39.9292C0.451662 40.8433 1.32002 41.4376 2.27994 41.4376H25.1315C36.9274 41.4376 45.6978 31.5598 45.6978 20.5665C45.6977 15.4265 43.7961 11.0379 40.6705 7.12967ZM31.9868 25.1367C31.9868 26.971 31.2726 28.6939 29.9761 29.9859C28.6885 31.2781 26.9657 31.9921 25.1313 31.9921C23.2969 31.9921 21.5741 31.2779 20.2821 29.9815C18.99 28.6939 18.2758 26.971 18.2758 25.1367C18.2758 23.8736 19.2979 22.8515 20.561 22.8515C21.8241 22.8515 22.8461 23.8736 22.8461 25.1367C22.8461 25.7482 23.0827 26.3216 23.5134 26.7501C24.3793 27.6205 25.8878 27.6161 26.7448 26.7546C27.1799 26.3216 27.4165 25.7482 27.4165 25.1367C27.4165 24.5252 27.1799 23.9517 26.7492 23.5232C26.3162 23.0881 25.7428 22.8515 25.1313 22.8515C23.8682 22.8515 22.8461 21.8294 22.8461 20.5664C22.8461 19.3033 23.8682 18.2812 25.1313 18.2812C25.7428 18.2812 26.3162 18.0446 26.7448 17.614C27.1799 17.181 27.4165 16.6076 27.4165 15.9961C27.4165 15.3846 27.1799 14.8111 26.7492 14.3826C25.8833 13.5123 24.3748 13.5167 23.5178 14.3782C23.0827 14.8111 22.8461 15.3846 22.8461 15.9961C22.8461 17.2591 21.8241 18.2812 20.561 18.2812C19.2979 18.2812 18.2758 17.2591 18.2758 15.9961C18.2758 14.1617 18.99 12.4388 20.2865 11.1468C22.8617 8.56262 27.3963 8.5582 29.9805 11.1512C31.2726 12.4388 31.9868 14.1617 31.9868 15.9961C31.9868 17.7076 31.343 19.3077 30.2062 20.5658C31.3419 21.8211 31.9868 23.4228 31.9868 25.1367Z" fill="#565966"/>
<path d="M76.2916 55.0193L70.8986 50.9517L69.2533 49.7179C71.3643 46.5501 72.6353 42.6364 72.6353 38.5664C72.6353 27.2319 63.0781 18 51.7439 18C50.6644 18 50.5442 18.0145 49.3672 18.1827C49.4129 18.8684 49.4892 19.5538 49.4892 20.2852C49.4892 23.0272 49.0018 25.6781 48.2246 28.1459C50.8297 26.5922 54.4403 26.9576 56.5884 29.1515C57.8682 30.4311 58.5993 32.1678 58.5993 33.9961C58.5993 36.2806 57.5227 38.18 55.9484 39.3432L52.2007 42.1768C51.1039 42.9994 50.3271 44.142 49.9156 45.4218H56.3142C57.594 45.4218 58.5993 46.4271 58.5993 47.707C58.5993 48.9865 57.594 49.9921 56.3142 49.9921H47.1736C45.8937 49.9921 44.8884 48.9865 44.8884 47.707C44.8884 44.142 46.5794 40.7143 49.4587 38.5664L53.2064 35.6871C53.7396 35.3064 54.029 34.6594 54.029 33.9961C54.029 33.4019 53.8005 32.8078 53.3433 32.3963C52.475 31.5279 50.9669 31.5279 50.1443 32.3963C49.6871 32.8078 49.4586 33.4019 49.4586 33.9961C49.4586 35.2756 48.4532 36.2812 47.1734 36.2812C46.1224 36.2812 45.2082 35.5955 44.9798 34.5902C41.872 39.1148 37.3017 42.5425 32 44.2335C33.7824 50.5863 38.6269 55.705 44.7969 57.8988V57.853C46.9359 58.5668 49.096 59.1329 51.7439 59.1329H74.9205C75.9258 59.1329 76.7942 58.493 77.0684 57.5788C77.3884 56.6191 77.0685 55.6134 76.2916 55.0193Z" fill="#565966"/>
</svg>
