<svg width="78" height="46" viewBox="0 0 78 46" fill="none" xmlns="http://www.w3.org/2000/svg">
<path d="M18.8499 3.82493C16.2499 1.22488 5.19995 0.57498 1.6249 0.249878C1.29995 0.249878 0.974848 0.249878 0.649898 0.574828C0.324949 0.899929 0 1.54998 0 1.87493V31.1249C0 32.0999 0.650051 32.75 1.62505 32.75H11.3751C12.0251 32.75 12.675 32.425 13.0001 31.775C13.0001 30.8 18.8501 13.5749 19.5002 5.12503C19.5 4.79993 19.5 4.15003 18.8499 3.82493Z" fill="#FFC730"/>
<path d="M53.6254 11.6249C50.3755 10.6499 47.4505 9.34996 44.8504 8.37496C39.0004 5.77491 36.4004 7.07501 31.2004 12.275C28.9255 14.5499 27.3004 17.8 27.6254 19.1C27.6254 19.4249 27.6254 19.4249 28.2754 19.75C29.9005 20.4001 32.1754 20.725 34.4504 17.15C34.7753 16.825 35.1004 16.4999 35.7503 16.4999C36.7253 16.4999 37.0503 16.175 38.0253 15.8499C38.6753 15.5249 39.3252 15.1998 40.3002 14.8749C40.6252 14.8749 40.6252 14.8749 40.9503 14.8749C41.2752 14.8749 41.9253 15.1998 42.2502 15.1998C43.8754 16.825 46.8004 19.1 49.7254 21.7C54.2755 25.2751 58.8254 29.1751 61.1005 32.1001H61.4254C59.1505 25.6 55.2505 14.5499 53.6254 11.6249Z" fill="#565966"/>
<path d="M76.3751 3.5C63.7001 3.5 56.5501 6.74995 56.225 6.74995C55.9001 7.0749 55.5749 7.4 55.25 7.72495C55.25 8.0499 55.25 8.69995 55.575 9.0249C57.525 12.2748 64.025 30.15 65 34.6999C65.325 35.3499 65.975 35.9998 66.6251 35.9998H76.3751C77.3501 35.9998 78.0001 35.3497 78.0001 34.3747V5.12475C78.0001 4.15005 77.3501 3.5 76.3751 3.5Z" fill="#FFC730"/>
<path d="M58.8252 35.35C57.5253 32.425 52.0002 28.2001 47.1252 24.3001C44.5253 22.025 41.9253 20.075 39.9753 18.4499C39.6503 18.7748 39.0003 18.7748 39.0003 19.1C38.0253 19.4249 37.7003 19.75 36.4002 19.75C33.8003 23 30.5502 24.2999 26.9753 23C25.3503 22.675 24.3753 21.3749 24.0503 20.075C23.4003 16.825 26.3253 12.275 28.6004 10H22.1003C20.8004 16.5001 18.5253 24.95 16.9004 29.5C18.2003 30.8 19.5004 32.425 20.4754 33.0751C26.6504 38.275 33.8005 43.4751 35.1004 44.4501C36.0754 45.1002 38.0254 45.7501 39.0004 45.7501C39.3254 45.7501 39.6505 45.7501 39.9754 45.7501L34.7753 40.55C34.1253 39.8999 34.1253 38.9249 34.7753 38.275C35.4254 37.6251 36.4004 37.625 37.0503 38.275L43.5503 44.7751C44.2004 45.4251 44.8503 45.1 45.5003 45.1C46.4753 44.7751 46.8003 44.125 47.1254 43.15L39.6503 35.675C39.0003 35.0249 39.0003 34.0499 39.6503 33.4C40.3004 32.7501 41.2754 32.75 41.9253 33.4L50.0502 41.525C50.3752 41.8499 51.6753 41.8499 52.6503 41.525C52.9752 41.2 53.6253 40.8749 53.9502 40.225L44.8503 31.1249C44.2002 30.4749 44.2002 29.4999 44.8503 28.85C45.5003 28.2001 46.4753 28.1999 47.1252 28.85L56.5503 38.275C57.2003 38.6 57.8502 38.275 58.5003 37.9501C58.8252 37.625 59.4753 36.65 58.8252 35.35Z" fill="#565966"/>
</svg>
