<svg width="78" height="78" viewBox="0 0 78 78" fill="none" xmlns="http://www.w3.org/2000/svg">
<path d="M57.4276 35.5996C57.5574 35.5996 57.6865 35.6014 57.8162 35.6038L57.8496 35.6044C58.5774 35.6175 59.2992 35.6645 60.0139 35.7425V9.20311C60.0139 4.12875 55.8852 0 50.8108 0H10.8795C5.80453 0 1.67578 4.12875 1.67578 9.20311V62.1384C1.67578 67.2133 5.80453 71.3421 10.8789 71.3421H37.539C35.2384 67.6448 34.0316 63.422 34.0316 59.0088C34.0316 46.1006 44.5266 35.5996 57.4276 35.5996ZM34.682 15.0267H48.3203C49.5825 15.0267 50.6055 16.0497 50.6055 17.3118C50.6055 18.574 49.5825 19.597 48.3203 19.597H34.682C33.4204 19.597 32.3969 18.574 32.3969 17.3118C32.3969 16.0497 33.4204 15.0267 34.682 15.0267ZM34.682 24.1679H48.3203C49.5825 24.1679 50.6055 25.1909 50.6055 26.4531C50.6055 27.7153 49.5825 28.7382 48.3203 28.7382H34.682C33.4204 28.7382 32.3969 27.7153 32.3969 26.4531C32.3969 25.1909 33.4204 24.1679 34.682 24.1679ZM27.0077 56.3148H13.3694C12.1072 56.3148 11.0842 55.2919 11.0842 54.0297C11.0842 52.7681 12.1072 51.7445 13.3694 51.7445H27.0077C28.2693 51.7445 29.2928 52.7681 29.2928 54.0297C29.2928 55.2919 28.2693 56.3148 27.0077 56.3148ZM27.0077 47.0207H13.3694C12.1072 47.0207 11.0842 45.9977 11.0842 44.7355C11.0842 43.4733 12.1072 42.4503 13.3694 42.4503H27.0077C28.2693 42.4503 29.2928 43.4733 29.2928 44.7355C29.2928 45.9977 28.2693 47.0207 27.0077 47.0207ZM27.0077 37.8794H13.3694C12.1072 37.8794 11.0842 36.8565 11.0842 35.5943C11.0842 34.3321 12.1072 33.3091 13.3694 33.3091H27.0077C28.2693 33.3091 29.2928 34.3321 29.2928 35.5943C29.2928 36.8565 28.2693 37.8794 27.0077 37.8794ZM27.0077 28.7382H13.3694C12.1072 28.7382 11.0842 27.7153 11.0842 26.4531C11.0842 25.1909 12.1072 24.1679 13.3694 24.1679H27.0077C28.2693 24.1679 29.2928 25.1909 29.2928 26.4531C29.2928 27.7153 28.2693 28.7382 27.0077 28.7382ZM27.0077 19.597H13.3694C12.1072 19.597 11.0842 18.574 11.0842 17.3118C11.0842 16.0497 12.1072 15.0267 13.3694 15.0267H27.0077C28.2693 15.0267 29.2928 16.0497 29.2928 17.3118C29.2928 18.574 28.2693 19.597 27.0077 19.597ZM32.3969 35.5943C32.3969 34.3321 33.4204 33.3091 34.682 33.3091H41.2506C42.5128 33.3091 43.5358 34.3321 43.5358 35.5943C43.5358 36.8565 42.5128 37.8794 41.2506 37.8794H34.682C33.4204 37.8794 32.3969 36.8565 32.3969 35.5943Z" fill="#565966"/>
<path d="M70.9594 45.6942C67.452 42.1248 62.7674 40.1098 57.7692 40.0217L57.7365 40.0211C57.6335 40.0194 57.5306 40.0176 57.4276 40.0176C46.9629 40.0176 38.4495 48.5369 38.4495 59.0088C38.4495 63.1679 39.7694 67.1175 42.2659 70.4316C45.8894 75.2417 51.4154 78 57.4276 78C67.8923 78 76.4057 69.4806 76.4057 59.0088C76.4057 53.9957 74.4717 49.2671 70.9594 45.6942ZM65.5364 55.9214L58.2893 64.9555C57.8388 65.5167 57.1759 65.8113 56.5052 65.8113C56.0393 65.8113 55.5703 65.6691 55.1657 65.3763L49.7605 61.46C48.7387 60.7197 48.5102 59.2908 49.2511 58.2685C49.9913 57.2467 51.4202 57.0182 52.4419 57.7591L56.0857 60.3989L61.9718 53.0614C62.7614 52.0771 64.1992 51.9194 65.1841 52.7091C66.1684 53.4988 66.326 54.9371 65.5364 55.9214Z" fill="#FFC730"/>
</svg>
