<svg width="7" height="12" viewBox="0 0 7 12" fill="none" xmlns="http://www.w3.org/2000/svg">
<path d="M0.185426 11.9582C0.340699 12.0415 0.533214 11.9968 0.636222 11.8548L6.2612 4.09698C6.33878 3.99001 6.3498 3.84857 6.28975 3.73084C6.2297 3.61314 6.10872 3.53903 5.9766 3.53903H4.48603L6.27857 0.531538C6.34333 0.422905 6.34474 0.287859 6.28225 0.17789C6.21981 0.0679217 6.10307 0 5.9766 0H1.75787C1.59641 0 1.45571 0.109968 1.41671 0.266624L0.0104655 5.91505C-0.0156672 6.02004 0.0080046 6.13123 0.0746138 6.21647C0.141246 6.30174 0.24341 6.35154 0.351598 6.35154H1.95441L0.022278 11.5254C-0.0392687 11.6902 0.0304342 11.8751 0.185426 11.9582ZM2.79033 6.12298C2.83067 6.01505 2.8155 5.89421 2.74981 5.79955C2.68411 5.70488 2.57621 5.64842 2.46099 5.64842H0.801432L2.03262 0.703123H5.35781L3.56527 3.71061C3.50051 3.81925 3.4991 3.95429 3.56159 4.06426C3.62405 4.17423 3.74079 4.24215 3.86726 4.24215H5.28747L1.58663 9.34619L2.79033 6.12298Z" fill="#565966"/>
</svg>
