<svg width="24" height="24" viewBox="0 0 24 24" fill="none" xmlns="http://www.w3.org/2000/svg">
<path fill-rule="evenodd" clip-rule="evenodd" d="M16.48 9.89982L16.49 10.1698C16.49 12.9598 14.36 16.1798 10.48 16.1798C9.28999 16.1798 8.17999 15.8298 7.23999 15.2298C7.40999 15.2498 7.57999 15.2598 7.74999 15.2598C8.73999 15.2598 9.64999 14.9298 10.37 14.3598C9.43999 14.3398 8.66999 13.7298 8.39999 12.8898C8.52999 12.9198 8.65999 12.9298 8.78999 12.9298C8.98999 12.9298 9.16999 12.8998 9.34999 12.8598C8.37999 12.6598 7.65999 11.8098 7.65999 10.7898V10.7598C7.93999 10.9198 8.26999 11.0098 8.60999 11.0198C8.04999 10.6398 7.66999 9.99982 7.66999 9.26982C7.66999 8.87982 7.77999 8.51982 7.95999 8.19982C8.99999 9.47982 10.56 10.3198 12.31 10.4098C12.28 10.2598 12.26 10.0898 12.26 9.92982C12.26 8.75982 13.2 7.81982 14.37 7.81982C14.98 7.81982 15.52 8.06982 15.91 8.47982C16.39 8.38982 16.84 8.20982 17.25 7.96982C17.09 8.46982 16.76 8.87982 16.32 9.13982C16.75 9.08982 17.16 8.97982 17.53 8.80982C17.25 9.22982 16.89 9.59982 16.48 9.89982ZM12 0C5.37 0 0 5.37 0 12C0 18.63 5.37 24 12 24C18.63 24 24 18.63 24 12C24 5.37 18.63 0 12 0Z" fill="#B2B2B2"/>
</svg>
