<svg width="12" height="12" viewBox="0 0 12 12" fill="none" xmlns="http://www.w3.org/2000/svg">
<g clip-path="url(#clip0)">
<path d="M11.0845 0.81375C10.9817 0.74475 10.8505 0.73125 10.735 0.777C10.7095 0.7875 8.23824 1.7655 6.16074 0.786C4.37724 -0.05625 2.41299 0.3375 1.50024 0.60375V0.375C1.50024 0.168 1.33224 0 1.12524 0C0.918244 0 0.750244 0.168 0.750244 0.375V11.625C0.750244 11.832 0.918244 12 1.12524 12C1.33224 12 1.50024 11.832 1.50024 11.625V7.38975C2.16474 7.173 4.13424 6.65775 5.84049 7.464C6.65124 7.84725 7.49949 7.97475 8.26974 7.97475C9.75099 7.97475 10.942 7.503 11.0162 7.473C11.1572 7.41525 11.2502 7.278 11.2502 7.125V1.125C11.2502 1.0005 11.188 0.88425 11.0845 0.81375ZM10.5002 6.8595C9.83199 7.07625 7.86324 7.58925 6.15999 6.78525C4.37724 5.94375 2.41299 6.3375 1.50024 6.60375V1.3905C2.16474 1.17375 4.13424 0.6585 5.84049 1.46475C7.62174 2.3055 9.58749 1.9125 10.5002 1.6455V6.8595Z" fill="#565966"/>
</g>
<defs>
<clipPath id="clip0">
<rect width="12" height="12" fill="white" transform="translate(0.000244141)"/>
</clipPath>
</defs>
</svg>
